STARTFONT 2.1
COMMENT
COMMENT Converted from OpenType font "F:\Code\Pedal\Fonts\76London.otf" by "otf2bdf 3.0".
COMMENT
FONT -FreeType-76London-Medium-R-Normal--80-800-72-72-P-331-ISO10646-1
SIZE 80 72 72
FONTBOUNDINGBOX 86 97 -3 -17
STARTPROPERTIES 19
FOUNDRY "FreeType"
FAMILY_NAME "76London"
WEIGHT_NAME "Medium"
SLANT "R"
SETWIDTH_NAME "Normal"
ADD_STYLE_NAME ""
PIXEL_SIZE 80
POINT_SIZE 800
RESOLUTION_X 72
RESOLUTION_Y 72
SPACING "P"
AVERAGE_WIDTH 331
CHARSET_REGISTRY "ISO10646"
CHARSET_ENCODING "1"
FONT_ASCENT 79
FONT_DESCENT 17
COPYRIGHT "Copyright © 1997 [T-26] 1110 N. Milwaukee Ave. IL 60622. T0279 ID#5092439 Designer: Peter Bruhn"
_OTF_FONTFILE "F:\Code\Pedal\Fonts\76London.otf"
_OTF_PSNAME "76London"
ENDPROPERTIES
CHARS 211
STARTCHAR 0020
ENCODING 32
SWIDTH 300 0
DWIDTH 24 0
BBX 0 0 0 0
BITMAP
ENDCHAR
STARTCHAR 0021
ENCODING 33
SWIDTH 300 0
DWIDTH 24 0
BBX 13 62 5 0
BITMAP
3FE0
7FF0
FFF8
FFF8
FFF8
FFF8
FFF8
FFF8
FFF8
FFF8
FFF8
FFF8
FFF8
FFF8
FFF8
FFF8
FFF8
FFF8
FFF8
FFF8
FFF8
FFF8
FFF8
FFF8
FFF8
FFF8
FFF8
FFF8
FFF8
FFF8
FFF8
FFF8
FFF8
FFF8
FFF8
FFF8
FFF8
FFF8
FFF8
FFF8
FFF8
FFF8
FFF8
FFF8
FFF8
FFF8
FFF8
FFF8
0000
0000
0700
7FF0
7FF8
FFF8
FFF8
FFF8
FFF8
FFF8
FFF8
FFF8
7FF0
3FE0
ENDCHAR
STARTCHAR 0022
ENCODING 34
SWIDTH 425 0
DWIDTH 34 0
BBX 23 19 6 43
BITMAP
3F83FC
7FC3FE
FFC7FE
FFC7FE
7FC3FE
7F83FC
7F83FC
7F83FC
7F83FC
7F83FC
7F83FC
7F83FC
3F01F8
3F01F8
3F01F8
3F01F8
3F01F8
3F01F8
3F01F8
ENDCHAR
STARTCHAR 0023
ENCODING 35
SWIDTH 600 0
DWIDTH 48 0
BBX 47 62 1 0
BITMAP
00001FC01FC0
00001FC03FC0
00003FC03F80
00003F803F80
00003F803F80
00003F807F80
00007F807F80
00007F007F00
00007F007F00
00007F00FF00
0000FF00FF00
0000FE00FE00
0000FE00FE00
0000FE00FE00
0000FE01FE00
0001FE01FC00
0001FC01FC00
03FFFFFFFFFE
03FFFFFFFFFC
03FFFFFFFFFC
03FFFFFFFFFC
07FFFFFFFFFC
07FFFFFFFFF8
07FFFFFFFFF8
0007F007F000
0007F007F000
0007F00FF000
000FF00FE000
000FE00FE000
000FE00FE000
001FE01FE000
001FC01FC000
001FC01FC000
001FC03FC000
003FC03FC000
003F803F8000
7FFFFFFFFF80
7FFFFFFFFF80
7FFFFFFFFF80
7FFFFFFFFF80
FFFFFFFFFF80
FFFFFFFFFF00
FFFFFFFFFF00
FFFFFFFFFF00
00FE00FE0000
00FE00FE0000
00FE01FE0000
01FE01FE0000
01FC01FC0000
01FC01FC0000
01FC03FC0000
03FC03FC0000
03FC03F80000
03F803F80000
03F803F80000
07F807F80000
07F807F00000
07F007F00000
07F007F00000
0FF00FF00000
0FF00FF00000
0FE00FE00000
ENDCHAR
STARTCHAR 0024
ENCODING 36
SWIDTH 575 0
DWIDTH 46 0
BBX 38 62 6 0
BITMAP
0003FE0000
0003FE0000
0003FE0000
0003FE0000
001FFFFFC0
03FFFFFFC0
0FFFFFFFC0
1FFFFFFFC0
3FFFFFFFC0
3FFFFFFFC0
7FFFFFFFC0
7FFFFFFFC0
7FFC000000
FFF8000000
FFF0000000
FFF0000000
FFF0000000
FFF0000000
FFF0000000
FFF0000000
FFF0000000
FFF8000000
FFF8000000
FFFC000000
FFFF000000
7FFFFFF800
7FFFFFFF00
7FFFFFFFC0
3FFFFFFFE0
1FFFFFFFF0
0FFFFFFFF8
07FFFFFFF8
00FFFFFFF8
000003FFFC
000000FFFC
0000007FFC
0000007FFC
0000003FFC
0000003FFC
0000003FFC
0000003FFC
0000003FFC
0000003FFC
0000003FFC
0000003FFC
0000003FFC
0000003FFC
0000007FFC
000000FFFC
0FFFFFFFF8
0FFFFFFFF8
0FFFFFFFF8
0FFFFFFFF0
0FFFFFFFE0
0FFFFFFFC0
0FFFFFFF80
0FFFFFF800
0003FE0000
0003FE0000
0003FE0000
0003FE0000
0003FE0000
ENDCHAR
STARTCHAR 0025
ENCODING 37
SWIDTH 725 0
DWIDTH 58 0
BBX 52 63 3 0
BITMAP
03FFE00000FC00
1FFFFC0000FC00
3FFFFE0001F800
7FFFFF0003F800
7F80FF0003F000
FF007F8007E000
FE003F8007E000
FE003F800FC000
FE003F800FC000
FE003F801F8000
FE003F801F8000
FE003F803F0000
FE003F807E0000
FE003F807E0000
FE003F80FC0000
FE003F80FC0000
FE003F81F80000
FE003F81F80000
FE003F83F00000
FE003F83F00000
FE003F87E00000
FE003F8FC00000
FF003F8FC00000
FF007F9F800000
7F80FF1F800000
7FFFFF3F000000
3FFFFE3F000000
1FFFFC7E000000
07FFF07E000000
000000FC000000
000001F8000000
000001F8000000
000003F0000000
000003F0000000
000007E0000000
000007E07FFE00
00000FC3FFFF80
00000FC7FFFFE0
00001F8FFFFFE0
00003F0FF01FF0
00003F1FE00FF0
00007E1FC007F0
00007E1FC007F0
0000FC1FC007F0
0000FC1FC007F0
0001F81FC007F0
0001F81FC007F0
0003F01FC007F0
0007E01FC007F0
0007E01FC007F0
000FC01FC007F0
000FC01FC007F0
001F801FC007F0
001F801FC007F0
003F001FC007F0
003F001FC007F0
007E001FC007F0
00FC001FE00FF0
00FC000FF01FE0
01F8000FFFFFE0
01F80007FFFFC0
03F00003FFFF80
03F00000FFFE00
ENDCHAR
STARTCHAR 0026
ENCODING 38
SWIDTH 675 0
DWIDTH 54 0
BBX 47 62 4 -1
BITMAP
000FFFFFC000
01FFFFFFC000
07FFFFFFC000
0FFFFFFFC000
1FFFFFFFC000
3FFFFFFFC000
7FFFFFFFC000
7FFFFFFFC000
7FFFFFFFC000
FFFE00000000
FFF800000000
FFF800000000
FFF000000000
FFF000000000
FFF000000000
FFF000000000
FFF000000000
FFF000000000
FFF000000000
FFF000000000
FFF000000000
FFF000000000
FFF000000000
FFF800000000
FFF800000000
FFFE00000000
7FFFFFFFFFFE
7FFFFFFFFFFE
3FFFFFFFFFFE
0FFFFFFFFFFE
03FFFFFFFFFE
0FFFFFFFFFFE
1FFFFFFFFFFE
3FFFFFFFFFFE
3FFF001FFE00
7FFC001FFE00
7FF8001FFE00
FFF0001FFE00
FFF0001FFE00
FFF0001FFE00
FFF0001FFE00
FFF0001FFE00
FFF0001FFE00
FFF0001FFE00
FFF0001FFE00
FFF0001FFE00
FFF0001FFE00
FFF0001FFE00
FFF0001FFE00
FFF0001FFE00
FFF0001FFE00
FFF8003FFE00
7FFC003FFE00
7FFFC3FFFE00
7FFFFFFFFE00
7FFFFFFFFC00
3FFFFFFFFC00
3FFFFFFFFC00
1FFFFFFFF800
1FFFFFFFF000
07FFFFFFC000
00FFFFFE0000
ENDCHAR
STARTCHAR 0027
ENCODING 39
SWIDTH 300 0
DWIDTH 24 0
BBX 10 19 7 43
BITMAP
7F80
7FC0
FFC0
FFC0
7FC0
7F80
7F80
7F80
7F80
7F80
7F80
7F80
3F00
3F00
3F00
3F00
3F00
3F00
3F00
ENDCHAR
STARTCHAR 0028
ENCODING 40
SWIDTH 300 0
DWIDTH 24 0
BBX 20 62 3 0
BITMAP
0001F0
001FF0
007FF0
00FFC0
01FE00
03FC00
07F800
0FF800
1FF800
1FF000
1FF000
3FF000
3FF000
3FF000
7FF000
7FF000
7FF000
7FF000
7FF000
FFF000
FFF000
FFF000
FFF000
FFF000
FFF000
FFF000
FFF000
FFF000
FFF000
FFF000
FFF000
FFF000
FFF000
FFF000
FFF000
FFF000
FFF000
FFF000
FFF000
FFF000
FFF000
FFF000
FFF000
7FF000
7FF000
7FF000
7FF000
7FF000
7FF000
3FF000
3FF000
3FF000
1FF800
1FF800
0FF800
0FFC00
07FC00
03FE00
01FFE0
007FF0
001FF0
0003F0
ENDCHAR
STARTCHAR 0029
ENCODING 41
SWIDTH 300 0
DWIDTH 24 0
BBX 20 62 1 0
BITMAP
FC0000
FF8000
FFF000
7FF800
07FC00
03FE00
03FF00
01FF00
01FF80
01FF80
00FFC0
00FFC0
00FFC0
00FFE0
00FFE0
00FFE0
00FFE0
00FFE0
00FFE0
00FFF0
00FFF0
00FFF0
00FFF0
00FFF0
00FFF0
00FFF0
00FFF0
00FFF0
00FFF0
00FFF0
00FFF0
00FFF0
00FFF0
00FFF0
00FFF0
00FFF0
00FFF0
00FFF0
00FFF0
00FFF0
00FFF0
00FFF0
00FFF0
00FFF0
00FFE0
00FFE0
00FFE0
00FFE0
00FFE0
00FFC0
00FFC0
00FFC0
00FF80
01FF80
01FF00
01FE00
03FC00
07FC00
3FF000
FFE000
FF8000
F80000
ENDCHAR
STARTCHAR 002A
ENCODING 42
SWIDTH 600 0
DWIDTH 48 0
BBX 28 29 11 32
BITMAP
003F8000
003F8000
003F8000
003F8000
003F8000
003F8000
003F8000
303F81C0
3C3F87C0
7E3F8FC0
7FBFBFE0
7FFFFFE0
FFFFFFF0
FFFFFFF0
FFFFFFC0
00FFE000
007FE000
007FE000
00FFF000
01FFF800
03FBFC00
07FBFE00
0FF9FF00
1FF1FF00
1FF0FF00
07E0FE00
03E07C00
01C07000
00402000
ENDCHAR
STARTCHAR 002B
ENCODING 43
SWIDTH 600 0
DWIDTH 48 0
BBX 43 42 3 1
BITMAP
0000FFC00000
0000FFC00000
0001FFE00000
0001FFE00000
0001FFE00000
0001FFE00000
0001FFE00000
0001FFE00000
0001FFE00000
0001FFE00000
0001FFE00000
0001FFE00000
0001FFE00000
0001FFE00000
0001FFE00000
3FFFFFFFFF80
7FFFFFFFFFC0
FFFFFFFFFFC0
FFFFFFFFFFC0
FFFFFFFFFFE0
FFFFFFFFFFE0
FFFFFFFFFFE0
FFFFFFFFFFE0
FFFFFFFFFFC0
FFFFFFFFFFC0
7FFFFFFFFFC0
3FFFFFFFFF00
0001FFE00000
0001FFE00000
0001FFE00000
0001FFE00000
0001FFE00000
0001FFE00000
0001FFE00000
0001FFE00000
0001FFE00000
0001FFE00000
0001FFE00000
0001FFE00000
0001FFE00000
0000FFC00000
0000FFC00000
ENDCHAR
STARTCHAR 002C
ENCODING 44
SWIDTH 300 0
DWIDTH 24 0
BBX 13 19 5 -7
BITMAP
0700
7FF0
7FF8
FFF8
FFF8
FFF8
FFF8
FFF8
FFF8
FFF8
7FF8
3FF0
03F0
07E0
7FE0
FFC0
FF80
FE00
E000
ENDCHAR
STARTCHAR 002D
ENCODING 45
SWIDTH 362 0
DWIDTH 29 0
BBX 19 12 5 17
BITMAP
3FFF80
7FFFC0
FFFFE0
FFFFE0
FFFFE0
FFFFE0
FFFFE0
FFFFE0
FFFFE0
FFFFE0
7FFFC0
3FFF80
ENDCHAR
STARTCHAR 002E
ENCODING 46
SWIDTH 300 0
DWIDTH 24 0
BBX 13 12 5 0
BITMAP
0700
7FF0
7FF8
FFF8
FFF8
FFF8
FFF8
FFF8
FFF8
FFF8
7FF0
3FE0
ENDCHAR
STARTCHAR 002F
ENCODING 47
SWIDTH 300 0
DWIDTH 24 0
BBX 22 62 1 0
BITMAP
0000FC
0001F8
0001F8
0001F8
0001F8
0003F0
0003F0
0003F0
0003F0
0007E0
0007E0
0007E0
0007C0
000FC0
000FC0
000FC0
000F80
001F80
001F80
001F80
003F00
003F00
003F00
003F00
007E00
007E00
007E00
007C00
00FC00
00FC00
00FC00
00F800
01F800
01F800
01F800
03F000
03F000
03F000
03F000
07E000
07E000
07E000
07E000
0FC000
0FC000
0FC000
0F8000
1F8000
1F8000
1F8000
1F0000
3F0000
3F0000
3F0000
7E0000
7E0000
7E0000
7E0000
FC0000
FC0000
FC0000
F80000
ENDCHAR
STARTCHAR 0030
ENCODING 48
SWIDTH 600 0
DWIDTH 48 0
BBX 40 62 4 0
BITMAP
000FFFF000
00FFFFFF00
03FFFFFFC0
0FFFFFFFF0
1FFFFFFFF8
1FFFFFFFF8
3FFFFFFFFC
3FFFFFFFFC
7FFFFFFFFE
7FFE007FFE
7FFC003FFE
7FF8001FFE
FFF8001FFF
FFF8001FFF
FFF0000FFF
FFF0000FFF
FFF0000FFF
FFF0000FFF
FFF0000FFF
FFF0000FFF
FFF0000FFF
FFF0000FFF
FFF0000FFF
FFF0000FFF
FFF0000FFF
FFF0000FFF
FFF0000FFF
FFF0000FFF
FFF0000FFF
FFF0000FFF
FFF0000FFF
FFF0000FFF
FFF0000FFF
FFF0000FFF
FFF0000FFF
FFF0000FFF
FFF0000FFF
FFF0000FFF
FFF0000FFF
FFF0000FFF
FFF0000FFF
FFF0000FFF
FFF0000FFF
FFF0000FFF
FFF0000FFF
FFF0000FFF
FFF0000FFF
FFF8000FFF
FFF8001FFF
7FF8001FFE
7FFC001FFE
7FFC003FFE
7FFE007FFE
7FFFFFFFFE
3FFFFFFFFC
3FFFFFFFFC
3FFFFFFFF8
1FFFFFFFF8
0FFFFFFFF0
07FFFFFFE0
01FFFFFF80
001FFFF800
ENDCHAR
STARTCHAR 0031
ENCODING 49
SWIDTH 337 0
DWIDTH 27 0
BBX 18 62 5 0
BITMAP
FFE000
FFF800
FFFC00
FFFE00
FFFF00
FFFF00
FFFF80
FFFF80
FFFF80
1FFF80
07FF80
07FF80
03FFC0
03FFC0
03FFC0
03FFC0
03FFC0
03FFC0
03FFC0
03FFC0
03FFC0
03FFC0
03FFC0
03FFC0
03FFC0
03FFC0
03FFC0
03FFC0
03FFC0
03FFC0
03FFC0
03FFC0
03FFC0
03FFC0
03FFC0
03FFC0
03FFC0
03FFC0
03FFC0
03FFC0
03FFC0
03FFC0
03FFC0
03FFC0
03FFC0
03FFC0
03FFC0
03FFC0
03FFC0
03FFC0
03FFC0
03FFC0
03FFC0
03FFC0
03FFC0
03FFC0
03FFC0
03FFC0
03FFC0
03FFC0
03FFC0
03FFC0
ENDCHAR
STARTCHAR 0032
ENCODING 50
SWIDTH 600 0
DWIDTH 48 0
BBX 38 62 6 0
BITMAP
0FFFFFE000
0FFFFFFE00
0FFFFFFF80
0FFFFFFFE0
0FFFFFFFE0
0FFFFFFFF0
0FFFFFFFF8
0FFFFFFFF8
0FFFFFFFF8
000001FFF8
0000007FFC
0000007FFC
0000003FFC
0000003FFC
0000003FFC
0000003FFC
0000003FFC
0000003FFC
0000003FFC
0000003FFC
0000003FFC
0000007FFC
0000007FFC
000000FFFC
000000FFFC
000003FFF8
007FFFFFF8
03FFFFFFF8
0FFFFFFFF0
1FFFFFFFF0
3FFFFFFFE0
3FFFFFFFC0
7FFFFFFF00
7FFFFFF800
7FFF000000
FFFC000000
FFFC000000
FFF8000000
FFF8000000
FFF0000000
FFF0000000
FFF0000000
FFF0000000
FFF0000000
FFF0000000
FFF0000000
FFF0000000
FFF0000000
FFF0000000
FFF0000000
FFF0000000
FFF0000000
FFF0000000
FFFFFFFFFC
FFFFFFFFFC
FFFFFFFFFC
FFFFFFFFFC
FFFFFFFFFC
FFFFFFFFFC
FFFFFFFFFC
FFFFFFFFFC
FFFFFFFFFC
ENDCHAR
STARTCHAR 0033
ENCODING 51
SWIDTH 512 0
DWIDTH 41 0
BBX 34 62 4 0
BITMAP
FFFFFFC000
FFFFFFF800
FFFFFFFC00
FFFFFFFE00
FFFFFFFE00
FFFFFFFF00
FFFFFFFF00
FFFFFFFF80
FFFFFFFF80
00003FFF80
00000FFF80
000007FF80
000007FF80
000007FFC0
000003FFC0
000003FFC0
000003FFC0
000003FFC0
000003FFC0
000003FFC0
000003FFC0
000003FFC0
000003FFC0
000003FFC0
000003FFC0
000003FFC0
03FFFFFFC0
03FFFFFFC0
03FFFFFFC0
03FFFFFFC0
03FFFFFFC0
03FFFFFFC0
03FFFFFFC0
03FFFFFFC0
000003FFC0
000003FFC0
000003FFC0
000003FFC0
000003FFC0
000003FFC0
000003FFC0
000003FFC0
000003FFC0
000003FFC0
000003FFC0
000003FFC0
000003FFC0
000003FFC0
000007FFC0
000007FFC0
000007FF80
00000FFF80
00003FFF80
FFFFFFFF80
FFFFFFFF80
FFFFFFFF80
FFFFFFFF00
FFFFFFFF00
FFFFFFFE00
FFFFFFFC00
FFFFFFF800
FFFFFFE000
ENDCHAR
STARTCHAR 0034
ENCODING 52
SWIDTH 600 0
DWIDTH 48 0
BBX 37 62 6 0
BITMAP
FFF0007FF8
FFF0007FF8
FFF0007FF8
FFF0007FF8
FFF0007FF8
FFF0007FF8
FFF0007FF8
FFF0007FF8
FFF0007FF8
FFF0007FF8
FFF0007FF8
FFF0007FF8
FFF0007FF8
FFF0007FF8
FFF0007FF8
FFF0007FF8
FFF0007FF8
FFF0007FF8
FFF0007FF8
FFF0007FF8
FFF0007FF8
FFF0007FF8
FFF8007FF8
FFF8007FF8
7FFC007FF8
7FFE007FF8
7FFFFFFFF8
7FFFFFFFF8
3FFFFFFFF8
3FFFFFFFF8
1FFFFFFFF8
0FFFFFFFF8
07FFFFFFF8
01FFFFFFF8
0000007FF8
0000007FF8
0000007FF8
0000007FF8
0000007FF8
0000007FF8
0000007FF8
0000007FF8
0000007FF8
0000007FF8
0000007FF8
0000007FF8
0000007FF8
0000007FF8
0000007FF8
0000007FF8
0000007FF8
0000007FF8
0000007FF8
0000007FF8
0000007FF8
0000007FF8
0000007FF8
0000007FF8
0000007FF8
0000007FF8
0000007FF8
0000007FF8
ENDCHAR
STARTCHAR 0035
ENCODING 53
SWIDTH 600 0
DWIDTH 48 0
BBX 38 62 6 0
BITMAP
001FFFFF80
01FFFFFF80
07FFFFFF80
1FFFFFFF80
1FFFFFFF80
3FFFFFFF80
7FFFFFFF80
7FFFFFFF80
7FFFFFFF80
7FFC000000
FFF8000000
FFF8000000
FFF0000000
FFF0000000
FFF0000000
FFF0000000
FFF0000000
FFF0000000
FFF0000000
FFF0000000
FFF0000000
FFF0000000
FFF0000000
FFF0000000
FFF0000000
FFFFFFF800
FFFFFFFF00
FFFFFFFFC0
FFFFFFFFE0
FFFFFFFFF0
FFFFFFFFF0
FFFFFFFFF8
FFFFFFFFF8
000003FFF8
000000FFFC
000000FFFC
0000007FFC
0000007FFC
0000003FFC
0000003FFC
0000003FFC
0000003FFC
0000003FFC
0000003FFC
0000003FFC
0000003FFC
0000003FFC
0000003FFC
0000003FFC
0000003FFC
0000007FFC
0000007FFC
000001FFF8
FFFFFFFFF8
FFFFFFFFF8
FFFFFFFFF8
FFFFFFFFF0
FFFFFFFFE0
FFFFFFFFE0
FFFFFFFF80
FFFFFFFE00
FFFFFFE000
ENDCHAR
STARTCHAR 0036
ENCODING 54
SWIDTH 600 0
DWIDTH 48 0
BBX 39 62 5 0
BITMAP
01FFFFFFC0
07FFFFFFC0
0FFFFFFFC0
1FFFFFFFC0
3FFFFFFFC0
3FFFFFFFC0
3FFFFFFFC0
7FFFFFFFC0
7FFFFFFFC0
7FFF000000
7FFC000000
7FF8000000
FFF8000000
FFF8000000
FFF0000000
FFF0000000
FFF0000000
FFF0000000
FFF0000000
FFF0000000
FFF0000000
FFF0000000
FFF0000000
FFF0000000
FFF01FFC00
FFF0FFFF80
FFF3FFFFE0
FFF7FFFFF0
FFFFFFFFF8
FFFFFFFFF8
FFFFFFFFFC
FFFFFFFFFC
FFFF01FFFC
FFFC007FFE
FFF8003FFE
FFF8003FFE
FFF0001FFE
FFF0001FFE
FFF0001FFE
FFF0001FFE
FFF0001FFE
FFF0001FFE
FFF0001FFE
FFF0001FFE
FFF0001FFE
FFF0001FFE
FFF0001FFE
FFF0001FFE
7FF0001FFE
7FF0001FFE
7FF0001FFE
7FF8003FFE
7FFC003FFE
3FFFC3FFFE
3FFFFFFFFE
3FFFFFFFFC
1FFFFFFFFC
0FFFFFFFFC
07FFFFFFF8
03FFFFFFF0
00FFFFFFE0
000FFFFE00
ENDCHAR
STARTCHAR 0037
ENCODING 55
SWIDTH 537 0
DWIDTH 43 0
BBX 34 62 2 0
BITMAP
FFFFFFE000
FFFFFFF800
FFFFFFFC00
FFFFFFFE00
FFFFFFFF00
FFFFFFFF00
FFFFFFFF80
FFFFFFFF80
FFFFFFFF80
00003FFF80
00000FFF80
000007FF80
000007FFC0
000007FFC0
000003FFC0
000003FFC0
000003FFC0
000003FFC0
000003FFC0
000003FFC0
000003FFC0
000003FFC0
000003FFC0
000003FFC0
000003FFC0
000003FFC0
000003FFC0
000003FFC0
000003FFC0
000003FFC0
000003FFC0
000003FFC0
000003FFC0
000003FFC0
000003FFC0
000003FFC0
000003FFC0
000003FFC0
000003FFC0
000003FFC0
000003FFC0
000003FFC0
000003FFC0
000003FFC0
000003FFC0
000003FFC0
000003FFC0
000003FFC0
000003FFC0
000003FFC0
000003FFC0
000003FFC0
000003FFC0
000003FFC0
000003FFC0
000003FFC0
000003FFC0
000003FFC0
000003FFC0
000003FFC0
000003FFC0
000003FFC0
ENDCHAR
STARTCHAR 0038
ENCODING 56
SWIDTH 587 0
DWIDTH 47 0
BBX 40 62 4 0
BITMAP
003FFFFC00
03FFFFFFC0
0FFFFFFFF0
1FFFFFFFF8
3FFFFFFFFC
3FFFFFFFFE
7FFFFFFFFE
7FFFFFFFFE
7FFE00FFFF
FFFC003FFF
FFF8001FFF
FFF8001FFF
FFF0000FFF
FFF0000FFF
FFF0000FFF
FFF0000FFF
FFF0000FFF
FFF0000FFF
FFF0000FFF
FFF0000FFF
FFF0000FFF
FFF0000FFF
FFF0000FFF
FFF0000FFF
FFF8001FFF
7FF8001FFF
7FFC003FFE
7FFF00FFFE
3FFFFFFFFE
3FFFFFFFFC
1FFFFFFFF8
1FFFFFFFF8
3FFFFFFFFC
3FFFFFFFFC
7FFF00FFFE
7FFC003FFE
FFF8001FFE
FFF8001FFF
FFF0000FFF
FFF0000FFF
FFF0000FFF
FFF0000FFF
FFF0000FFF
FFF0000FFF
FFF0000FFF
FFF0000FFF
FFF0000FFF
FFF0000FFF
FFF0000FFF
FFF8000FFF
FFF8001FFF
FFF8001FFF
FFFC003FFF
7FFF007FFE
7FFFFFFFFE
7FFFFFFFFE
7FFFFFFFFE
3FFFFFFFFC
1FFFFFFFF8
0FFFFFFFF0
03FFFFFFC0
003FFFFC00
ENDCHAR
STARTCHAR 0039
ENCODING 57
SWIDTH 600 0
DWIDTH 48 0
BBX 39 62 5 0
BITMAP
00FFFFE000
0FFFFFFE00
1FFFFFFF80
3FFFFFFFC0
7FFFFFFFE0
7FFFFFFFF0
7FFFFFFFF8
FFFFFFFFF8
FFFF87FFF8
FFF8007FFC
FFF8003FFC
FFF0001FFC
FFF0001FFC
FFF0001FFE
FFF0001FFE
FFF0001FFE
FFF0001FFE
FFF0001FFE
FFF0001FFE
FFF0001FFE
FFF0001FFE
FFF0001FFE
FFF0001FFE
FFF0001FFE
FFF0001FFE
FFF0001FFE
FFF8003FFE
FFF8003FFE
FFFC007FFE
7FFF01FFFE
7FFFFFFFFE
7FFFFFFFFE
3FFFFFFFFE
3FFFFFFFFE
1FFFFFDFFE
0FFFFF9FFE
03FFFE1FFE
007FF01FFE
0000001FFE
0000001FFE
0000001FFE
0000001FFE
0000001FFE
0000001FFE
0000001FFE
0000001FFE
0000001FFE
0000001FFE
0000003FFE
0000003FFE
0000003FFC
0000007FFC
000001FFFC
07FFFFFFFC
07FFFFFFFC
07FFFFFFFC
07FFFFFFF8
07FFFFFFF8
07FFFFFFF0
07FFFFFFE0
07FFFFFFC0
07FFFFFF00
ENDCHAR
STARTCHAR 003A
ENCODING 58
SWIDTH 300 0
DWIDTH 24 0
BBX 13 46 5 0
BITMAP
3FE0
7FF0
FFF8
FFF8
FFF8
FFF8
FFF8
FFF8
FFF8
FFF8
7FF0
0700
0000
0000
0000
0000
0000
0000
0000
0000
0000
0000
0000
0000
0000
0000
0000
0000
0000
0000
0000
0000
0000
0000
0700
7FF0
7FF8
FFF8
FFF8
FFF8
FFF8
FFF8
FFF8
FFF8
7FF0
3FE0
ENDCHAR
STARTCHAR 003B
ENCODING 59
SWIDTH 300 0
DWIDTH 24 0
BBX 13 53 5 -7
BITMAP
3FE0
7FF0
FFF8
FFF8
FFF8
FFF8
FFF8
FFF8
FFF8
FFF8
7FF0
0700
0000
0000
0000
0000
0000
0000
0000
0000
0000
0000
0000
0000
0000
0000
0000
0000
0000
0000
0000
0000
0000
0000
0700
7FF0
7FF8
FFF8
FFF8
FFF8
FFF8
FFF8
FFF8
FFF8
7FF8
3FF0
03F0
07E0
7FE0
FFC0
FF80
FE00
E000
ENDCHAR
STARTCHAR 003C
ENCODING 60
SWIDTH 237 0
DWIDTH 19 0
BBX 14 29 2 6
BITMAP
00FC
01FC
01F8
03F8
03F0
07F0
0FE0
0FC0
1FC0
1F80
3F80
3F00
7F00
FE00
7E00
7F00
3F00
3F80
1F80
1FC0
0FC0
0FE0
07E0
07F0
03F0
03F8
01F8
01FC
00FC
ENDCHAR
STARTCHAR 003D
ENCODING 61
SWIDTH 600 0
DWIDTH 48 0
BBX 42 32 3 6
BITMAP
1FFFFFFFFF80
7FFFFFFFFFC0
7FFFFFFFFFC0
FFFFFFFFFFC0
FFFFFFFFFFC0
FFFFFFFFFFC0
FFFFFFFFFFC0
FFFFFFFFFFC0
FFFFFFFFFFC0
7FFFFFFFFFC0
7FFFFFFFFFC0
3FFFFFFFFF00
000000000000
000000000000
000000000000
000000000000
000000000000
000000000000
000000000000
000000000000
1FFFFFFFFF80
7FFFFFFFFFC0
7FFFFFFFFFC0
FFFFFFFFFFC0
FFFFFFFFFFC0
FFFFFFFFFFC0
FFFFFFFFFFC0
FFFFFFFFFFC0
FFFFFFFFFFC0
7FFFFFFFFFC0
7FFFFFFFFFC0
3FFFFFFFFF00
ENDCHAR
STARTCHAR 003E
ENCODING 62
SWIDTH 237 0
DWIDTH 19 0
BBX 13 29 3 6
BITMAP
FC00
FC00
FE00
7E00
7F00
3F00
3F80
1F80
1FC0
0FC0
0FE0
07E0
07F0
03F0
03F8
01F8
03F8
07F0
07F0
0FE0
0FC0
1FC0
1F80
3F80
3F00
7F00
7E00
FC00
FC00
ENDCHAR
STARTCHAR 003F
ENCODING 63
SWIDTH 600 0
DWIDTH 48 0
BBX 33 62 11 0
BITMAP
FFFFFE0000
FFFFFFE000
FFFFFFF800
FFFFFFFC00
FFFFFFFE00
FFFFFFFE00
FFFFFFFF00
FFFFFFFF00
FFFFFFFF00
00001FFF00
00000FFF80
00000FFF80
000007FF80
000007FF80
000007FF80
000007FF80
000007FF80
000007FF80
000007FF80
000007FF80
00000FFF80
00000FFF80
00001FFF80
00003FFF80
00007FFF80
00FFFFFF00
03FFFFFF00
0FFFFFFF00
1FFFFFFE00
3FFFFFFC00
3FFFFFFC00
7FFFFFF000
7FFFFFE000
7FFFFE0000
FFFF000000
FFFC000000
FFF8000000
FFF8000000
FFF8000000
FFF0000000
FFF0000000
FFF0000000
FFF0000000
FFF0000000
FFF0000000
FFF0000000
FFF0000000
0000000000
0000000000
0000000000
0700000000
7FE0000000
FFF0000000
FFF0000000
FFF0000000
FFF0000000
FFF0000000
FFF0000000
FFF0000000
FFF0000000
7FE0000000
3FC0000000
ENDCHAR
STARTCHAR 0040
ENCODING 64
SWIDTH 875 0
DWIDTH 70 0
BBX 58 63 7 0
BITMAP
00003FFFFF000000
0007FFFFFFF80000
007FFFFFFFFF0000
01FFFFFFFFFFC000
03FFFFFFFFFFF000
07FFC00001FFF800
0FF800000007FC00
1FC000000001FE00
3F80000000007F00
3F00000000003F00
7E00000000001F80
7C00000000000F80
7C00000000000F80
FC00000000000FC0
F80003FFF00007C0
F8001FFFFE0007C0
F8007FFFFF0007C0
F8007FFFFF8007C0
F800FFFFFFC007C0
F800FFC0FFC007C0
F801FF807FC007C0
F801FF003FE007C0
F801FF003FE007C0
F801FF003FE007C0
F801FF003FE007C0
F801FF003FE007C0
F801FF003FE007C0
F801FF003FE007C0
F801FF003FE007C0
F801FF003FE007C0
F801FF003FE007C0
F801FFFFFFFFFFC0
F801FFFFFFFFFFC0
F801FFFFFFFFFFC0
F801FFFFFFFFFFC0
F801FF003FE00000
F801FF003FE00000
F801FF003FE00000
F801FF003FE00000
F801FF003FE00000
F801FF003FE00000
F801FF003FE00000
F801FF003FE00000
F801FF003FE00000
F801FF003FE00000
F801FF003FE00000
F801FF003FE00000
F801FF003FE00000
FC00000000000000
7C00000000000000
7C00000000000000
7C00000000000000
7E00000000000000
3E00000000000000
3F00000000000000
1F80000000000000
1FC0000000000000
0FF0000000000000
07FF000000000000
01FFFFFFFFE00000
007FFFFFFFE00000
001FFFFFFFE00000
00007FFFFFE00000
ENDCHAR
STARTCHAR 0041
ENCODING 65
SWIDTH 612 0
DWIDTH 49 0
BBX 38 62 6 0
BITMAP
001FFFE000
01FFFFFE00
07FFFFFF80
0FFFFFFFC0
1FFFFFFFE0
3FFFFFFFF0
3FFFFFFFF0
7FFFFFFFF0
7FFFFFFFF8
7FFE01FFF8
7FFC00FFF8
FFF8007FF8
FFF8007FFC
FFF0003FFC
FFF0003FFC
FFF0003FFC
FFF0003FFC
FFF0003FFC
FFF0003FFC
FFF0003FFC
FFF0003FFC
FFF0003FFC
FFF0003FFC
FFF0003FFC
FFF0003FFC
FFF0003FFC
FFF0003FFC
FFF0003FFC
FFF0003FFC
FFFFFFFFFC
FFFFFFFFFC
FFFFFFFFFC
FFFFFFFFFC
FFFFFFFFFC
FFFFFFFFFC
FFFFFFFFFC
FFFFFFFFFC
FFF0003FFC
FFF0003FFC
FFF0003FFC
FFF0003FFC
FFF0003FFC
FFF0003FFC
FFF0003FFC
FFF0003FFC
FFF0003FFC
FFF0003FFC
FFF0003FFC
FFF0003FFC
FFF0003FFC
FFF0003FFC
FFF0003FFC
FFF0003FFC
FFF0003FFC
FFF0003FFC
FFF0003FFC
FFF0003FFC
FFF0003FFC
FFF0003FFC
FFF0003FFC
FFF0003FFC
FFF0003FFC
ENDCHAR
STARTCHAR 0042
ENCODING 66
SWIDTH 587 0
DWIDTH 47 0
BBX 38 62 6 0
BITMAP
001FFFF000
01FFFFFE00
07FFFFFF80
0FFFFFFFE0
1FFFFFFFE0
3FFFFFFFF0
3FFFFFFFF0
7FFFFFFFF8
7FFFFFFFF8
7FFE01FFF8
7FF8007FFC
FFF8007FFC
FFF8007FFC
FFF0003FFC
FFF0003FFC
FFF0003FFC
FFF0003FFC
FFF0003FFC
FFF0003FFC
FFF0003FFC
FFF0003FFC
FFF0003FFC
FFF0003FFC
FFF0007FFC
FFF000FFF8
FFF001FFF8
FFFFFFFFF0
FFFFFFFFE0
FFFFFFFFC0
FFFFFFFF00
FFFFFFFC00
FFFFFFFF80
FFFFFFFFC0
FFFFFFFFE0
FFF003FFF0
FFF000FFF8
FFF0007FF8
FFF0007FFC
FFF0007FFC
FFF0003FFC
FFF0003FFC
FFF0003FFC
FFF0003FFC
FFF0003FFC
FFF0003FFC
FFF0003FFC
FFF0003FFC
FFF0003FFC
FFF0003FFC
FFF0007FFC
FFF0007FFC
FFF000FFFC
FFF003FFFC
FFFFFFFFF8
FFFFFFFFF8
FFFFFFFFF8
FFFFFFFFF0
FFFFFFFFF0
FFFFFFFFE0
FFFFFFFFC0
FFFFFFFF80
FFFFFFFC00
ENDCHAR
STARTCHAR 0043
ENCODING 67
SWIDTH 512 0
DWIDTH 41 0
BBX 34 62 4 0
BITMAP
00FFFFFFC0
07FFFFFFC0
0FFFFFFFC0
1FFFFFFFC0
1FFFFFFFC0
3FFFFFFFC0
3FFFFFFFC0
3FFFFFFFC0
7FFFFFFFC0
7FFF000000
7FFC000000
7FF8000000
7FF8000000
FFF8000000
FFF0000000
FFF0000000
FFF0000000
FFF0000000
FFF0000000
FFF0000000
FFF0000000
FFF0000000
FFF0000000
FFF0000000
FFF0000000
FFF0000000
FFF0000000
FFF0000000
FFF0000000
FFF0000000
FFF0000000
FFF0000000
FFF0000000
FFF0000000
FFF0000000
FFF0000000
FFF0000000
FFF0000000
FFF0000000
FFF0000000
FFF0000000
FFF0000000
FFF0000000
FFF0000000
FFF0000000
FFF0000000
FFF0000000
FFF8000000
FFF8000000
FFF8000000
7FF8000000
7FFC000000
7FFF000000
7FFFFFFFC0
7FFFFFFFC0
3FFFFFFFC0
3FFFFFFFC0
3FFFFFFFC0
1FFFFFFFC0
0FFFFFFFC0
07FFFFFFC0
01FFFFFFC0
ENDCHAR
STARTCHAR 0044
ENCODING 68
SWIDTH 587 0
DWIDTH 47 0
BBX 38 62 6 0
BITMAP
FFFFFFFE00
FFFFFFFF80
FFFFFFFFC0
FFFFFFFFE0
FFFFFFFFE0
FFFFFFFFF0
FFFFFFFFF0
FFFFFFFFF8
FFFFFFFFF8
FFF001FFF8
FFF000FFF8
FFF0007FF8
FFF0007FFC
FFF0007FFC
FFF0003FFC
FFF0003FFC
FFF0003FFC
FFF0003FFC
FFF0003FFC
FFF0003FFC
FFF0003FFC
FFF0003FFC
FFF0003FFC
FFF0003FFC
FFF0003FFC
FFF0003FFC
FFF0003FFC
FFF0003FFC
FFF0003FFC
FFF0003FFC
FFF0003FFC
FFF0003FFC
FFF0003FFC
FFF0003FFC
FFF0003FFC
FFF0003FFC
FFF0003FFC
FFF0003FFC
FFF0003FFC
FFF0003FFC
FFF0003FFC
FFF0003FFC
FFF0003FFC
FFF0003FFC
FFF0003FFC
FFF0003FFC
FFF0003FFC
FFF0003FFC
FFF0007FFC
FFF0007FFC
FFF0007FF8
FFF000FFF8
FFF003FFF8
FFFFFFFFF8
FFFFFFFFF8
FFFFFFFFF8
FFFFFFFFF0
FFFFFFFFF0
FFFFFFFFE0
FFFFFFFFE0
FFFFFFFF80
FFFFFFFE00
ENDCHAR
STARTCHAR 0045
ENCODING 69
SWIDTH 512 0
DWIDTH 41 0
BBX 34 62 4 0
BITMAP
00FFFFFFC0
07FFFFFFC0
0FFFFFFFC0
1FFFFFFFC0
1FFFFFFFC0
3FFFFFFFC0
3FFFFFFFC0
3FFFFFFFC0
7FFFFFFFC0
7FFF000000
7FFC000000
7FF8000000
7FF8000000
FFF8000000
FFF0000000
FFF0000000
FFF0000000
FFF0000000
FFF0000000
FFF0000000
FFF0000000
FFF0000000
FFF0000000
FFF0000000
FFF0000000
FFF0000000
FFFFFFF000
FFFFFFF000
FFFFFFF000
FFFFFFF000
FFFFFFF000
FFFFFFF000
FFFFFFF000
FFFFFFF000
FFF0000000
FFF0000000
FFF0000000
FFF0000000
FFF0000000
FFF0000000
FFF0000000
FFF0000000
FFF0000000
FFF0000000
FFF0000000
FFF0000000
FFF0000000
FFF8000000
FFF8000000
FFF8000000
7FF8000000
7FFC000000
7FFF000000
7FFFFFFFC0
7FFFFFFFC0
3FFFFFFFC0
3FFFFFFFC0
3FFFFFFFC0
1FFFFFFFC0
0FFFFFFFC0
07FFFFFFC0
01FFFFFFC0
ENDCHAR
STARTCHAR 0046
ENCODING 70
SWIDTH 512 0
DWIDTH 41 0
BBX 34 62 4 0
BITMAP
00FFFFFFC0
07FFFFFFC0
0FFFFFFFC0
1FFFFFFFC0
1FFFFFFFC0
3FFFFFFFC0
3FFFFFFFC0
3FFFFFFFC0
7FFFFFFFC0
7FFF000000
7FFC000000
7FF8000000
7FF8000000
FFF8000000
FFF0000000
FFF0000000
FFF0000000
FFF0000000
FFF0000000
FFF0000000
FFF0000000
FFF0000000
FFF0000000
FFF0000000
FFF0000000
FFF0000000
FFFFFFF000
FFFFFFF000
FFFFFFF000
FFFFFFF000
FFFFFFF000
FFFFFFF000
FFFFFFF000
FFFFFFF000
FFF0000000
FFF0000000
FFF0000000
FFF0000000
FFF0000000
FFF0000000
FFF0000000
FFF0000000
FFF0000000
FFF0000000
FFF0000000
FFF0000000
FFF0000000
FFF0000000
FFF0000000
FFF0000000
FFF0000000
FFF0000000
FFF0000000
FFF0000000
FFF0000000
FFF0000000
FFF0000000
FFF0000000
FFF0000000
FFF0000000
FFF0000000
FFF0000000
ENDCHAR
STARTCHAR 0047
ENCODING 71
SWIDTH 587 0
DWIDTH 47 0
BBX 39 62 4 0
BITMAP
00FFFFFFC0
07FFFFFFC0
0FFFFFFFC0
1FFFFFFFC0
1FFFFFFFC0
3FFFFFFFC0
3FFFFFFFC0
3FFFFFFFC0
7FFFFFFFC0
7FFF000000
7FFC000000
7FF8000000
7FF8000000
7FF8000000
FFF0000000
FFF0000000
FFF0000000
FFF0000000
FFF0000000
FFF0000000
FFF0000000
FFF0000000
FFF0000000
FFF0000000
FFF0000000
FFF0000000
FFF0000000
FFF0000000
FFF0000000
FFF00FFFFE
FFF00FFFFE
FFF00FFFFE
FFF00FFFFE
FFF00FFFFE
FFF00FFFFE
FFF00FFFFE
FFF00FFFFE
FFF0000FFE
FFF0000FFE
FFF0000FFE
FFF0000FFE
FFF0000FFE
FFF0000FFE
FFF0000FFE
FFF0000FFE
FFF0000FFE
FFF0000FFE
FFF8000FFE
FFF8001FFE
FFF8001FFE
FFFC003FFE
7FFC007FFE
7FFF01FFFE
7FFFFFFFFE
7FFFFFFFFE
7FFFFFFFFE
3FFFFFFFFE
3FFFFFF3FE
1FFFFFF0FE
0FFFFFE01E
03FFFFC006
007FFE0000
ENDCHAR
STARTCHAR 0048
ENCODING 72
SWIDTH 612 0
DWIDTH 49 0
BBX 38 62 6 0
BITMAP
FFF0003FFC
FFF0003FFC
FFF0003FFC
FFF0003FFC
FFF0003FFC
FFF0003FFC
FFF0003FFC
FFF0003FFC
FFF0003FFC
FFF0003FFC
FFF0003FFC
FFF0003FFC
FFF0003FFC
FFF0003FFC
FFF0003FFC
FFF0003FFC
FFF0003FFC
FFF0003FFC
FFF0003FFC
FFF0003FFC
FFF0003FFC
FFF0003FFC
FFF0003FFC
FFF0003FFC
FFF0003FFC
FFF0003FFC
FFFFFFFFFC
FFFFFFFFFC
FFFFFFFFFC
FFFFFFFFFC
FFFFFFFFFC
FFFFFFFFFC
FFFFFFFFFC
FFFFFFFFFC
FFF0003FFC
FFF0003FFC
FFF0003FFC
FFF0003FFC
FFF0003FFC
FFF0003FFC
FFF0003FFC
FFF0003FFC
FFF0003FFC
FFF0003FFC
FFF0003FFC
FFF0003FFC
FFF0003FFC
FFF0003FFC
FFF0003FFC
FFF0003FFC
FFF0003FFC
FFF0003FFC
FFF0003FFC
FFF0003FFC
FFF0003FFC
FFF0003FFC
FFF0003FFC
FFF0003FFC
FFF0003FFC
FFF0003FFC
FFF0003FFC
FFF0003FFC
ENDCHAR
STARTCHAR 0049
ENCODING 73
SWIDTH 275 0
DWIDTH 22 0
BBX 12 62 6 0
BITMAP
FFF0
FFF0
FFF0
FFF0
FFF0
FFF0
FFF0
FFF0
FFF0
FFF0
FFF0
FFF0
FFF0
FFF0
FFF0
FFF0
FFF0
FFF0
FFF0
FFF0
FFF0
FFF0
FFF0
FFF0
FFF0
FFF0
FFF0
FFF0
FFF0
FFF0
FFF0
FFF0
FFF0
FFF0
FFF0
FFF0
FFF0
FFF0
FFF0
FFF0
FFF0
FFF0
FFF0
FFF0
FFF0
FFF0
FFF0
FFF0
FFF0
FFF0
FFF0
FFF0
FFF0
FFF0
FFF0
FFF0
FFF0
FFF0
FFF0
FFF0
FFF0
FFF0
ENDCHAR
STARTCHAR 004A
ENCODING 74
SWIDTH 537 0
DWIDTH 43 0
BBX 34 62 2 0
BITMAP
000003FFC0
000003FFC0
000003FFC0
000003FFC0
000003FFC0
000003FFC0
000003FFC0
000003FFC0
000003FFC0
000003FFC0
000003FFC0
000003FFC0
000003FFC0
000003FFC0
000003FFC0
000003FFC0
000003FFC0
000003FFC0
000003FFC0
000003FFC0
000003FFC0
000003FFC0
000003FFC0
000003FFC0
000003FFC0
000003FFC0
000003FFC0
000003FFC0
000003FFC0
000003FFC0
000003FFC0
000003FFC0
000003FFC0
000003FFC0
000003FFC0
000003FFC0
000003FFC0
000003FFC0
000003FFC0
000003FFC0
000003FFC0
000003FFC0
000003FFC0
000003FFC0
000003FFC0
000003FFC0
000003FFC0
000003FFC0
000007FFC0
000007FFC0
000007FF80
00000FFF80
00003FFF80
FFFFFFFF80
FFFFFFFF80
FFFFFFFF80
FFFFFFFF00
FFFFFFFF00
FFFFFFFE00
FFFFFFFC00
FFFFFFF800
FFFFFFE000
ENDCHAR
STARTCHAR 004B
ENCODING 75
SWIDTH 587 0
DWIDTH 47 0
BBX 37 62 6 0
BITMAP
FFF0003FF8
FFF0007FF0
FFF0007FE0
FFF000FFE0
FFF000FFC0
FFF001FFC0
FFF003FF80
FFF003FF80
FFF007FF00
FFF007FF00
FFF00FFE00
FFF00FFE00
FFF01FFC00
FFF01FFC00
FFF03FF800
FFF03FF800
FFF07FF000
FFF07FE000
FFF0FFE000
FFF0FFC000
FFF1FFC000
FFF1FF8000
FFF3FF8000
FFF3FF0000
FFF7FF0000
FFF7FE0000
FFFFFE0000
FFFFFFE000
FFFFFFFC00
FFFFFFFF00
FFFFFFFF80
FFFFFFFFC0
FFFFFFFFE0
FFFFFFFFE0
FFFFFFFFF0
FFF007FFF0
FFF001FFF8
FFF000FFF8
FFF000FFF8
FFF0007FF8
FFF0007FF8
FFF0007FF8
FFF0007FF8
FFF0007FF8
FFF0007FF8
FFF0007FF8
FFF0007FF8
FFF0007FF8
FFF0007FF8
FFF0007FF8
FFF0007FF8
FFF0007FF8
FFF0007FF8
FFF0007FF8
FFF0007FF8
FFF0007FF8
FFF0007FF8
FFF0007FF8
FFF0007FF8
FFF0007FF8
FFF0007FF8
FFF0007FF8
ENDCHAR
STARTCHAR 004C
ENCODING 76
SWIDTH 500 0
DWIDTH 40 0
BBX 34 62 6 0
BITMAP
FFF0000000
FFF0000000
FFF0000000
FFF0000000
FFF0000000
FFF0000000
FFF0000000
FFF0000000
FFF0000000
FFF0000000
FFF0000000
FFF0000000
FFF0000000
FFF0000000
FFF0000000
FFF0000000
FFF0000000
FFF0000000
FFF0000000
FFF0000000
FFF0000000
FFF0000000
FFF0000000
FFF0000000
FFF0000000
FFF0000000
FFF0000000
FFF0000000
FFF0000000
FFF0000000
FFF0000000
FFF0000000
FFF0000000
FFF0000000
FFF0000000
FFF0000000
FFF0000000
FFF0000000
FFF0000000
FFF0000000
FFF0000000
FFF0000000
FFF0000000
FFF0000000
FFF0000000
FFF0000000
FFF0000000
FFF8000000
FFF8000000
FFF8000000
7FF8000000
7FFC000000
7FFF000000
7FFFFFFFC0
7FFFFFFFC0
3FFFFFFFC0
3FFFFFFFC0
3FFFFFFFC0
1FFFFFFFC0
0FFFFFFFC0
07FFFFFFC0
01FFFFFFC0
ENDCHAR
STARTCHAR 004D
ENCODING 77
SWIDTH 937 0
DWIDTH 75 0
BBX 64 62 6 0
BITMAP
001FFFFFFFFFF800
01FFFFFFFFFFFF80
07FFFFFFFFFFFFE0
0FFFFFFFFFFFFFF0
1FFFFFFFFFFFFFF8
3FFFFFFFFFFFFFFC
3FFFFFFFFFFFFFFC
7FFFFFFFFFFFFFFC
7FFFFFFFFFFFFFFE
7FFE01FFFF807FFE
7FF800FFFE003FFE
FFF8007FFE001FFE
FFF8007FFE001FFF
FFF0003FFC000FFF
FFF0003FFC000FFF
FFF0003FFC000FFF
FFF0003FFC000FFF
FFF0003FFC000FFF
FFF0003FFC000FFF
FFF0003FFC000FFF
FFF0003FFC000FFF
FFF0003FFC000FFF
FFF0003FFC000FFF
FFF0003FFC000FFF
FFF0003FFC000FFF
FFF0003FFC000FFF
FFF0003FFC000FFF
FFF0003FFC000FFF
FFF0003FFC000FFF
FFF0003FFC000FFF
FFF0003FFC000FFF
FFF0003FFC000FFF
FFF0003FFC000FFF
FFF0003FFC000FFF
FFF0003FFC000FFF
FFF0003FFC000FFF
FFF0003FFC000FFF
FFF0003FFC000FFF
FFF0003FFC000FFF
FFF0003FFC000FFF
FFF0003FFC000FFF
FFF0003FFC000FFF
FFF0003FFC000FFF
FFF0003FFC000FFF
FFF0003FFC000FFF
FFF0003FFC000FFF
FFF0003FFC000FFF
FFF0003FFC000FFF
FFF0003FFC000FFF
FFF0003FFC000FFF
FFF0003FFC000FFF
FFF0003FFC000FFF
FFF0003FFC000FFF
FFF0003FFC000FFF
FFF0003FFC000FFF
FFF0003FFC000FFF
FFF0003FFC000FFF
FFF0003FFC000FFF
FFF0003FFC000FFF
FFF0003FFC000FFF
FFF0003FFC000FFF
FFF0003FFC000FFF
ENDCHAR
STARTCHAR 004E
ENCODING 78
SWIDTH 612 0
DWIDTH 49 0
BBX 38 62 6 0
BITMAP
001FFFE000
01FFFFFE00
07FFFFFF80
0FFFFFFFC0
1FFFFFFFE0
3FFFFFFFF0
3FFFFFFFF0
7FFFFFFFF0
7FFFFFFFF8
7FFE01FFF8
7FF800FFF8
FFF8007FF8
FFF8007FFC
FFF0003FFC
FFF0003FFC
FFF0003FFC
FFF0003FFC
FFF0003FFC
FFF0003FFC
FFF0003FFC
FFF0003FFC
FFF0003FFC
FFF0003FFC
FFF0003FFC
FFF0003FFC
FFF0003FFC
FFF0003FFC
FFF0003FFC
FFF0003FFC
FFF0003FFC
FFF0003FFC
FFF0003FFC
FFF0003FFC
FFF0003FFC
FFF0003FFC
FFF0003FFC
FFF0003FFC
FFF0003FFC
FFF0003FFC
FFF0003FFC
FFF0003FFC
FFF0003FFC
FFF0003FFC
FFF0003FFC
FFF0003FFC
FFF0003FFC
FFF0003FFC
FFF0003FFC
FFF0003FFC
FFF0003FFC
FFF0003FFC
FFF0003FFC
FFF0003FFC
FFF0003FFC
FFF0003FFC
FFF0003FFC
FFF0003FFC
FFF0003FFC
FFF0003FFC
FFF0003FFC
FFF0003FFC
FFF0003FFC
ENDCHAR
STARTCHAR 004F
ENCODING 79
SWIDTH 600 0
DWIDTH 48 0
BBX 40 62 4 0
BITMAP
000FFFF000
00FFFFFF00
03FFFFFFC0
0FFFFFFFF0
1FFFFFFFF8
1FFFFFFFF8
3FFFFFFFFC
3FFFFFFFFC
7FFFFFFFFE
7FFE007FFE
7FFC003FFE
7FF8001FFE
FFF8001FFF
FFF8001FFF
FFF0000FFF
FFF0000FFF
FFF0000FFF
FFF0000FFF
FFF0000FFF
FFF0000FFF
FFF0000FFF
FFF0000FFF
FFF0000FFF
FFF0000FFF
FFF0000FFF
FFF0000FFF
FFF0000FFF
FFF0000FFF
FFF0000FFF
FFF0000FFF
FFF0000FFF
FFF0000FFF
FFF0000FFF
FFF0000FFF
FFF0000FFF
FFF0000FFF
FFF0000FFF
FFF0000FFF
FFF0000FFF
FFF0000FFF
FFF0000FFF
FFF0000FFF
FFF0000FFF
FFF0000FFF
FFF0000FFF
FFF0000FFF
FFF0000FFF
FFF8000FFF
FFF8001FFF
7FF8001FFE
7FFC001FFE
7FFC003FFE
7FFE007FFE
7FFFFFFFFE
3FFFFFFFFC
3FFFFFFFFC
3FFFFFFFF8
1FFFFFFFF8
0FFFFFFFF0
07FFFFFFE0
01FFFFFF80
001FFFF800
ENDCHAR
STARTCHAR 0050
ENCODING 80
SWIDTH 562 0
DWIDTH 45 0
BBX 38 62 6 0
BITMAP
001FFFC000
01FFFFFC00
07FFFFFF00
0FFFFFFF80
1FFFFFFFC0
3FFFFFFFE0
3FFFFFFFF0
7FFFFFFFF0
7FFFFFFFF0
7FFE01FFF8
7FFC00FFF8
FFF8007FF8
FFF8007FF8
FFF0003FFC
FFF0003FFC
FFF0003FFC
FFF0003FFC
FFF0003FFC
FFF0003FFC
FFF0003FFC
FFF0003FFC
FFF0003FFC
FFF0003FFC
FFF0003FFC
FFF0003FFC
FFF0003FFC
FFF0003FFC
FFF0007FFC
FFF0007FFC
FFF000FFFC
FFF001FFF8
FFFFFFFFF8
FFFFFFFFF8
FFFFFFFFF0
FFFFFFFFF0
FFFFFFFFE0
FFFFFFFFC0
FFFFFFFF80
FFFFFFFE00
FFF0000000
FFF0000000
FFF0000000
FFF0000000
FFF0000000
FFF0000000
FFF0000000
FFF0000000
FFF0000000
FFF0000000
FFF0000000
FFF0000000
FFF0000000
FFF0000000
FFF0000000
FFF0000000
FFF0000000
FFF0000000
FFF0000000
FFF0000000
FFF0000000
FFF0000000
FFF0000000
ENDCHAR
STARTCHAR 0051
ENCODING 81
SWIDTH 600 0
DWIDTH 48 0
BBX 40 70 4 -8
BITMAP
000FFFF000
00FFFFFF00
03FFFFFFC0
0FFFFFFFF0
1FFFFFFFF8
1FFFFFFFF8
3FFFFFFFFC
3FFFFFFFFC
7FFFFFFFFE
7FFE00FFFE
7FFC003FFE
7FF8003FFE
FFF8001FFF
FFF8001FFF
FFF0000FFF
FFF0000FFF
FFF0000FFF
FFF0000FFF
FFF0000FFF
FFF0000FFF
FFF0000FFF
FFF0000FFF
FFF0000FFF
FFF0000FFF
FFF0000FFF
FFF0000FFF
FFF0000FFF
FFF0000FFF
FFF0000FFF
FFF0000FFF
FFF0000FFF
FFF0000FFF
FFF0000FFF
FFF0000FFF
FFF0000FFF
FFF0000FFF
FFF0000FFF
FFF0000FFF
FFF0000FFF
FFF0000FFF
FFF0000FFF
FFF0000FFF
FFF0000FFF
FFF0000FFF
FFF0000FFF
FFF0000FFF
FFF0000FFF
FFF8000FFF
FFF8001FFF
FFF8001FFF
7FF8001FFE
7FFC003FFE
7FFE003FFE
7FFF80FFFE
7FFFFFFFFE
3FFFFFFFFC
3FFFFFFFFC
1FFFFFFFF8
1FFFFFFFF8
0FFFFFFFF0
03FFFFFFC0
00FFFFFF00
0003FFC000
0003FFC000
0003FFC000
0003FFC000
0003FFC000
0003FFC000
0003FFC000
0003FFC000
ENDCHAR
STARTCHAR 0052
ENCODING 82
SWIDTH 587 0
DWIDTH 47 0
BBX 37 62 6 0
BITMAP
001FFFE000
01FFFFFE00
07FFFFFF00
0FFFFFFFC0
1FFFFFFFC0
3FFFFFFFE0
3FFFFFFFE0
7FFFFFFFF0
7FFFFFFFF0
7FFC01FFF0
7FF800FFF0
FFF800FFF8
FFF800FFF8
FFF0007FF8
FFF0007FF8
FFF0007FF8
FFF0007FF8
FFF0007FF8
FFF0007FF8
FFF0007FF8
FFF0007FF8
FFF0007FF8
FFF0007FF8
FFF0007FF8
FFF000FFF8
FFF001FFF0
FFF003FFF0
FFFFFFFFE0
FFFFFFFFC0
FFFFFFFF80
FFFFFFFE00
FFFFFFFF00
FFFFFFFF80
FFFFFFFFE0
FFFFFFFFE0
FFF007FFF0
FFF001FFF0
FFF000FFF8
FFF000FFF8
FFF0007FF8
FFF0007FF8
FFF0007FF8
FFF0007FF8
FFF0007FF8
FFF0007FF8
FFF0007FF8
FFF0007FF8
FFF0007FF8
FFF0007FF8
FFF0007FF8
FFF0007FF8
FFF0007FF8
FFF0007FF8
FFF0007FF8
FFF0007FF8
FFF0007FF8
FFF0007FF8
FFF0007FF8
FFF0007FF8
FFF0007FF8
FFF0007FF8
FFF0007FF8
ENDCHAR
STARTCHAR 0053
ENCODING 83
SWIDTH 575 0
DWIDTH 46 0
BBX 38 62 4 0
BITMAP
001FFFFFC0
01FFFFFFC0
07FFFFFFC0
0FFFFFFFC0
1FFFFFFFC0
3FFFFFFFC0
3FFFFFFFC0
7FFFFFFFC0
7FFFFFFFC0
7FFE000000
FFF8000000
FFF8000000
FFF0000000
FFF0000000
FFF0000000
FFF0000000
FFF0000000
FFF0000000
FFF0000000
FFF0000000
FFF0000000
FFF8000000
FFF8000000
FFFC000000
FFFE000000
7FFF000000
7FFFFFF800
7FFFFFFF00
3FFFFFFFC0
3FFFFFFFE0
1FFFFFFFF0
0FFFFFFFF0
03FFFFFFF8
007FFFFFF8
000003FFF8
000000FFFC
000000FFFC
0000007FFC
0000007FFC
0000003FFC
0000003FFC
0000003FFC
0000003FFC
0000003FFC
0000003FFC
0000003FFC
0000003FFC
0000003FFC
0000003FFC
0000003FFC
0000007FFC
0000007FFC
000001FFF8
0FFFFFFFF8
0FFFFFFFF8
0FFFFFFFF8
0FFFFFFFF0
0FFFFFFFE0
0FFFFFFFE0
0FFFFFFF80
0FFFFFFE00
0FFFFFE000
ENDCHAR
STARTCHAR 0054
ENCODING 84
SWIDTH 437 0
DWIDTH 35 0
BBX 34 62 1 0
BITMAP
FFFFFFFFC0
FFFFFFFFC0
FFFFFFFFC0
FFFFFFFFC0
FFFFFFFFC0
FFFFFFFFC0
FFFFFFFFC0
FFFFFFFFC0
FFFFFFFFC0
001FFE0000
001FFE0000
001FFE0000
001FFE0000
001FFE0000
001FFE0000
001FFE0000
001FFE0000
001FFE0000
001FFE0000
001FFE0000
001FFE0000
001FFE0000
001FFE0000
001FFE0000
001FFE0000
001FFE0000
001FFE0000
001FFE0000
001FFE0000
001FFE0000
001FFE0000
001FFE0000
001FFE0000
001FFE0000
001FFE0000
001FFE0000
001FFE0000
001FFE0000
001FFE0000
001FFE0000
001FFE0000
001FFE0000
001FFE0000
001FFE0000
001FFE0000
001FFE0000
001FFE0000
001FFE0000
001FFE0000
001FFE0000
001FFE0000
001FFE0000
001FFE0000
001FFE0000
001FFE0000
001FFE0000
001FFE0000
001FFE0000
001FFE0000
001FFE0000
001FFE0000
001FFE0000
ENDCHAR
STARTCHAR 0055
ENCODING 85
SWIDTH 612 0
DWIDTH 49 0
BBX 39 62 6 0
BITMAP
FFF0001FFE
FFF0001FFE
FFF0001FFE
FFF0001FFE
FFF0001FFE
FFF0001FFE
FFF0001FFE
FFF0001FFE
FFF0001FFE
FFF0001FFE
FFF0001FFE
FFF0001FFE
FFF0001FFE
FFF0001FFE
FFF0001FFE
FFF0001FFE
FFF0001FFE
FFF0001FFE
FFF0001FFE
FFF0001FFE
FFF0001FFE
FFF0001FFE
FFF0001FFE
FFF0001FFE
FFF0001FFE
FFF0001FFE
FFF0001FFE
FFF0001FFE
FFF0001FFE
FFF0001FFE
FFF0001FFE
FFF0001FFE
FFF0001FFE
FFF0001FFE
FFF0001FFE
FFF0001FFE
FFF0001FFE
FFF0001FFE
FFF0001FFE
FFF0001FFE
FFF0001FFE
FFF0001FFE
FFF0001FFE
FFF0001FFE
FFF0001FFE
FFF0001FFE
FFF0001FFE
FFF0001FFE
FFF0001FFE
FFF8003FFE
FFF8003FFE
FFF8003FFE
7FFC007FFE
7FFF83FFFC
7FFFFFFFFC
7FFFFFFFFC
3FFFFFFFF8
3FFFFFFFF8
1FFFFFFFF0
0FFFFFFFE0
03FFFFFF80
003FFFF800
ENDCHAR
STARTCHAR 0056
ENCODING 86
SWIDTH 525 0
DWIDTH 42 0
BBX 38 62 2 0
BITMAP
FFF0001FFC
FFF0001FFC
FFF0003FFC
7FF0003FF8
7FF0003FF8
7FF8003FF8
7FF8003FF8
3FF8003FF8
3FF8007FF0
3FF8007FF0
3FFC007FF0
3FFC007FF0
1FFC007FF0
1FFC007FE0
1FFC00FFE0
1FFE00FFE0
0FFE00FFE0
0FFE00FFC0
0FFE00FFC0
0FFE00FFC0
0FFF01FFC0
07FF01FFC0
07FF01FF80
07FF01FF80
07FF01FF80
03FF81FF80
03FF83FF80
03FF83FF00
03FF83FF00
03FF83FF00
01FFC3FF00
01FFC3FF00
01FFC7FE00
01FFC7FE00
00FFC7FE00
00FFE7FE00
00FFE7FC00
00FFE7FC00
00FFEFFC00
007FEFFC00
007FFFFC00
007FFFF800
007FFFF800
007FFFF800
003FFFF800
003FFFF800
003FFFF000
003FFFF000
001FFFF000
001FFFF000
001FFFF000
001FFFE000
001FFFE000
000FFFE000
000FFFE000
000FFFC000
000FFFC000
0007FFC000
0007FFC000
0007FFC000
0007FF8000
0007FF8000
ENDCHAR
STARTCHAR 0057
ENCODING 87
SWIDTH 862 0
DWIDTH 69 0
BBX 65 62 2 0
BITMAP
FFF0001FFE0003FF80
FFF0001FFE0003FF80
FFF0003FFE0007FF80
7FF0003FFE0007FF00
7FF0003FFE0007FF00
7FF8003FFF0007FF00
7FF8003FFF0007FF00
3FF8003FFF0007FF00
3FF8007FFF000FFE00
3FF8007FFF000FFE00
3FFC007FFF800FFE00
3FFC007FFF800FFE00
1FFC007FFF800FFC00
1FFC007FFF800FFC00
1FFC007FFF801FFC00
1FFE00FFFFC01FFC00
0FFE00FFFFC01FFC00
0FFE00FFFFC01FF800
0FFE00FFFFC01FF800
0FFE00FFFFC01FF800
07FF00FFFFE03FF800
07FF01FFFFE03FF800
07FF01FFFFE03FF000
07FF01FFFFE03FF000
07FF81FFFFE03FF000
03FF81FFFFF03FF000
03FF81FFFFF07FF000
03FF83FF7FF07FE000
03FF83FF7FF07FE000
01FFC3FF7FF07FE000
01FFC3FF3FF87FE000
01FFC3FF3FF87FE000
01FFC3FE3FF8FFC000
01FFC7FE3FF8FFC000
00FFE7FE3FF8FFC000
00FFE7FE1FFCFFC000
00FFE7FE1FFCFF8000
00FFE7FC1FFCFF8000
007FE7FC1FFDFF8000
007FFFFC0FFDFF8000
007FFFFC0FFFFF8000
007FFFFC0FFFFF0000
007FFFF80FFFFF0000
003FFFF80FFFFF0000
003FFFF807FFFF0000
003FFFF807FFFF0000
003FFFF807FFFE0000
001FFFF007FFFE0000
001FFFF003FFFE0000
001FFFF003FFFE0000
001FFFF003FFFE0000
001FFFF003FFFC0000
000FFFE003FFFC0000
000FFFE001FFFC0000
000FFFE001FFFC0000
000FFFE001FFF80000
0007FFC001FFF80000
0007FFC000FFF80000
0007FFC000FFF80000
0007FFC000FFF80000
0007FFC000FFF00000
0003FF8000FFF00000
ENDCHAR
STARTCHAR 0058
ENCODING 88
SWIDTH 562 0
DWIDTH 45 0
BBX 38 62 4 0
BITMAP
FFE0003FFC
FFF0003FF8
7FF0007FF8
7FF8007FF0
7FF8007FF0
3FF800FFE0
3FFC00FFE0
1FFC01FFE0
1FFE01FFC0
0FFE03FFC0
0FFF03FF80
07FF07FF80
07FF07FF00
07FF87FF00
03FF8FFF00
03FFCFFE00
01FFDFFE00
01FFFFFC00
00FFFFFC00
00FFFFF800
00FFFFF800
007FFFF000
007FFFF000
003FFFF000
003FFFE000
001FFFE000
001FFFC000
000FFFC000
000FFF8000
000FFF8000
0007FF8000
0007FF8000
000FFF8000
000FFF8000
000FFFC000
001FFFC000
001FFFE000
003FFFE000
003FFFF000
007FFFF000
007FFFF800
00FFFFF800
00FFFFF800
00FFFFFC00
01FFFFFC00
01FFDFFE00
03FFCFFE00
03FF8FFF00
07FF87FF00
07FF07FF00
07FF07FF80
0FFF03FF80
0FFE03FFC0
1FFE01FFC0
1FFC01FFE0
3FFC00FFE0
3FF800FFE0
7FF8007FF0
7FF8007FF0
7FF0007FF8
FFF0003FF8
FFE0003FFC
ENDCHAR
STARTCHAR 0059
ENCODING 89
SWIDTH 562 0
DWIDTH 45 0
BBX 38 62 4 0
BITMAP
FFF0003FFC
FFF0003FFC
FFF0003FFC
FFF0003FFC
FFF0003FFC
FFF0003FFC
FFF0003FFC
FFF0003FFC
FFF0003FFC
FFF0003FFC
FFF0003FFC
FFF0003FFC
FFF0003FFC
FFF0003FFC
FFF0003FFC
FFF0003FFC
FFF0003FFC
FFF0003FFC
FFF0003FFC
FFF0003FFC
FFF0003FFC
FFF0003FFC
FFF0003FFC
FFF0003FFC
FFF0003FFC
FFF8007FFC
FFF8007FFC
FFF8007FFC
FFFC00FFFC
FFFE03FFF8
7FFFFFFFF8
7FFFFFFFF8
7FFFFFFFF8
7FFFFFFFF0
3FFFFFFFF0
1FFFFFFFE0
0FFFFFFF80
01FFFFFE00
0007FF8000
0007FF8000
0007FF8000
0007FF8000
0007FF8000
0007FF8000
0007FF8000
0007FF8000
0007FF8000
0007FF8000
0007FF8000
0007FF8000
0007FF8000
0007FF8000
0007FF8000
0007FF8000
0007FF8000
0007FF8000
0007FF8000
0007FF8000
0007FF8000
0007FF8000
0007FF8000
0007FF8000
ENDCHAR
STARTCHAR 005A
ENCODING 90
SWIDTH 462 0
DWIDTH 37 0
BBX 33 62 2 0
BITMAP
7FFFFFFF80
7FFFFFFF80
7FFFFFFF80
7FFFFFFF80
7FFFFFFF80
7FFFFFFF80
7FFFFFFF80
7FFFFFFF80
7FFFFFFF80
000003FF80
000003FF80
000007FF00
000007FF00
00000FFE00
00000FFE00
00001FFC00
00001FFC00
00003FF800
00003FF800
00007FF000
00007FF000
0000FFE000
0000FFE000
0001FFC000
0001FFC000
0003FFC000
0003FF8000
0007FF8000
0007FF0000
000FFF0000
000FFE0000
001FFE0000
001FFC0000
003FFC0000
003FF80000
007FF80000
007FF00000
00FFF00000
00FFE00000
01FFE00000
01FFC00000
03FFC00000
03FF800000
07FF800000
07FF000000
0FFF000000
0FFE000000
1FFE000000
1FFC000000
3FFC000000
3FF8000000
7FF8000000
7FF0000000
FFFFFFFF80
FFFFFFFF80
FFFFFFFF80
FFFFFFFF80
FFFFFFFF80
FFFFFFFF80
FFFFFFFF80
FFFFFFFF80
FFFFFFFF80
ENDCHAR
STARTCHAR 005B
ENCODING 91
SWIDTH 300 0
DWIDTH 24 0
BBX 16 62 6 0
BITMAP
FFFF
FFFF
FFFF
FFFF
FFC0
FFC0
FFC0
FFC0
FFC0
FFC0
FFC0
FFC0
FFC0
FFC0
FFC0
FFC0
FFC0
FFC0
FFC0
FFC0
FFC0
FFC0
FFC0
FFC0
FFC0
FFC0
FFC0
FFC0
FFC0
FFC0
FFC0
FFC0
FFC0
FFC0
FFC0
FFC0
FFC0
FFC0
FFC0
FFC0
FFC0
FFC0
FFC0
FFC0
FFC0
FFC0
FFC0
FFC0
FFC0
FFC0
FFC0
FFC0
FFC0
FFC0
FFC0
FFC0
FFC0
FFC0
FFFF
FFFF
FFFF
FFFF
ENDCHAR
STARTCHAR 005C
ENCODING 92
SWIDTH 300 0
DWIDTH 24 0
BBX 22 62 1 0
BITMAP
F80000
FC0000
FC0000
FC0000
7E0000
7E0000
7E0000
7E0000
3F0000
3F0000
3F0000
3F0000
1F8000
1F8000
1F8000
0F8000
0FC000
0FC000
0FC000
07C000
07E000
07E000
07E000
03F000
03F000
03F000
03F000
01F800
01F800
01F800
00F800
00FC00
00FC00
00FC00
007C00
007E00
007E00
007E00
003F00
003F00
003F00
003F00
001F80
001F80
001F80
001F80
000FC0
000FC0
000FC0
0007C0
0007E0
0007E0
0007E0
0003E0
0003F0
0003F0
0003F0
0001F8
0001F8
0001F8
0001F8
0000FC
ENDCHAR
STARTCHAR 005D
ENCODING 93
SWIDTH 300 0
DWIDTH 24 0
BBX 16 62 2 0
BITMAP
FFFF
FFFF
FFFF
FFFF
03FF
03FF
03FF
03FF
03FF
03FF
03FF
03FF
03FF
03FF
03FF
03FF
03FF
03FF
03FF
03FF
03FF
03FF
03FF
03FF
03FF
03FF
03FF
03FF
03FF
03FF
03FF
03FF
03FF
03FF
03FF
03FF
03FF
03FF
03FF
03FF
03FF
03FF
03FF
03FF
03FF
03FF
03FF
03FF
03FF
03FF
03FF
03FF
03FF
03FF
03FF
03FF
03FF
03FF
FFFF
FFFF
FFFF
FFFF
ENDCHAR
STARTCHAR 005E
ENCODING 94
SWIDTH 350 0
DWIDTH 28 0
BBX 26 13 1 49
BITMAP
00FFC000
00FFC000
01FFE000
03FFF000
03FFF000
07FFF800
0FFFFC00
0FF3FC00
1FE1FE00
3FC0FF00
3F807F00
7F003F80
FE001FC0
ENDCHAR
STARTCHAR 005F
ENCODING 95
SWIDTH 575 0
DWIDTH 46 0
BBX 46 4 0 -11
BITMAP
FFFFFFFFFFFC
FFFFFFFFFFFC
FFFFFFFFFFFC
FFFFFFFFFFFC
ENDCHAR
STARTCHAR 0060
ENCODING 96
SWIDTH 237 0
DWIDTH 19 0
BBX 16 13 1 49
BITMAP
FFE0
7FE0
7FF0
3FF0
1FF0
1FF8
0FF8
07FC
07FC
03FE
03FE
01FF
00FF
ENDCHAR
STARTCHAR 0061
ENCODING 97
SWIDTH 612 0
DWIDTH 49 0
BBX 38 46 6 0
BITMAP
003FFFF000
03FFFFFF00
0FFFFFFFC0
1FFFFFFFE0
3FFFFFFFF0
7FFFFFFFF0
7FFF8FFFF8
7FFC00FFF8
FFF8007FF8
FFF0003FFC
FFF0003FFC
FFF0003FFC
FFF0003FFC
FFF0003FFC
FFF0003FFC
FFF0003FFC
FFF0003FFC
FFF0003FFC
FFF0003FFC
FFF0003FFC
FFFFFFFFFC
FFFFFFFFFC
FFFFFFFFFC
FFFFFFFFFC
FFFFFFFFFC
FFFFFFFFFC
FFFFFFFFFC
FFF0003FFC
FFF0003FFC
FFF0003FFC
FFF0003FFC
FFF0003FFC
FFF0003FFC
FFF0003FFC
FFF0003FFC
FFF0003FFC
FFF0003FFC
FFF0003FFC
FFF0003FFC
FFF0003FFC
FFF0003FFC
FFF0003FFC
FFF0003FFC
FFF0003FFC
FFF0003FFC
FFF0003FFC
ENDCHAR
STARTCHAR 0062
ENCODING 98
SWIDTH 587 0
DWIDTH 47 0
BBX 38 46 6 0
BITMAP
003FFFF000
03FFFFFF80
0FFFFFFFC0
1FFFFFFFF0
3FFFFFFFF0
7FFFFFFFF8
7FFF8FFFF8
7FFC00FFF8
FFF8007FFC
FFF0003FFC
FFF0003FFC
FFF0003FFC
FFF0003FFC
FFF0003FFC
FFF0003FFC
FFF0003FFC
FFF0003FFC
FFF0007FF8
FFF001FFF8
FFFFFFFFF0
FFFFFFFFE0
FFFFFFFF00
FFFFFFFE00
FFFFFFFFC0
FFFFFFFFE0
FFF003FFF0
FFF000FFF8
FFF0007FFC
FFF0007FFC
FFF0003FFC
FFF0003FFC
FFF0003FFC
FFF0003FFC
FFF0003FFC
FFF0003FFC
FFF0003FFC
FFF0007FFC
FFF0007FFC
FFF000FFFC
FFFFFFFFF8
FFFFFFFFF8
FFFFFFFFF8
FFFFFFFFF0
FFFFFFFFE0
FFFFFFFFC0
FFFFFFFE00
ENDCHAR
STARTCHAR 0063
ENCODING 99
SWIDTH 512 0
DWIDTH 41 0
BBX 34 46 4 0
BITMAP
01FFFFFFC0
07FFFFFFC0
1FFFFFFFC0
1FFFFFFFC0
3FFFFFFFC0
3FFFFFFFC0
7FFFFFFFC0
7FFC000000
7FF8000000
7FF8000000
FFF0000000
FFF0000000
FFF0000000
FFF0000000
FFF0000000
FFF0000000
FFF0000000
FFF0000000
FFF0000000
FFF0000000
FFF0000000
FFF0000000
FFF0000000
FFF0000000
FFF0000000
FFF0000000
FFF0000000
FFF0000000
FFF0000000
FFF0000000
FFF0000000
FFF0000000
FFF0000000
FFF0000000
FFF0000000
FFF8000000
FFF8000000
7FF8000000
7FFE000000
7FFFFFFFC0
7FFFFFFFC0
3FFFFFFFC0
3FFFFFFFC0
1FFFFFFFC0
0FFFFFFFC0
03FFFFFFC0
ENDCHAR
STARTCHAR 0064
ENCODING 100
SWIDTH 587 0
DWIDTH 47 0
BBX 38 46 6 0
BITMAP
FFFFFFFE00
FFFFFFFFC0
FFFFFFFFE0
FFFFFFFFF0
FFFFFFFFF0
FFFFFFFFF8
FFFFFFFFF8
FFF000FFF8
FFF0007FF8
FFF0007FFC
FFF0003FFC
FFF0003FFC
FFF0003FFC
FFF0003FFC
FFF0003FFC
FFF0003FFC
FFF0003FFC
FFF0003FFC
FFF0003FFC
FFF0003FFC
FFF0003FFC
FFF0003FFC
FFF0003FFC
FFF0003FFC
FFF0003FFC
FFF0003FFC
FFF0003FFC
FFF0003FFC
FFF0003FFC
FFF0003FFC
FFF0003FFC
FFF0003FFC
FFF0003FFC
FFF0003FFC
FFF0003FFC
FFF0003FFC
FFF0007FFC
FFF0007FF8
FFF000FFF8
FFFFFFFFF8
FFFFFFFFF8
FFFFFFFFF0
FFFFFFFFF0
FFFFFFFFE0
FFFFFFFFC0
FFFFFFFF00
ENDCHAR
STARTCHAR 0065
ENCODING 101
SWIDTH 512 0
DWIDTH 41 0
BBX 34 46 4 0
BITMAP
01FFFFFFC0
07FFFFFFC0
1FFFFFFFC0
1FFFFFFFC0
3FFFFFFFC0
3FFFFFFFC0
7FFFFFFFC0
7FFC000000
7FF8000000
7FF8000000
FFF0000000
FFF0000000
FFF0000000
FFF0000000
FFF0000000
FFF0000000
FFF0000000
FFF0000000
FFF0000000
FFFFFFF000
FFFFFFF000
FFFFFFF000
FFFFFFF000
FFFFFFF000
FFFFFFF000
FFF0000000
FFF0000000
FFF0000000
FFF0000000
FFF0000000
FFF0000000
FFF0000000
FFF0000000
FFF0000000
FFF0000000
FFF8000000
FFF8000000
7FF8000000
7FFE000000
7FFFFFFFC0
7FFFFFFFC0
3FFFFFFFC0
3FFFFFFFC0
1FFFFFFFC0
0FFFFFFFC0
03FFFFFFC0
ENDCHAR
STARTCHAR 0066
ENCODING 102
SWIDTH 512 0
DWIDTH 41 0
BBX 34 46 4 0
BITMAP
01FFFFFFC0
07FFFFFFC0
1FFFFFFFC0
1FFFFFFFC0
3FFFFFFFC0
3FFFFFFFC0
7FFFFFFFC0
7FFC000000
7FF8000000
7FF8000000
FFF0000000
FFF0000000
FFF0000000
FFF0000000
FFF0000000
FFF0000000
FFF0000000
FFF0000000
FFF0000000
FFFFFFF000
FFFFFFF000
FFFFFFF000
FFFFFFF000
FFFFFFF000
FFFFFFF000
FFF0000000
FFF0000000
FFF0000000
FFF0000000
FFF0000000
FFF0000000
FFF0000000
FFF0000000
FFF0000000
FFF0000000
FFF0000000
FFF0000000
FFF0000000
FFF0000000
FFF0000000
FFF0000000
FFF0000000
FFF0000000
FFF0000000
FFF0000000
FFF0000000
ENDCHAR
STARTCHAR 0067
ENCODING 103
SWIDTH 587 0
DWIDTH 47 0
BBX 39 46 4 0
BITMAP
01FFFFFFC0
07FFFFFFC0
1FFFFFFFC0
3FFFFFFFC0
3FFFFFFFC0
7FFFFFFFC0
7FFFFFFFC0
7FFC000000
7FF8000000
7FF8000000
FFF0000000
FFF0000000
FFF0000000
FFF0000000
FFF0000000
FFF0000000
FFF0000000
FFF0000000
FFF0000000
FFF0000000
FFF00FFFFE
FFF00FFFFE
FFF00FFFFE
FFF00FFFFE
FFF00FFFFE
FFF00FFFFE
FFF00FFFFE
FFF0000FFE
FFF0000FFE
FFF0000FFE
FFF0000FFE
FFF0000FFE
FFF0000FFE
FFF0000FFE
FFF0000FFE
FFF8001FFE
FFF8001FFE
7FFC003FFE
7FFE007FFE
7FFFFFFFFE
7FFFFFFFFE
3FFFFFFFFE
3FFFFFF7FE
1FFFFFF0FE
07FFFFC00E
007FFE0000
ENDCHAR
STARTCHAR 0068
ENCODING 104
SWIDTH 612 0
DWIDTH 49 0
BBX 38 46 6 0
BITMAP
FFF0003FFC
FFF0003FFC
FFF0003FFC
FFF0003FFC
FFF0003FFC
FFF0003FFC
FFF0003FFC
FFF0003FFC
FFF0003FFC
FFF0003FFC
FFF0003FFC
FFF0003FFC
FFF0003FFC
FFF0003FFC
FFF0003FFC
FFF0003FFC
FFF0003FFC
FFF0003FFC
FFF0003FFC
FFFFFFFFFC
FFFFFFFFFC
FFFFFFFFFC
FFFFFFFFFC
FFFFFFFFFC
FFFFFFFFFC
FFF0003FFC
FFF0003FFC
FFF0003FFC
FFF0003FFC
FFF0003FFC
FFF0003FFC
FFF0003FFC
FFF0003FFC
FFF0003FFC
FFF0003FFC
FFF0003FFC
FFF0003FFC
FFF0003FFC
FFF0003FFC
FFF0003FFC
FFF0003FFC
FFF0003FFC
FFF0003FFC
FFF0003FFC
FFF0003FFC
FFF0003FFC
ENDCHAR
STARTCHAR 0069
ENCODING 105
SWIDTH 275 0
DWIDTH 22 0
BBX 12 46 6 0
BITMAP
FFF0
FFF0
FFF0
FFF0
FFF0
FFF0
FFF0
FFF0
FFF0
FFF0
FFF0
FFF0
FFF0
FFF0
FFF0
FFF0
FFF0
FFF0
FFF0
FFF0
FFF0
FFF0
FFF0
FFF0
FFF0
FFF0
FFF0
FFF0
FFF0
FFF0
FFF0
FFF0
FFF0
FFF0
FFF0
FFF0
FFF0
FFF0
FFF0
FFF0
FFF0
FFF0
FFF0
FFF0
FFF0
FFF0
ENDCHAR
STARTCHAR 006A
ENCODING 106
SWIDTH 537 0
DWIDTH 43 0
BBX 34 46 2 0
BITMAP
000003FFC0
000003FFC0
000003FFC0
000003FFC0
000003FFC0
000003FFC0
000003FFC0
000003FFC0
000003FFC0
000003FFC0
000003FFC0
000003FFC0
000003FFC0
000003FFC0
000003FFC0
000003FFC0
000003FFC0
000003FFC0
000003FFC0
000003FFC0
000003FFC0
000003FFC0
000003FFC0
000003FFC0
000003FFC0
000003FFC0
000003FFC0
000003FFC0
000003FFC0
000003FFC0
000003FFC0
000003FFC0
000003FFC0
000003FFC0
000003FFC0
000003FFC0
000007FFC0
000007FF80
00000FFF80
FFFFFFFF80
FFFFFFFF80
FFFFFFFF00
FFFFFFFF00
FFFFFFFE00
FFFFFFFC00
FFFFFFF000
ENDCHAR
STARTCHAR 006B
ENCODING 107
SWIDTH 587 0
DWIDTH 47 0
BBX 37 45 6 0
BITMAP
FFF0007FF0
FFF000FFE0
FFF000FFE0
FFF001FFC0
FFF003FF80
FFF003FF00
FFF007FF00
FFF00FFE00
FFF01FFC00
FFF01FF800
FFF03FF800
FFF07FF000
FFF07FE000
FFF0FFE000
FFF1FFC000
FFF3FF8000
FFF3FF0000
FFF7FF0000
FFFFFE0000
FFFFFFF000
FFFFFFFE00
FFFFFFFF80
FFFFFFFFC0
FFFFFFFFE0
FFFFFFFFF0
FFF003FFF0
FFF000FFF8
FFF000FFF8
FFF0007FF8
FFF0007FF8
FFF0007FF8
FFF0007FF8
FFF0007FF8
FFF0007FF8
FFF0007FF8
FFF0007FF8
FFF0007FF8
FFF0007FF8
FFF0007FF8
FFF0007FF8
FFF0007FF8
FFF0007FF8
FFF0007FF8
FFF0007FF8
FFF0007FF8
ENDCHAR
STARTCHAR 006C
ENCODING 108
SWIDTH 500 0
DWIDTH 40 0
BBX 34 46 6 0
BITMAP
FFF0000000
FFF0000000
FFF0000000
FFF0000000
FFF0000000
FFF0000000
FFF0000000
FFF0000000
FFF0000000
FFF0000000
FFF0000000
FFF0000000
FFF0000000
FFF0000000
FFF0000000
FFF0000000
FFF0000000
FFF0000000
FFF0000000
FFF0000000
FFF0000000
FFF0000000
FFF0000000
FFF0000000
FFF0000000
FFF0000000
FFF0000000
FFF0000000
FFF0000000
FFF0000000
FFF0000000
FFF0000000
FFF0000000
FFF0000000
FFF0000000
FFF8000000
FFF8000000
7FF8000000
7FFE000000
7FFFFFFFC0
7FFFFFFFC0
3FFFFFFFC0
3FFFFFFFC0
1FFFFFFFC0
0FFFFFFFC0
03FFFFFFC0
ENDCHAR
STARTCHAR 006D
ENCODING 109
SWIDTH 937 0
DWIDTH 75 0
BBX 64 46 6 0
BITMAP
003FFFFFFFFFFC00
03FFFFFFFFFFFFC0
0FFFFFFFFFFFFFF0
1FFFFFFFFFFFFFF8
3FFFFFFFFFFFFFFC
7FFFFFFFFFFFFFFC
7FFFCFFFFFF3FFFE
7FFC00FFFF003FFE
FFF8007FFE001FFE
FFF8007FFE001FFF
FFF0003FFC000FFF
FFF0003FFC000FFF
FFF0003FFC000FFF
FFF0003FFC000FFF
FFF0003FFC000FFF
FFF0003FFC000FFF
FFF0003FFC000FFF
FFF0003FFC000FFF
FFF0003FFC000FFF
FFF0003FFC000FFF
FFF0003FFC000FFF
FFF0003FFC000FFF
FFF0003FFC000FFF
FFF0003FFC000FFF
FFF0003FFC000FFF
FFF0003FFC000FFF
FFF0003FFC000FFF
FFF0003FFC000FFF
FFF0003FFC000FFF
FFF0003FFC000FFF
FFF0003FFC000FFF
FFF0003FFC000FFF
FFF0003FFC000FFF
FFF0003FFC000FFF
FFF0003FFC000FFF
FFF0003FFC000FFF
FFF0003FFC000FFF
FFF0003FFC000FFF
FFF0003FFC000FFF
FFF0003FFC000FFF
FFF0003FFC000FFF
FFF0003FFC000FFF
FFF0003FFC000FFF
FFF0003FFC000FFF
FFF0003FFC000FFF
FFF0003FFC000FFF
ENDCHAR
STARTCHAR 006E
ENCODING 110
SWIDTH 612 0
DWIDTH 49 0
BBX 38 46 6 0
BITMAP
003FFFF000
03FFFFFF00
0FFFFFFFC0
1FFFFFFFE0
3FFFFFFFF0
7FFFFFFFF0
7FFFCFFFF8
7FFC00FFF8
FFF8007FF8
FFF8007FFC
FFF0003FFC
FFF0003FFC
FFF0003FFC
FFF0003FFC
FFF0003FFC
FFF0003FFC
FFF0003FFC
FFF0003FFC
FFF0003FFC
FFF0003FFC
FFF0003FFC
FFF0003FFC
FFF0003FFC
FFF0003FFC
FFF0003FFC
FFF0003FFC
FFF0003FFC
FFF0003FFC
FFF0003FFC
FFF0003FFC
FFF0003FFC
FFF0003FFC
FFF0003FFC
FFF0003FFC
FFF0003FFC
FFF0003FFC
FFF0003FFC
FFF0003FFC
FFF0003FFC
FFF0003FFC
FFF0003FFC
FFF0003FFC
FFF0003FFC
FFF0003FFC
FFF0003FFC
FFF0003FFC
ENDCHAR
STARTCHAR 006F
ENCODING 111
SWIDTH 600 0
DWIDTH 48 0
BBX 40 46 4 0
BITMAP
001FFFF800
01FFFFFF80
0FFFFFFFE0
1FFFFFFFF8
3FFFFFFFFC
3FFFFFFFFC
7FFFE7FFFE
7FFC007FFE
7FF8003FFE
FFF8001FFF
FFF0001FFF
FFF0000FFF
FFF0000FFF
FFF0000FFF
FFF0000FFF
FFF0000FFF
FFF0000FFF
FFF0000FFF
FFF0000FFF
FFF0000FFF
FFF0000FFF
FFF0000FFF
FFF0000FFF
FFF0000FFF
FFF0000FFF
FFF0000FFF
FFF0000FFF
FFF0000FFF
FFF0000FFF
FFF0000FFF
FFF0000FFF
FFF0000FFF
FFF0000FFF
FFF0000FFF
FFF0000FFF
FFF8001FFF
FFF8001FFF
7FFC001FFE
7FFE003FFE
7FFF83FFFE
3FFFFFFFFC
3FFFFFFFFC
1FFFFFFFF8
0FFFFFFFF0
03FFFFFFC0
003FFFF800
ENDCHAR
STARTCHAR 0070
ENCODING 112
SWIDTH 562 0
DWIDTH 45 0
BBX 38 46 6 0
BITMAP
003FFFE000
03FFFFFE00
0FFFFFFF80
1FFFFFFFC0
3FFFFFFFE0
7FFFFFFFF0
7FFFCFFFF8
7FFC00FFF8
FFF8007FF8
FFF8003FF8
FFF0003FFC
FFF0003FFC
FFF0003FFC
FFF0003FFC
FFF0003FFC
FFF0003FFC
FFF0003FFC
FFF0003FFC
FFF0003FFC
FFF0007FFC
FFF0007FFC
FFF001FFFC
FFFFFFFFF8
FFFFFFFFF8
FFFFFFFFF8
FFFFFFFFF0
FFFFFFFFE0
FFFFFFFFC0
FFFFFFFE00
FFF0000000
FFF0000000
FFF0000000
FFF0000000
FFF0000000
FFF0000000
FFF0000000
FFF0000000
FFF0000000
FFF0000000
FFF0000000
FFF0000000
FFF0000000
FFF0000000
FFF0000000
FFF0000000
FFF0000000
ENDCHAR
STARTCHAR 0071
ENCODING 113
SWIDTH 600 0
DWIDTH 48 0
BBX 40 51 4 -6
BITMAP
001FFFF800
01FFFFFF80
0FFFFFFFE0
1FFFFFFFF8
3FFFFFFFFC
3FFFFFFFFC
7FFFE7FFFE
7FFC007FFE
7FF8003FFE
FFF8001FFF
FFF0001FFF
FFF0000FFF
FFF0000FFF
FFF0000FFF
FFF0000FFF
FFF0000FFF
FFF0000FFF
FFF0000FFF
FFF0000FFF
FFF0000FFF
FFF0000FFF
FFF0000FFF
FFF0000FFF
FFF0000FFF
FFF0000FFF
FFF0000FFF
FFF0000FFF
FFF0000FFF
FFF0000FFF
FFF0000FFF
FFF0000FFF
FFF0000FFF
FFF0000FFF
FFF0000FFF
FFF0000FFF
FFF8001FFF
FFF8001FFF
7FFC001FFE
7FFC003FFE
7FFF81FFFE
7FFFFFFFFE
3FFFFFFFFC
3FFFFFFFF8
1FFFFFFFF8
07FFFFFFE0
00FFFFFF00
0003FFC000
0003FFC000
0003FFC000
0003FFC000
0003FFC000
ENDCHAR
STARTCHAR 0072
ENCODING 114
SWIDTH 587 0
DWIDTH 47 0
BBX 37 46 6 0
BITMAP
003FFFF000
03FFFFFF00
0FFFFFFF80
1FFFFFFFE0
3FFFFFFFE0
7FFFFFFFF0
7FFF8FFFF0
7FFC01FFF0
FFF800FFF8
FFF800FFF8
FFF0007FF8
FFF0007FF8
FFF0007FF8
FFF0007FF8
FFF0007FF8
FFF0007FF8
FFF0007FF8
FFF0007FF8
FFF000FFF0
FFF003FFF0
FFFFFFFFE0
FFFFFFFFC0
FFFFFFFE00
FFFFFFFF00
FFFFFFFFC0
FFFFFFFFE0
FFF003FFF0
FFF000FFF8
FFF000FFF8
FFF0007FF8
FFF0007FF8
FFF0007FF8
FFF0007FF8
FFF0007FF8
FFF0007FF8
FFF0007FF8
FFF0007FF8
FFF0007FF8
FFF0007FF8
FFF0007FF8
FFF0007FF8
FFF0007FF8
FFF0007FF8
FFF0007FF8
FFF0007FF8
FFF0007FF8
ENDCHAR
STARTCHAR 0073
ENCODING 115
SWIDTH 575 0
DWIDTH 46 0
BBX 38 46 4 0
BITMAP
003FFFFFC0
03FFFFFFC0
0FFFFFFFC0
3FFFFFFFC0
3FFFFFFFC0
7FFFFFFFC0
7FFFFFFFC0
FFF8000000
FFF8000000
FFF0000000
FFF0000000
FFF0000000
FFF0000000
FFF0000000
FFF0000000
FFF8000000
FFFC000000
FFFF000000
7FFFFFFC00
7FFFFFFF80
7FFFFFFFE0
3FFFFFFFF0
1FFFFFFFF0
07FFFFFFF8
00FFFFFFF8
000003FFFC
000000FFFC
0000007FFC
0000007FFC
0000003FFC
0000003FFC
0000003FFC
0000003FFC
0000003FFC
0000003FFC
0000003FFC
0000003FFC
0000007FFC
000000FFF8
0FFFFFFFF8
0FFFFFFFF8
0FFFFFFFF0
0FFFFFFFE0
0FFFFFFFC0
0FFFFFFF00
0FFFFFF000
ENDCHAR
STARTCHAR 0074
ENCODING 116
SWIDTH 437 0
DWIDTH 35 0
BBX 34 46 1 0
BITMAP
FFFFFFFFC0
FFFFFFFFC0
FFFFFFFFC0
FFFFFFFFC0
FFFFFFFFC0
FFFFFFFFC0
FFFFFFFFC0
001FFE0000
001FFE0000
001FFE0000
001FFE0000
001FFE0000
001FFE0000
001FFE0000
001FFE0000
001FFE0000
001FFE0000
001FFE0000
001FFE0000
001FFE0000
001FFE0000
001FFE0000
001FFE0000
001FFE0000
001FFE0000
001FFE0000
001FFE0000
001FFE0000
001FFE0000
001FFE0000
001FFE0000
001FFE0000
001FFE0000
001FFE0000
001FFE0000
001FFE0000
001FFE0000
001FFE0000
001FFE0000
001FFE0000
001FFE0000
001FFE0000
001FFE0000
001FFE0000
001FFE0000
001FFE0000
ENDCHAR
STARTCHAR 0075
ENCODING 117
SWIDTH 612 0
DWIDTH 49 0
BBX 39 47 6 0
BITMAP
FFF0001FFE
FFF0001FFE
FFF0001FFE
FFF0001FFE
FFF0001FFE
FFF0001FFE
FFF0001FFE
FFF0001FFE
FFF0001FFE
FFF0001FFE
FFF0001FFE
FFF0001FFE
FFF0001FFE
FFF0001FFE
FFF0001FFE
FFF0001FFE
FFF0001FFE
FFF0001FFE
FFF0001FFE
FFF0001FFE
FFF0001FFE
FFF0001FFE
FFF0001FFE
FFF0001FFE
FFF0001FFE
FFF0001FFE
FFF0001FFE
FFF0001FFE
FFF0001FFE
FFF0001FFE
FFF0001FFE
FFF0001FFE
FFF0001FFE
FFF0001FFE
FFF0001FFE
FFF0001FFE
FFF0001FFE
FFF8003FFE
FFF8003FFE
FFFC007FFE
7FFE01FFFC
7FFFFFFFFC
7FFFFFFFFC
3FFFFFFFF8
1FFFFFFFF0
07FFFFFFC0
007FFFF800
ENDCHAR
STARTCHAR 0076
ENCODING 118
SWIDTH 525 0
DWIDTH 42 0
BBX 38 46 2 0
BITMAP
FFF0001FFC
FFF0001FFC
7FF0003FF8
7FF0003FF8
7FF8003FF8
3FF8003FF8
3FF8007FF0
3FF8007FF0
3FFC007FF0
1FFC007FE0
1FFC007FE0
1FFE00FFE0
0FFE00FFE0
0FFE00FFC0
0FFE00FFC0
0FFF01FFC0
07FF01FF80
07FF01FF80
07FF01FF80
03FF83FF80
03FF83FF00
03FF83FF00
01FFC3FF00
01FFC3FF00
01FFC7FE00
01FFC7FE00
00FFE7FE00
00FFE7FC00
00FFEFFC00
007FEFFC00
007FFFFC00
007FFFF800
003FFFF800
003FFFF800
003FFFF000
003FFFF000
001FFFF000
001FFFF000
001FFFE000
000FFFE000
000FFFE000
000FFFC000
0007FFC000
0007FFC000
0007FFC000
0007FF8000
ENDCHAR
STARTCHAR 0077
ENCODING 119
SWIDTH 862 0
DWIDTH 69 0
BBX 65 46 2 0
BITMAP
FFF0001FFE0003FF80
FFF0001FFE0003FF80
7FF0003FFE0007FF00
7FF0003FFE0007FF00
7FF8003FFF0007FF00
3FF8003FFF0007FF00
3FF8007FFF000FFE00
3FFC007FFF000FFE00
3FFC007FFF800FFE00
1FFC007FFF800FFC00
1FFC007FFF801FFC00
1FFE00FFFFC01FFC00
0FFE00FFFFC01FFC00
0FFE00FFFFC01FF800
0FFE00FFFFC01FF800
07FF01FFFFE03FF800
07FF01FFFFE03FF000
07FF01FFFFE03FF000
07FF81FFFFE03FF000
03FF81FFFFF07FF000
03FF83FF7FF07FE000
03FF83FF7FF07FE000
01FFC3FF7FF87FE000
01FFC3FF3FF87FC000
01FFC3FE3FF8FFC000
00FFE7FE3FF8FFC000
00FFE7FE1FFCFFC000
00FFE7FC1FFCFF8000
007FE7FC1FFDFF8000
007FFFFC0FFDFF8000
007FFFFC0FFFFF0000
007FFFF80FFFFF0000
003FFFF80FFFFF0000
003FFFF807FFFF0000
003FFFF807FFFE0000
001FFFF007FFFE0000
001FFFF003FFFE0000
001FFFF003FFFC0000
000FFFE003FFFC0000
000FFFE001FFFC0000
000FFFE001FFFC0000
000FFFE001FFF80000
0007FFC001FFF80000
0007FFC000FFF80000
0007FFC000FFF80000
0003FFC000FFF00000
ENDCHAR
STARTCHAR 0078
ENCODING 120
SWIDTH 562 0
DWIDTH 45 0
BBX 38 46 4 0
BITMAP
FFE0003FFC
FFF0003FF8
7FF0007FF0
3FF800FFF0
3FFC00FFE0
1FFC01FFE0
1FFE01FFC0
0FFE03FF80
0FFF03FF80
07FF87FF00
03FF8FFF00
03FFCFFE00
01FFDFFE00
01FFFFFC00
00FFFFF800
007FFFF800
007FFFF000
003FFFF000
003FFFE000
001FFFC000
000FFFC000
000FFF8000
0007FF8000
0007FF8000
000FFF8000
000FFFC000
001FFFC000
003FFFE000
003FFFF000
007FFFF000
007FFFF800
00FFFFF800
01FFFFFC00
01FFDFFE00
03FFCFFE00
03FF8FFF00
07FF87FF00
07FF07FF80
0FFE03FF80
1FFE01FFC0
1FFC01FFE0
3FFC00FFE0
3FF800FFF0
7FF8007FF0
FFF0003FF8
FFE0003FF8
ENDCHAR
STARTCHAR 0079
ENCODING 121
SWIDTH 562 0
DWIDTH 45 0
BBX 38 46 4 -1
BITMAP
FFF0003FFC
FFF0003FFC
FFF0003FFC
FFF0003FFC
FFF0003FFC
FFF0003FFC
FFF0003FFC
FFF0003FFC
FFF0003FFC
FFF0003FFC
FFF0003FFC
FFF0003FFC
FFF0003FFC
FFF0003FFC
FFF0003FFC
FFF0003FFC
FFF0003FFC
FFF0003FFC
FFF0003FFC
FFF8007FFC
FFF8007FFC
FFFE01FFFC
7FFFFFFFF8
7FFFFFFFF8
7FFFFFFFF0
3FFFFFFFF0
1FFFFFFFC0
03FFFFFE00
0007FF8000
0007FF8000
0007FF8000
0007FF8000
0007FF8000
0007FF8000
0007FF8000
0007FF8000
0007FF8000
0007FF8000
0007FF8000
0007FF8000
0007FF8000
0007FF8000
0007FF8000
0007FF8000
0007FF8000
0007FF8000
ENDCHAR
STARTCHAR 007A
ENCODING 122
SWIDTH 462 0
DWIDTH 37 0
BBX 33 46 2 0
BITMAP
7FFFFFFF80
7FFFFFFF80
7FFFFFFF80
7FFFFFFF80
7FFFFFFF80
7FFFFFFF80
7FFFFFFF80
000003FF80
000007FF00
00000FFF00
00000FFE00
00001FFC00
00003FFC00
00003FF800
00007FF000
0000FFF000
0000FFE000
0001FFC000
0003FFC000
0003FF8000
0007FF0000
000FFF0000
000FFE0000
001FFE0000
003FFC0000
003FF80000
007FF80000
00FFF00000
00FFE00000
01FFE00000
03FFC00000
03FF800000
07FF800000
0FFF000000
0FFE000000
1FFE000000
3FFC000000
3FF8000000
7FF8000000
FFFFFFFF80
FFFFFFFF80
FFFFFFFF80
FFFFFFFF80
FFFFFFFF80
FFFFFFFF80
FFFFFFFF80
ENDCHAR
STARTCHAR 007B
ENCODING 123
SWIDTH 300 0
DWIDTH 24 0
BBX 22 62 0 0
BITMAP
03FFFC
03FFFC
03FFFC
03FFFC
03FF00
03FF00
03FF00
03FF00
03FF00
03FF00
03FF00
03FF00
03FF00
03FF00
03FF00
03FF00
03FF00
03FF00
03FF00
03FF00
03FF00
03FF00
03FF00
07FF00
07FF00
0FFF00
1FFF00
7FFF00
FFFF00
3FFF00
1FFF00
0FFF00
07FF00
07FF00
07FF00
03FF00
03FF00
03FF00
03FF00
03FF00
03FF00
03FF00
03FF00
03FF00
03FF00
03FF00
03FF00
03FF00
03FF00
03FF00
03FF00
03FF00
03FF00
03FF00
03FF00
03FF00
03FF00
03FF00
03FFFC
03FFFC
03FFFC
03FFFC
ENDCHAR
STARTCHAR 007C
ENCODING 124
SWIDTH 262 0
DWIDTH 21 0
BBX 10 77 6 -9
BITMAP
FFC0
FFC0
FFC0
FFC0
FFC0
FFC0
FFC0
FFC0
FFC0
FFC0
FFC0
FFC0
FFC0
FFC0
FFC0
FFC0
FFC0
FFC0
FFC0
FFC0
FFC0
FFC0
FFC0
FFC0
FFC0
FFC0
FFC0
FFC0
FFC0
FFC0
FFC0
FFC0
FFC0
FFC0
FFC0
FFC0
FFC0
FFC0
FFC0
FFC0
FFC0
FFC0
FFC0
FFC0
FFC0
FFC0
FFC0
FFC0
FFC0
FFC0
FFC0
FFC0
FFC0
FFC0
FFC0
FFC0
FFC0
FFC0
FFC0
FFC0
FFC0
FFC0
FFC0
FFC0
FFC0
FFC0
FFC0
FFC0
FFC0
FFC0
FFC0
FFC0
FFC0
FFC0
FFC0
FFC0
FFC0
ENDCHAR
STARTCHAR 007D
ENCODING 125
SWIDTH 300 0
DWIDTH 24 0
BBX 22 62 2 0
BITMAP
FFFF00
FFFF00
FFFF00
FFFF00
03FF00
03FF00
03FF00
03FF00
03FF00
03FF00
03FF00
03FF00
03FF00
03FF00
03FF00
03FF00
03FF00
03FF00
03FF00
03FF00
03FF00
03FF00
03FF00
03FF80
03FF80
03FFC0
03FFE0
03FFF8
03FFFC
03FFF0
03FFE0
03FFC0
03FF80
03FF80
03FF80
03FF00
03FF00
03FF00
03FF00
03FF00
03FF00
03FF00
03FF00
03FF00
03FF00
03FF00
03FF00
03FF00
03FF00
03FF00
03FF00
03FF00
03FF00
03FF00
03FF00
03FF00
03FF00
03FF00
FFFF00
FFFF00
FFFF00
FFFF00
ENDCHAR
STARTCHAR 007E
ENCODING 126
SWIDTH 387 0
DWIDTH 31 0
BBX 29 9 1 52
BITMAP
01F80078
07FF00F0
1FFFC3F0
3FFFFFE0
3FFFFFE0
7FFFFFC0
FFFFFF80
FFFFFE00
00002000
ENDCHAR
STARTCHAR 00A0
ENCODING 160
SWIDTH 600 0
DWIDTH 48 0
BBX 0 0 0 0
BITMAP
ENDCHAR
STARTCHAR 00A1
ENCODING 161
SWIDTH 300 0
DWIDTH 24 0
BBX 13 63 5 -2
BITMAP
3FE0
7FF0
FFF8
FFF8
FFF8
FFF8
FFF8
FFF8
FFF8
FFF8
7FF0
0700
0000
0000
FFF8
FFF8
FFF8
FFF8
FFF8
FFF8
FFF8
FFF8
FFF8
FFF8
FFF8
FFF8
FFF8
FFF8
FFF8
FFF8
FFF8
FFF8
FFF8
FFF8
FFF8
FFF8
FFF8
FFF8
FFF8
FFF8
FFF8
FFF8
FFF8
FFF8
FFF8
FFF8
FFF8
FFF8
FFF8
FFF8
FFF8
FFF8
FFF8
FFF8
FFF8
FFF8
FFF8
FFF8
FFF8
FFF8
FFF8
FFF8
7FF0
ENDCHAR
STARTCHAR 00A2
ENCODING 162
SWIDTH 600 0
DWIDTH 48 0
BBX 29 51 9 4
BITMAP
0007E000
0007E000
0007E000
0007E000
0007E000
0007E000
0007E000
03FFFFF8
0FFFFFF8
1FFFFFF8
3FFFFFF8
7FFFFFF8
7FFE0000
7FF80000
7FF80000
FFF00000
FFF00000
FFF00000
FFF00000
FFF00000
FFF00000
FFF00000
FFF00000
FFF00000
FFF00000
FFF00000
FFF00000
FFF00000
FFF00000
FFF00000
FFF00000
FFF00000
FFF00000
FFF00000
FFF00000
FFF80000
FFF80000
7FFE0000
7FFFFFF8
7FFFFFF8
3FFFFFF8
3FFFFFF8
0FFFFFF8
03FFFFF8
0007E000
0007E000
0007E000
0007E000
0007E000
0007E000
0007E000
ENDCHAR
STARTCHAR 00A3
ENCODING 163
SWIDTH 837 0
DWIDTH 67 0
BBX 59 62 4 0
BITMAP
000000003FFFC000
00000003FFFFFC00
0000001FFFFFFF00
0000003FFFFFFF80
000000FFFFFFFF80
000000FFFFFFFFC0
000001FFFFFFFFC0
000003FFFFFFFFE0
000003FFFFFFFFE0
000007FFE007FFE0
000007FFC003FFE0
00000FFF8003FFE0
00000FFF0001FFE0
00000FFE0001FFE0
00001FFE0001FFE0
00001FFE0001FFC0
00001FFC0001FFC0
00003FFC0001FFC0
00003FFC0003FFC0
00003FF80003FFC0
00003FF80003FFC0
00003FF800000000
00007FF800000000
00007FF800000000
00007FF000000000
00007FF000000000
00FFFFFFF8000000
00FFFFFFF8000000
01FFFFFFF8000000
01FFFFFFF0000000
01FFFFFFF0000000
01FFFFFFF0000000
01FFFFFFF0000000
03FFFFFFE0000000
0001FFC000000000
0003FFC000000000
0003FFC000000000
0003FF8000000000
0003FF8000000000
0003FF8000000000
0007FF8000000000
0007FF8000000000
0007FF0000000000
0007FF0000000000
000FFF0000000000
000FFF0000000000
000FFF0000000000
000FFE0000000000
000FFE0000000000
001FFE0000000000
001FFE0000000000
001FFC0000000000
001FFC0000000000
FFFFFFFFFFFC0000
FFFFFFFFFFFC0000
FFFFFFFFFFFC0000
FFFFFFFFFFFC0000
FFFFFFFFFFFC0000
FFFFFFFFFFFC0000
FFFFFFFFFFFC0000
FFFFFFFFFFFC0000
FFFFFFFFFFFC0000
ENDCHAR
STARTCHAR 00A4
ENCODING 164
SWIDTH 550 0
DWIDTH 44 0
BBX 29 38 8 22
BITMAP
3F000FF0
3F801FE0
1FC03FC0
0FE07F80
0FF8FF80
07FDFF00
07FFFE00
0FFFFF80
3FFFFFE0
3FFFFFF0
7FFFFFF0
7FFFFFF0
FFFFFFF8
FFFFFFF8
FE0003F8
F80000F8
F0000078
F0000078
F0000078
F0000078
F0000078
F0000078
F80000F8
FE0003F8
FFFFFFF8
FFFFFFF8
7FFFFFF0
7FFFFFF0
7FFFFFE0
3FFFFFE0
0FFFFF80
07FFFE00
07F9FF00
0FF0FF80
1FE07F80
1FC03FC0
3F801FE0
7F000FE0
ENDCHAR
STARTCHAR 00A5
ENCODING 165
SWIDTH 562 0
DWIDTH 45 0
BBX 38 62 4 0
BITMAP
FFF0003FFC
FFF0003FFC
FFF0003FFC
FFF0003FFC
FFF0003FFC
FFF0003FFC
FFF0003FFC
FFF0003FFC
FFF0003FFC
FFF0003FFC
FFF0003FFC
FFF0003FFC
FFF0003FFC
FFF0003FFC
FFF0003FFC
FFF8007FFC
FFF8007FFC
FFF8007FFC
FFFC00FFFC
FFFE03FFF8
7FFFFFFFF8
7FFFFFFFF8
7FFFFFFFF8
7FFFFFFFF0
3FFFFFFFF0
1FFFFFFFE0
0FFFFFFF80
01FFFFFE00
0007FF8000
0007FF8000
0007FF8000
FFFFFFFFFC
FFFFFFFFFC
FFFFFFFFFC
FFFFFFFFFC
FFFFFFFFFC
FFFFFFFFFC
FFFFFFFFFC
0007FF8000
0007FF8000
0007FF8000
FFFFFFFFFC
FFFFFFFFFC
FFFFFFFFFC
FFFFFFFFFC
FFFFFFFFFC
FFFFFFFFFC
FFFFFFFFFC
0007FF8000
0007FF8000
0007FF8000
0007FF8000
0007FF8000
0007FF8000
0007FF8000
0007FF8000
0007FF8000
0007FF8000
0007FF8000
0007FF8000
0007FF8000
0007FF8000
ENDCHAR
STARTCHAR 00A7
ENCODING 167
SWIDTH 662 0
DWIDTH 53 0
BBX 45 62 5 0
BITMAP
00000FFFFFF8
00007FFFFFF0
0000FFFFFFF0
0003FFFFFFF0
0003FFFFFFF0
0007FFFFFFE0
000FFFFFFFE0
001FFFFFFFE0
001FFFFFFFC0
003FFF000000
003FFC000000
007FF8000000
007FF0000000
007FF0000000
00FFE0000000
00FFE0000000
00FFC0000000
01FFC0000000
01FFFFFFF800
01FFFFFFFE00
03FFFFFFFF00
03FFFFFFFF80
03FFFFFFFF80
07FFFFFFFFC0
07FFFFFFFFC0
07FFFFFFFFC0
07FFFFFFFFC0
0FFE001FFFC0
0FFE0007FF80
0FFE0007FF80
0FFE0007FF80
0FFE0007FF80
1FFE0007FF80
1FFE0007FF80
1FFF8007FF00
1FFFFFFFFF00
1FFFFFFFFF00
1FFFFFFFFF00
1FFFFFFFFE00
1FFFFFFFFE00
1FFFFFFFFE00
0FFFFFFFFC00
07FFFFFFFC00
03FFFFFFFC00
0000003FFC00
0000003FF800
0000007FF800
0000007FF800
000000FFF000
000000FFF000
000001FFF000
000003FFE000
00000FFFE000
3FFFFFFFC000
3FFFFFFFC000
3FFFFFFF8000
7FFFFFFF8000
7FFFFFFF0000
7FFFFFFE0000
7FFFFFFC0000
FFFFFFF00000
FFFFFFC00000
ENDCHAR
STARTCHAR 00A8
ENCODING 168
SWIDTH 337 0
DWIDTH 27 0
BBX 27 10 0 50
BITMAP
3FC07F80
7FF0FFE0
FFF1FFE0
FFF1FFE0
FFF1FFE0
FFF1FFE0
FFF1FFE0
FFF1FFE0
7FF1FFE0
3FC07F80
ENDCHAR
STARTCHAR 00A9
ENCODING 169
SWIDTH 500 0
DWIDTH 40 0
BBX 36 37 2 25
BITMAP
003FFFC000
03FFFFFC00
0FFFFFFF00
3FC0003F80
3C000007C0
78000001E0
70000000E0
E00FFFC0F0
E01FFFC070
E03FFFC070
E03F000070
E07E000070
E07E000070
E07E000070
E07E000070
E07E000070
E07E000070
E07E000070
E07E000070
E07E000070
E07E000070
E07E000070
E07E000070
E07E000070
E07E000070
E07E000070
E07F000070
E03FFFC070
F03FFFC070
700FFFC0E0
70000000E0
78000001E0
3E000003C0
1FC0001F80
0FFFFFFF00
03FFFFFC00
003FFFE000
ENDCHAR
STARTCHAR 00AB
ENCODING 171
SWIDTH 387 0
DWIDTH 31 0
BBX 27 29 2 6
BITMAP
00FC0FE0
01FC0FC0
01F81FC0
03F81F80
03F03F80
07F03F00
0FE07E00
0FC0FE00
1FC0FC00
1F81FC00
3F81F800
3F03F800
7F03F000
FE07F000
7E07F000
7F03F000
3F03F800
3F81F800
1F81FC00
1FC0FC00
0FC0FE00
0FE07E00
07E07F00
07F03F00
03F03F80
03F81F80
01F81FC0
01FC0FC0
00FC0FE0
ENDCHAR
STARTCHAR 00AC
ENCODING 172
SWIDTH 787 0
DWIDTH 63 0
BBX 49 18 6 9
BITMAP
FFFFFFFFFFFF80
FFFFFFFFFFFF80
FFFFFFFFFFFF80
FFFFFFFFFFFF80
FFFFFFFFFFFF80
FFFFFFFFFFFF80
FFFFFFFFFFFF80
FFFFFFFFFFFF80
FFFFFFFFFFFF80
0000000000FF80
0000000000FF80
0000000000FF80
0000000000FF80
0000000000FF80
0000000000FF80
0000000000FF80
0000000000FF80
0000000000FF80
ENDCHAR
STARTCHAR 00AE
ENCODING 174
SWIDTH 500 0
DWIDTH 40 0
BBX 36 37 2 25
BITMAP
003FFFC000
03FFFFFC00
0FFFFFFF00
3FC0003F80
3C000007C0
78000001E0
7007FF00E0
E01FFFC0F0
E03FFFE070
E07F07F070
E07E03F070
E07E03F070
E07E03F070
E07E03F070
E07E03F070
E07E07F070
E07FFFE070
E07FFF0070
E07FFFE070
E07E07F070
E07E03F070
E07E03F070
E07E03F070
E07E03F070
E07E03F070
E07E03F070
E07E03F070
E07E03F070
F07E03F070
707E03F0E0
70000000E0
78000001E0
3E000003C0
1FC0001F80
0FFFFFFF00
03FFFFFC00
003FFFE000
ENDCHAR
STARTCHAR 00AF
ENCODING 175
SWIDTH 325 0
DWIDTH 26 0
BBX 24 7 1 51
BITMAP
FFFFFF
FFFFFF
FFFFFF
FFFFFF
FFFFFF
FFFFFF
FFFFFF
ENDCHAR
STARTCHAR 00B0
ENCODING 176
SWIDTH 600 0
DWIDTH 48 0
BBX 22 22 13 40
BITMAP
00FC00
03FF80
0FFFC0
1FFFE0
3FFFF0
3FFFF8
7F03F8
7E01F8
FC00FC
F8007C
F8007C
F8007C
F8007C
F8007C
7C00F8
7E01F8
7F83F8
3FFFF0
1FFFE0
0FFFC0
07FF80
00FC00
ENDCHAR
STARTCHAR 00B1
ENCODING 177
SWIDTH 600 0
DWIDTH 48 0
BBX 43 60 3 1
BITMAP
0000FFC00000
0000FFC00000
0001FFE00000
0001FFE00000
0001FFE00000
0001FFE00000
0001FFE00000
0001FFE00000
0001FFE00000
0001FFE00000
0001FFE00000
0001FFE00000
0001FFE00000
0001FFE00000
0001FFE00000
3FFFFFFFFF80
7FFFFFFFFFC0
FFFFFFFFFFC0
FFFFFFFFFFC0
FFFFFFFFFFE0
FFFFFFFFFFE0
FFFFFFFFFFE0
FFFFFFFFFFE0
FFFFFFFFFFC0
FFFFFFFFFFC0
7FFFFFFFFFC0
3FFFFFFFFF00
0001FFE00000
0001FFE00000
0001FFE00000
0001FFE00000
0001FFE00000
0001FFE00000
0001FFE00000
0001FFE00000
0001FFE00000
0001FFE00000
0001FFE00000
0001FFE00000
0001FFE00000
0000FFC00000
00007F800000
000000000000
000000000000
000000000000
000000000000
000000000000
000000000000
07FFFFFFFC00
7FFFFFFFFFC0
FFFFFFFFFFC0
FFFFFFFFFFC0
FFFFFFFFFFC0
FFFFFFFFFFE0
FFFFFFFFFFE0
FFFFFFFFFFE0
FFFFFFFFFFC0
FFFFFFFFFFC0
7FFFFFFFFFC0
3FFFFFFFFF00
ENDCHAR
STARTCHAR 00B4
ENCODING 180
SWIDTH 237 0
DWIDTH 19 0
BBX 16 13 1 49
BITMAP
03FF
07FF
07FE
0FFC
0FFC
1FF8
1FF0
1FF0
3FE0
3FC0
7FC0
7F80
FF80
ENDCHAR
STARTCHAR 00B5
ENCODING 181
SWIDTH 600 0
DWIDTH 48 0
BBX 38 62 4 0
BITMAP
001FFFFFFC
01FFFFFFFC
07FFFFFFFC
1FFFFFFFFC
1FFFFFFFFC
3FFFFFFFFC
3FFFFFFFFC
7FFFFFFFFC
7FFFFFFFFC
7FFE000000
FFF8000000
FFF8000000
FFF0000000
FFF0000000
FFF0000000
FFF0000000
FFF0000000
FFF0000000
FFF0000000
FFF0000000
FFF0000000
FFF0000000
FFF0000000
FFF0000000
FFF0000000
FFF0000000
FFF0003FFC
FFF0003FFC
FFF8003FFC
FFF8007FFC
FFFC007FFC
FFFC00FFFC
7FFF03FFFC
7FFFFFFFFC
7FFFFFFFFC
3FFFFFFFFC
3FFFFFFFFC
1FFFFFFFFC
0FFFFFBFFC
07FFFE3FFC
00FFF83FFC
0000003FFC
0000003FFC
0000003FFC
0000003FFC
0000003FFC
0000003FFC
0000003FFC
0000003FFC
0000003FFC
0000007FFC
0000007FFC
000001FFF8
07FFFFFFF8
07FFFFFFF8
07FFFFFFF8
07FFFFFFF0
07FFFFFFE0
07FFFFFFE0
07FFFFFF80
07FFFFFE00
07FFFFE000
ENDCHAR
STARTCHAR 00B6
ENCODING 182
SWIDTH 600 0
DWIDTH 48 0
BBX 36 74 6 -12
BITMAP
001FFF8000
01FFFFF800
07FFFFFE00
1FFFFFFF00
3FFFFFFF80
7FFFFFFFC0
7FFFFFFFC0
FFFFFFFFE0
FFFFFFFFE0
FFFFFFFFE0
FFFFFFFFE0
FFFFFFFFF0
FFFFFFFFF0
FFFFFFFFF0
FFFFFFFFF0
FFFFFFFFF0
FFFFFFFFF0
FFFFFFFFF0
FFFFFFFFF0
FFFFFFFFF0
FFFFFFFFF0
FFFFFFFFF0
FFFFFFFFF0
7FFFFFFFF0
7FFFFFFFF0
7FFFFFFFF0
3FFFFFFFF0
1FFFFFFFF0
1FFFFFFFF0
07FFFFFFF0
03FFFFFFF0
00FFFFFFF0
000FFFFFF0
000000FFF0
000000FFF0
000000FFF0
000000FFF0
000000FFF0
000000FFF0
000000FFF0
000000FFF0
000000FFF0
000000FFF0
000000FFF0
000000FFF0
000000FFF0
000000FFF0
000000FFF0
000000FFF0
000000FFF0
000000FFF0
000000FFF0
000000FFF0
000000FFF0
000000FFF0
000000FFF0
000000FFF0
000000FFF0
000000FFF0
000000FFF0
000000FFF0
000000FFF0
000000FFF0
000000FFF0
000000FFF0
000000FFF0
000000FFF0
000000FFF0
000000FFF0
000000FFF0
000000FFF0
000000FFF0
000000FFF0
000000FFF0
ENDCHAR
STARTCHAR 00B7
ENCODING 183
SWIDTH 300 0
DWIDTH 24 0
BBX 13 12 5 28
BITMAP
3FE0
7FF0
FFF8
FFF8
FFF8
FFF8
FFF8
FFF8
FFF8
FFF8
7FF0
3FE0
ENDCHAR
STARTCHAR 00B8
ENCODING 184
SWIDTH 300 0
DWIDTH 24 0
BBX 18 18 1 -17
BITMAP
00F000
00E000
01E000
01E000
03C000
03F800
03FF00
07FF80
07FFC0
003FC0
001FC0
001FC0
001FC0
007F80
7FFF80
FFFF00
FFFC00
1FE000
ENDCHAR
STARTCHAR 00BB
ENCODING 187
SWIDTH 387 0
DWIDTH 31 0
BBX 26 29 3 6
BITMAP
FC0FC000
FC0FE000
FE07E000
7E07F000
7F03F000
3F03F800
3F81F800
1F81FC00
1FC0FC00
0FC0FE00
0FE07E00
07E07F00
07F03F00
03F03F80
03F81F80
01F81FC0
03F83F80
07F03F80
07F07F00
0FE07F00
0FC0FE00
1FC0FC00
1F81FC00
3F81F800
3F03F800
7F03F000
7E07F000
FC07E000
FC0FC000
ENDCHAR
STARTCHAR 00BF
ENCODING 191
SWIDTH 600 0
DWIDTH 48 0
BBX 33 62 4 0
BITMAP
000001FE00
000003FF00
000007FF80
000007FF80
000007FF80
000007FF80
000007FF80
000007FF80
000007FF80
000007FF80
000003FF00
0000007000
0000000000
0000000000
0000000000
000007FF80
000007FF80
000007FF80
000007FF80
000007FF80
000007FF80
000007FF80
000007FF80
000007FF80
00000FFF80
00000FFF80
00000FFF80
00001FFF80
00007FFF00
007FFFFF00
03FFFFFF00
0FFFFFFE00
1FFFFFFE00
3FFFFFFC00
3FFFFFF800
7FFFFFE000
7FFFFF8000
7FFF000000
FFFE000000
FFFC000000
FFF8000000
FFF8000000
FFF0000000
FFF0000000
FFF0000000
FFF0000000
FFF0000000
FFF0000000
FFF0000000
FFF0000000
FFF8000000
FFF8000000
7FFE000000
7FFFFFFF80
7FFFFFFF80
7FFFFFFF80
3FFFFFFF80
3FFFFFFF80
1FFFFFFF80
0FFFFFFF80
03FFFFFF80
003FFFFF80
ENDCHAR
STARTCHAR 00C0
ENCODING 192
SWIDTH 612 0
DWIDTH 49 0
BBX 38 78 6 0
BITMAP
01FFC00000
00FFC00000
00FFE00000
007FE00000
003FE00000
003FF00000
001FF00000
000FF80000
000FF80000
0007FC0000
0007FC0000
0003FC0000
0001FE0000
0000000000
0000000000
0000000000
001FFFE000
01FFFFFE00
07FFFFFF80
0FFFFFFFC0
1FFFFFFFE0
3FFFFFFFF0
3FFFFFFFF0
7FFFFFFFF0
7FFFFFFFF8
7FFE01FFF8
7FFC00FFF8
FFF8007FF8
FFF8007FFC
FFF0003FFC
FFF0003FFC
FFF0003FFC
FFF0003FFC
FFF0003FFC
FFF0003FFC
FFF0003FFC
FFF0003FFC
FFF0003FFC
FFF0003FFC
FFF0003FFC
FFF0003FFC
FFF0003FFC
FFF0003FFC
FFF0003FFC
FFF0003FFC
FFFFFFFFFC
FFFFFFFFFC
FFFFFFFFFC
FFFFFFFFFC
FFFFFFFFFC
FFFFFFFFFC
FFFFFFFFFC
FFFFFFFFFC
FFF0003FFC
FFF0003FFC
FFF0003FFC
FFF0003FFC
FFF0003FFC
FFF0003FFC
FFF0003FFC
FFF0003FFC
FFF0003FFC
FFF0003FFC
FFF0003FFC
FFF0003FFC
FFF0003FFC
FFF0003FFC
FFF0003FFC
FFF0003FFC
FFF0003FFC
FFF0003FFC
FFF0003FFC
FFF0003FFC
FFF0003FFC
FFF0003FFC
FFF0003FFC
FFF0003FFC
FFF0003FFC
ENDCHAR
STARTCHAR 00C1
ENCODING 193
SWIDTH 612 0
DWIDTH 49 0
BBX 38 78 6 0
BITMAP
000007FF00
000007FE00
00000FFE00
00000FFC00
00001FF800
00001FF800
00001FF000
00003FE000
00003FE000
00007FC000
00007F8000
0000FF8000
0000FF0000
0000000000
0000000000
0000000000
001FFFE000
01FFFFFE00
07FFFFFF80
0FFFFFFFC0
1FFFFFFFE0
3FFFFFFFF0
3FFFFFFFF0
7FFFFFFFF0
7FFFFFFFF8
7FFE01FFF8
7FFC00FFF8
FFF8007FF8
FFF8007FFC
FFF0003FFC
FFF0003FFC
FFF0003FFC
FFF0003FFC
FFF0003FFC
FFF0003FFC
FFF0003FFC
FFF0003FFC
FFF0003FFC
FFF0003FFC
FFF0003FFC
FFF0003FFC
FFF0003FFC
FFF0003FFC
FFF0003FFC
FFF0003FFC
FFFFFFFFFC
FFFFFFFFFC
FFFFFFFFFC
FFFFFFFFFC
FFFFFFFFFC
FFFFFFFFFC
FFFFFFFFFC
FFFFFFFFFC
FFF0003FFC
FFF0003FFC
FFF0003FFC
FFF0003FFC
FFF0003FFC
FFF0003FFC
FFF0003FFC
FFF0003FFC
FFF0003FFC
FFF0003FFC
FFF0003FFC
FFF0003FFC
FFF0003FFC
FFF0003FFC
FFF0003FFC
FFF0003FFC
FFF0003FFC
FFF0003FFC
FFF0003FFC
FFF0003FFC
FFF0003FFC
FFF0003FFC
FFF0003FFC
FFF0003FFC
FFF0003FFC
ENDCHAR
STARTCHAR 00C2
ENCODING 194
SWIDTH 612 0
DWIDTH 49 0
BBX 38 79 6 0
BITMAP
0003FE0000
0003FF0000
0007FF0000
000FFF8000
000FFF8000
001FFFC000
003FFFE000
003FFFE000
007FDFF000
00FF8FF800
00FF07F800
01FE03FC00
01FC01FC00
03F800FE00
0000000000
0000000000
0000000000
001FFFE000
01FFFFFE00
07FFFFFF80
0FFFFFFFC0
1FFFFFFFE0
3FFFFFFFF0
3FFFFFFFF0
7FFFFFFFF0
7FFFFFFFF8
7FFE01FFF8
7FFC00FFF8
FFF8007FF8
FFF8007FFC
FFF0003FFC
FFF0003FFC
FFF0003FFC
FFF0003FFC
FFF0003FFC
FFF0003FFC
FFF0003FFC
FFF0003FFC
FFF0003FFC
FFF0003FFC
FFF0003FFC
FFF0003FFC
FFF0003FFC
FFF0003FFC
FFF0003FFC
FFF0003FFC
FFFFFFFFFC
FFFFFFFFFC
FFFFFFFFFC
FFFFFFFFFC
FFFFFFFFFC
FFFFFFFFFC
FFFFFFFFFC
FFFFFFFFFC
FFF0003FFC
FFF0003FFC
FFF0003FFC
FFF0003FFC
FFF0003FFC
FFF0003FFC
FFF0003FFC
FFF0003FFC
FFF0003FFC
FFF0003FFC
FFF0003FFC
FFF0003FFC
FFF0003FFC
FFF0003FFC
FFF0003FFC
FFF0003FFC
FFF0003FFC
FFF0003FFC
FFF0003FFC
FFF0003FFC
FFF0003FFC
FFF0003FFC
FFF0003FFC
FFF0003FFC
FFF0003FFC
ENDCHAR
STARTCHAR 00C3
ENCODING 195
SWIDTH 612 0
DWIDTH 49 0
BBX 38 76 6 0
BITMAP
001F800780
007FF00F80
00FFFE1F00
01FFFFFF00
03FFFFFE00
07FFFFFC00
07FFFFF800
0FFFFFF000
00007FC000
0000000000
0000000000
0000000000
0000000000
0000000000
001FFFE000
01FFFFFE00
07FFFFFF80
0FFFFFFFC0
1FFFFFFFE0
3FFFFFFFF0
3FFFFFFFF0
7FFFFFFFF0
7FFFFFFFF8
7FFE01FFF8
7FFC00FFF8
FFF8007FF8
FFF8007FFC
FFF0003FFC
FFF0003FFC
FFF0003FFC
FFF0003FFC
FFF0003FFC
FFF0003FFC
FFF0003FFC
FFF0003FFC
FFF0003FFC
FFF0003FFC
FFF0003FFC
FFF0003FFC
FFF0003FFC
FFF0003FFC
FFF0003FFC
FFF0003FFC
FFFFFFFFFC
FFFFFFFFFC
FFFFFFFFFC
FFFFFFFFFC
FFFFFFFFFC
FFFFFFFFFC
FFFFFFFFFC
FFFFFFFFFC
FFF0003FFC
FFF0003FFC
FFF0003FFC
FFF0003FFC
FFF0003FFC
FFF0003FFC
FFF0003FFC
FFF0003FFC
FFF0003FFC
FFF0003FFC
FFF0003FFC
FFF0003FFC
FFF0003FFC
FFF0003FFC
FFF0003FFC
FFF0003FFC
FFF0003FFC
FFF0003FFC
FFF0003FFC
FFF0003FFC
FFF0003FFC
FFF0003FFC
FFF0003FFC
FFF0003FFC
FFF0003FFC
ENDCHAR
STARTCHAR 00C4
ENCODING 196
SWIDTH 612 0
DWIDTH 49 0
BBX 38 76 6 0
BITMAP
00FF03FC00
01FFC7FF00
03FFCFFF00
03FFCFFF00
03FFCFFF00
03FFCFFF00
03FFCFFF00
03FFCFFF00
01FFCFFF00
00FF03FC00
0000000000
0000000000
0000000000
0000000000
001FFFE000
01FFFFFE00
07FFFFFF80
0FFFFFFFC0
1FFFFFFFE0
3FFFFFFFF0
3FFFFFFFF0
7FFFFFFFF0
7FFFFFFFF8
7FFE01FFF8
7FFC00FFF8
FFF8007FF8
FFF8007FFC
FFF0003FFC
FFF0003FFC
FFF0003FFC
FFF0003FFC
FFF0003FFC
FFF0003FFC
FFF0003FFC
FFF0003FFC
FFF0003FFC
FFF0003FFC
FFF0003FFC
FFF0003FFC
FFF0003FFC
FFF0003FFC
FFF0003FFC
FFF0003FFC
FFFFFFFFFC
FFFFFFFFFC
FFFFFFFFFC
FFFFFFFFFC
FFFFFFFFFC
FFFFFFFFFC
FFFFFFFFFC
FFFFFFFFFC
FFF0003FFC
FFF0003FFC
FFF0003FFC
FFF0003FFC
FFF0003FFC
FFF0003FFC
FFF0003FFC
FFF0003FFC
FFF0003FFC
FFF0003FFC
FFF0003FFC
FFF0003FFC
FFF0003FFC
FFF0003FFC
FFF0003FFC
FFF0003FFC
FFF0003FFC
FFF0003FFC
FFF0003FFC
FFF0003FFC
FFF0003FFC
FFF0003FFC
FFF0003FFC
FFF0003FFC
FFF0003FFC
ENDCHAR
STARTCHAR 00C5
ENCODING 197
SWIDTH 612 0
DWIDTH 49 0
BBX 38 80 6 0
BITMAP
00007C0000
0001FE0000
0003FF0000
0007FF8000
0007878000
000F87C000
000F03C000
000F03C000
000F03C000
000F83C000
0007C78000
0007FF8000
0003FF0000
0001FE0000
0000780000
0000000000
0000000000
0000000000
001FFFE000
01FFFFFE00
07FFFFFF80
0FFFFFFFC0
1FFFFFFFE0
3FFFFFFFF0
3FFFFFFFF0
7FFFFFFFF0
7FFFFFFFF8
7FFE01FFF8
7FFC00FFF8
FFF8007FF8
FFF8007FFC
FFF0003FFC
FFF0003FFC
FFF0003FFC
FFF0003FFC
FFF0003FFC
FFF0003FFC
FFF0003FFC
FFF0003FFC
FFF0003FFC
FFF0003FFC
FFF0003FFC
FFF0003FFC
FFF0003FFC
FFF0003FFC
FFF0003FFC
FFF0003FFC
FFFFFFFFFC
FFFFFFFFFC
FFFFFFFFFC
FFFFFFFFFC
FFFFFFFFFC
FFFFFFFFFC
FFFFFFFFFC
FFFFFFFFFC
FFF0003FFC
FFF0003FFC
FFF0003FFC
FFF0003FFC
FFF0003FFC
FFF0003FFC
FFF0003FFC
FFF0003FFC
FFF0003FFC
FFF0003FFC
FFF0003FFC
FFF0003FFC
FFF0003FFC
FFF0003FFC
FFF0003FFC
FFF0003FFC
FFF0003FFC
FFF0003FFC
FFF0003FFC
FFF0003FFC
FFF0003FFC
FFF0003FFC
FFF0003FFC
FFF0003FFC
FFF0003FFC
ENDCHAR
STARTCHAR 00C6
ENCODING 198
SWIDTH 862 0
DWIDTH 69 0
BBX 60 62 6 0
BITMAP
001FFFFFFFFFFFF0
01FFFFFFFFFFFFF0
07FFFFFFFFFFFFF0
0FFFFFFFFFFFFFF0
1FFFFFFFFFFFFFF0
3FFFFFFFFFFFFFF0
3FFFFFFFFFFFFFF0
7FFFFFFFFFFFFFF0
7FFFFFFFFFFFFFF0
7FFE03FFFFC00000
7FFC00FFFF000000
FFF8007FFF000000
FFF8007FFE000000
FFF8007FFE000000
FFF0003FFE000000
FFF0003FFC000000
FFF0003FFC000000
FFF0003FFC000000
FFF0003FFC000000
FFF0003FFC000000
FFF0003FFC000000
FFF0003FFC000000
FFF0003FFC000000
FFF0003FFC000000
FFF0003FFC000000
FFF0003FFC000000
FFFFFFFFFFFFFC00
FFFFFFFFFFFFFC00
FFFFFFFFFFFFFC00
FFFFFFFFFFFFFC00
FFFFFFFFFFFFFC00
FFFFFFFFFFFFFC00
FFFFFFFFFFFFFC00
FFFFFFFFFFFFFC00
FFF0003FFC000000
FFF0003FFC000000
FFF0003FFC000000
FFF0003FFC000000
FFF0003FFC000000
FFF0003FFC000000
FFF0003FFC000000
FFF0003FFC000000
FFF0003FFC000000
FFF0003FFC000000
FFF0003FFC000000
FFF0003FFC000000
FFF0003FFC000000
FFF0003FFE000000
FFF0003FFE000000
FFF0003FFE000000
FFF0001FFE000000
FFF0001FFF000000
FFF0001FFFC00000
FFF0001FFFFFFFF0
FFF0001FFFFFFFF0
FFF0000FFFFFFFF0
FFF0000FFFFFFFF0
FFF0000FFFFFFFF0
FFF00007FFFFFFF0
FFF00003FFFFFFF0
FFF00001FFFFFFF0
FFF000007FFFFFF0
ENDCHAR
STARTCHAR 00C7
ENCODING 199
SWIDTH 512 0
DWIDTH 41 0
BBX 34 78 4 -16
BITMAP
00FFFFFFC0
07FFFFFFC0
0FFFFFFFC0
1FFFFFFFC0
1FFFFFFFC0
3FFFFFFFC0
3FFFFFFFC0
3FFFFFFFC0
7FFFFFFFC0
7FFE000000
7FFC000000
7FF8000000
7FF8000000
7FF8000000
FFF0000000
FFF0000000
FFF0000000
FFF0000000
FFF0000000
FFF0000000
FFF0000000
FFF0000000
FFF0000000
FFF0000000
FFF0000000
FFF0000000
FFF0000000
FFF0000000
FFF0000000
FFF0000000
FFF0000000
FFF0000000
FFF0000000
FFF0000000
FFF0000000
FFF0000000
FFF0000000
FFF0000000
FFF0000000
FFF0000000
FFF0000000
FFF0000000
FFF0000000
FFF0000000
FFF0000000
FFF0000000
FFF0000000
FFF0000000
FFF8000000
FFF8000000
7FF8000000
7FFC000000
7FFE000000
7FFFFFFFC0
7FFFFFFFC0
3FFFFFFFC0
3FFFFFFFC0
3FFFFFFFC0
1FFFFFFFC0
0FFFFFFFC0
07FFFFFFC0
01FFFFFFC0
00003C0000
00003C0000
0000380000
00007F8000
00007FE000
0000FFF000
0000FFF800
000007F800
000003F800
000003F800
000003F800
00000FF000
000FFFF000
001FFFE000
001FFF8000
0003FC0000
ENDCHAR
STARTCHAR 00C8
ENCODING 200
SWIDTH 512 0
DWIDTH 41 0
BBX 34 78 4 0
BITMAP
01FFC00000
01FFC00000
00FFE00000
007FE00000
003FF00000
003FF00000
001FF00000
000FF80000
000FF80000
0007FC0000
0003FC0000
0003FE0000
0001FE0000
0000000000
0000000000
0000000000
00FFFFFFC0
07FFFFFFC0
0FFFFFFFC0
1FFFFFFFC0
1FFFFFFFC0
3FFFFFFFC0
3FFFFFFFC0
3FFFFFFFC0
7FFFFFFFC0
7FFF000000
7FFC000000
7FF8000000
7FF8000000
FFF8000000
FFF0000000
FFF0000000
FFF0000000
FFF0000000
FFF0000000
FFF0000000
FFF0000000
FFF0000000
FFF0000000
FFF0000000
FFF0000000
FFF0000000
FFFFFFF000
FFFFFFF000
FFFFFFF000
FFFFFFF000
FFFFFFF000
FFFFFFF000
FFFFFFF000
FFFFFFF000
FFF0000000
FFF0000000
FFF0000000
FFF0000000
FFF0000000
FFF0000000
FFF0000000
FFF0000000
FFF0000000
FFF0000000
FFF0000000
FFF0000000
FFF0000000
FFF8000000
FFF8000000
FFF8000000
7FF8000000
7FFC000000
7FFF000000
7FFFFFFFC0
7FFFFFFFC0
3FFFFFFFC0
3FFFFFFFC0
3FFFFFFFC0
1FFFFFFFC0
0FFFFFFFC0
07FFFFFFC0
01FFFFFFC0
ENDCHAR
STARTCHAR 00C9
ENCODING 201
SWIDTH 512 0
DWIDTH 41 0
BBX 34 78 4 0
BITMAP
00000FFE00
00000FFC00
00001FFC00
00001FF800
00003FF000
00003FF000
00003FE000
00007FC000
00007FC000
0000FF8000
0000FF0000
0001FF0000
0001FE0000
0000000000
0000000000
0000000000
00FFFFFFC0
07FFFFFFC0
0FFFFFFFC0
1FFFFFFFC0
1FFFFFFFC0
3FFFFFFFC0
3FFFFFFFC0
3FFFFFFFC0
7FFFFFFFC0
7FFF000000
7FFC000000
7FF8000000
7FF8000000
FFF8000000
FFF0000000
FFF0000000
FFF0000000
FFF0000000
FFF0000000
FFF0000000
FFF0000000
FFF0000000
FFF0000000
FFF0000000
FFF0000000
FFF0000000
FFFFFFF000
FFFFFFF000
FFFFFFF000
FFFFFFF000
FFFFFFF000
FFFFFFF000
FFFFFFF000
FFFFFFF000
FFF0000000
FFF0000000
FFF0000000
FFF0000000
FFF0000000
FFF0000000
FFF0000000
FFF0000000
FFF0000000
FFF0000000
FFF0000000
FFF0000000
FFF0000000
FFF8000000
FFF8000000
FFF8000000
7FF8000000
7FFC000000
7FFF000000
7FFFFFFFC0
7FFFFFFFC0
3FFFFFFFC0
3FFFFFFFC0
3FFFFFFFC0
1FFFFFFFC0
0FFFFFFFC0
07FFFFFFC0
01FFFFFFC0
ENDCHAR
STARTCHAR 00CA
ENCODING 202
SWIDTH 512 0
DWIDTH 41 0
BBX 34 79 4 0
BITMAP
0001FF0000
0001FF8000
0003FFC000
0007FFC000
0007FFE000
000FFFF000
001FFFF000
001FFFF800
003FE7FC00
007FC3FC00
007F81FE00
00FF00FF00
01FC007F00
01F8003F80
0000000000
0000000000
0000000000
00FFFFFFC0
07FFFFFFC0
0FFFFFFFC0
1FFFFFFFC0
1FFFFFFFC0
3FFFFFFFC0
3FFFFFFFC0
3FFFFFFFC0
7FFFFFFFC0
7FFF000000
7FFC000000
7FF8000000
7FF8000000
FFF8000000
FFF0000000
FFF0000000
FFF0000000
FFF0000000
FFF0000000
FFF0000000
FFF0000000
FFF0000000
FFF0000000
FFF0000000
FFF0000000
FFF0000000
FFFFFFF000
FFFFFFF000
FFFFFFF000
FFFFFFF000
FFFFFFF000
FFFFFFF000
FFFFFFF000
FFFFFFF000
FFF0000000
FFF0000000
FFF0000000
FFF0000000
FFF0000000
FFF0000000
FFF0000000
FFF0000000
FFF0000000
FFF0000000
FFF0000000
FFF0000000
FFF0000000
FFF8000000
FFF8000000
FFF8000000
7FF8000000
7FFC000000
7FFF000000
7FFFFFFFC0
7FFFFFFFC0
3FFFFFFFC0
3FFFFFFFC0
3FFFFFFFC0
1FFFFFFFC0
0FFFFFFFC0
07FFFFFFC0
01FFFFFFC0
ENDCHAR
STARTCHAR 00CB
ENCODING 203
SWIDTH 512 0
DWIDTH 41 0
BBX 34 75 4 0
BITMAP
007F80FF00
00FFE1FFC0
01FFE3FFC0
01FFE3FFC0
01FFE3FFC0
01FFE3FFC0
01FFE3FFC0
01FFE3FFC0
00FFE3FFC0
007F80FF00
0000000000
0000000000
0000000000
00FFFFFFC0
07FFFFFFC0
0FFFFFFFC0
1FFFFFFFC0
1FFFFFFFC0
3FFFFFFFC0
3FFFFFFFC0
3FFFFFFFC0
7FFFFFFFC0
7FFF000000
7FFC000000
7FF8000000
7FF8000000
FFF8000000
FFF0000000
FFF0000000
FFF0000000
FFF0000000
FFF0000000
FFF0000000
FFF0000000
FFF0000000
FFF0000000
FFF0000000
FFF0000000
FFF0000000
FFFFFFF000
FFFFFFF000
FFFFFFF000
FFFFFFF000
FFFFFFF000
FFFFFFF000
FFFFFFF000
FFFFFFF000
FFF0000000
FFF0000000
FFF0000000
FFF0000000
FFF0000000
FFF0000000
FFF0000000
FFF0000000
FFF0000000
FFF0000000
FFF0000000
FFF0000000
FFF0000000
FFF8000000
FFF8000000
FFF8000000
7FF8000000
7FFC000000
7FFF000000
7FFFFFFFC0
7FFFFFFFC0
3FFFFFFFC0
3FFFFFFFC0
3FFFFFFFC0
1FFFFFFFC0
0FFFFFFFC0
07FFFFFFC0
01FFFFFFC0
ENDCHAR
STARTCHAR 00CC
ENCODING 204
SWIDTH 275 0
DWIDTH 22 0
BBX 16 78 6 0
BITMAP
FFE0
7FF0
3FF0
3FF0
1FF8
0FF8
0FFC
07FC
03FE
03FE
01FF
00FF
00FF
0000
0000
0000
FFF0
FFF0
FFF0
FFF0
FFF0
FFF0
FFF0
FFF0
FFF0
FFF0
FFF0
FFF0
FFF0
FFF0
FFF0
FFF0
FFF0
FFF0
FFF0
FFF0
FFF0
FFF0
FFF0
FFF0
FFF0
FFF0
FFF0
FFF0
FFF0
FFF0
FFF0
FFF0
FFF0
FFF0
FFF0
FFF0
FFF0
FFF0
FFF0
FFF0
FFF0
FFF0
FFF0
FFF0
FFF0
FFF0
FFF0
FFF0
FFF0
FFF0
FFF0
FFF0
FFF0
FFF0
FFF0
FFF0
FFF0
FFF0
FFF0
FFF0
FFF0
FFF0
ENDCHAR
STARTCHAR 00CD
ENCODING 205
SWIDTH 275 0
DWIDTH 22 0
BBX 18 78 6 0
BITMAP
01FFC0
01FF80
03FF80
03FF00
03FE00
07FE00
07FC00
0FF800
0FF800
1FF000
1FE000
3FE000
3FC000
000000
000000
000000
FFF000
FFF000
FFF000
FFF000
FFF000
FFF000
FFF000
FFF000
FFF000
FFF000
FFF000
FFF000
FFF000
FFF000
FFF000
FFF000
FFF000
FFF000
FFF000
FFF000
FFF000
FFF000
FFF000
FFF000
FFF000
FFF000
FFF000
FFF000
FFF000
FFF000
FFF000
FFF000
FFF000
FFF000
FFF000
FFF000
FFF000
FFF000
FFF000
FFF000
FFF000
FFF000
FFF000
FFF000
FFF000
FFF000
FFF000
FFF000
FFF000
FFF000
FFF000
FFF000
FFF000
FFF000
FFF000
FFF000
FFF000
FFF000
FFF000
FFF000
FFF000
FFF000
ENDCHAR
STARTCHAR 00CE
ENCODING 206
SWIDTH 275 0
DWIDTH 22 0
BBX 26 79 6 0
BITMAP
007FC000
00FFC000
01FFE000
01FFF000
03FFF000
07FFF800
07FFFC00
0FFFFC00
1FF3FE00
1FE1FF00
3FC0FF00
7F807F80
7F001F80
FE000FC0
00000000
00000000
00000000
FFF00000
FFF00000
FFF00000
FFF00000
FFF00000
FFF00000
FFF00000
FFF00000
FFF00000
FFF00000
FFF00000
FFF00000
FFF00000
FFF00000
FFF00000
FFF00000
FFF00000
FFF00000
FFF00000
FFF00000
FFF00000
FFF00000
FFF00000
FFF00000
FFF00000
FFF00000
FFF00000
FFF00000
FFF00000
FFF00000
FFF00000
FFF00000
FFF00000
FFF00000
FFF00000
FFF00000
FFF00000
FFF00000
FFF00000
FFF00000
FFF00000
FFF00000
FFF00000
FFF00000
FFF00000
FFF00000
FFF00000
FFF00000
FFF00000
FFF00000
FFF00000
FFF00000
FFF00000
FFF00000
FFF00000
FFF00000
FFF00000
FFF00000
FFF00000
FFF00000
FFF00000
FFF00000
ENDCHAR
STARTCHAR 00CF
ENCODING 207
SWIDTH 275 0
DWIDTH 22 0
BBX 26 75 5 0
BITMAP
3FC0FF00
7FF1FFC0
FFF3FFC0
FFF3FFC0
FFF3FFC0
FFF3FFC0
FFF3FFC0
FFF3FFC0
7FF3FFC0
3FC0FF00
00000000
00000000
00000000
FFF00000
FFF00000
FFF00000
FFF00000
FFF00000
FFF00000
FFF00000
FFF00000
FFF00000
FFF00000
FFF00000
FFF00000
FFF00000
FFF00000
FFF00000
FFF00000
FFF00000
FFF00000
FFF00000
FFF00000
FFF00000
FFF00000
FFF00000
FFF00000
FFF00000
FFF00000
FFF00000
FFF00000
FFF00000
FFF00000
FFF00000
FFF00000
FFF00000
FFF00000
FFF00000
FFF00000
FFF00000
FFF00000
FFF00000
FFF00000
FFF00000
FFF00000
FFF00000
FFF00000
FFF00000
FFF00000
FFF00000
FFF00000
FFF00000
FFF00000
FFF00000
FFF00000
FFF00000
FFF00000
FFF00000
FFF00000
FFF00000
FFF00000
FFF00000
FFF00000
FFF00000
FFF00000
ENDCHAR
STARTCHAR 00D1
ENCODING 209
SWIDTH 587 0
DWIDTH 47 0
BBX 38 76 6 0
BITMAP
001F800780
007FF00F00
01FFFE3F00
03FFFFFE00
03FFFFFE00
07FFFFFC00
07FFFFF800
0FFFFFF000
00007FC000
0000000000
0000000000
0000000000
0000000000
0000000000
001FFFE000
01FFFFFE00
07FFFFFF80
0FFFFFFFC0
1FFFFFFFE0
3FFFFFFFF0
3FFFFFFFF0
7FFFFFFFF0
7FFFFFFFF8
7FFE01FFF8
7FF800FFF8
FFF8007FF8
FFF8007FFC
FFF0003FFC
FFF0003FFC
FFF0003FFC
FFF0003FFC
FFF0003FFC
FFF0003FFC
FFF0003FFC
FFF0003FFC
FFF0003FFC
FFF0003FFC
FFF0003FFC
FFF0003FFC
FFF0003FFC
FFF0003FFC
FFF0003FFC
FFF0003FFC
FFF0003FFC
FFF0003FFC
FFF0003FFC
FFF0003FFC
FFF0003FFC
FFF0003FFC
FFF0003FFC
FFF0003FFC
FFF0003FFC
FFF0003FFC
FFF0003FFC
FFF0003FFC
FFF0003FFC
FFF0003FFC
FFF0003FFC
FFF0003FFC
FFF0003FFC
FFF0003FFC
FFF0003FFC
FFF0003FFC
FFF0003FFC
FFF0003FFC
FFF0003FFC
FFF0003FFC
FFF0003FFC
FFF0003FFC
FFF0003FFC
FFF0003FFC
FFF0003FFC
FFF0003FFC
FFF0003FFC
FFF0003FFC
FFF0003FFC
ENDCHAR
STARTCHAR 00D2
ENCODING 210
SWIDTH 600 0
DWIDTH 48 0
BBX 40 78 4 0
BITMAP
00FFE00000
007FE00000
007FE00000
003FF00000
001FF00000
001FF80000
000FF80000
000FFC0000
0007FC0000
0003FC0000
0003FE0000
0001FE0000
0000FF0000
0000000000
0000000000
0000000000
000FFFF000
00FFFFFF00
03FFFFFFC0
0FFFFFFFF0
1FFFFFFFF8
1FFFFFFFF8
3FFFFFFFFC
3FFFFFFFFC
7FFFFFFFFE
7FFE007FFE
7FFC003FFE
7FF8001FFE
FFF8001FFF
FFF8001FFF
FFF0000FFF
FFF0000FFF
FFF0000FFF
FFF0000FFF
FFF0000FFF
FFF0000FFF
FFF0000FFF
FFF0000FFF
FFF0000FFF
FFF0000FFF
FFF0000FFF
FFF0000FFF
FFF0000FFF
FFF0000FFF
FFF0000FFF
FFF0000FFF
FFF0000FFF
FFF0000FFF
FFF0000FFF
FFF0000FFF
FFF0000FFF
FFF0000FFF
FFF0000FFF
FFF0000FFF
FFF0000FFF
FFF0000FFF
FFF0000FFF
FFF0000FFF
FFF0000FFF
FFF0000FFF
FFF0000FFF
FFF0000FFF
FFF0000FFF
FFF8000FFF
FFF8001FFF
7FF8001FFE
7FFC001FFE
7FFC003FFE
7FFE007FFE
7FFFFFFFFE
3FFFFFFFFC
3FFFFFFFFC
3FFFFFFFF8
1FFFFFFFF8
0FFFFFFFF0
07FFFFFFE0
01FFFFFF80
001FFFF800
ENDCHAR
STARTCHAR 00D3
ENCODING 211
SWIDTH 600 0
DWIDTH 48 0
BBX 40 78 4 0
BITMAP
00000FFE00
00000FFC00
00000FFC00
00001FF800
00001FF000
00003FF000
00003FE000
00007FC000
00007FC000
00007F8000
0000FF0000
0000FF0000
0001FE0000
0000000000
0000000000
0000000000
000FFFF000
00FFFFFF00
03FFFFFFC0
0FFFFFFFF0
1FFFFFFFF8
1FFFFFFFF8
3FFFFFFFFC
3FFFFFFFFC
7FFFFFFFFE
7FFE007FFE
7FFC003FFE
7FF8001FFE
FFF8001FFF
FFF8001FFF
FFF0000FFF
FFF0000FFF
FFF0000FFF
FFF0000FFF
FFF0000FFF
FFF0000FFF
FFF0000FFF
FFF0000FFF
FFF0000FFF
FFF0000FFF
FFF0000FFF
FFF0000FFF
FFF0000FFF
FFF0000FFF
FFF0000FFF
FFF0000FFF
FFF0000FFF
FFF0000FFF
FFF0000FFF
FFF0000FFF
FFF0000FFF
FFF0000FFF
FFF0000FFF
FFF0000FFF
FFF0000FFF
FFF0000FFF
FFF0000FFF
FFF0000FFF
FFF0000FFF
FFF0000FFF
FFF0000FFF
FFF0000FFF
FFF0000FFF
FFF8000FFF
FFF8001FFF
7FF8001FFE
7FFC001FFE
7FFC003FFE
7FFE007FFE
7FFFFFFFFE
3FFFFFFFFC
3FFFFFFFFC
3FFFFFFFF8
1FFFFFFFF8
0FFFFFFFF0
07FFFFFFE0
01FFFFFF80
001FFFF800
ENDCHAR
STARTCHAR 00D4
ENCODING 212
SWIDTH 600 0
DWIDTH 48 0
BBX 40 79 4 0
BITMAP
0000FF0000
0001FF8000
0003FF8000
0003FFC000
0007FFE000
000FFFE000
000FFFF000
001FFFF000
003FE7F800
003FC3FC00
007F83FC00
007F01FE00
00FE00FF00
01FC007F00
0000000000
0000000000
0000000000
000FFFF000
00FFFFFF00
03FFFFFFC0
0FFFFFFFF0
1FFFFFFFF8
1FFFFFFFF8
3FFFFFFFFC
3FFFFFFFFC
7FFFFFFFFE
7FFE007FFE
7FFC003FFE
7FF8001FFE
FFF8001FFF
FFF8001FFF
FFF0000FFF
FFF0000FFF
FFF0000FFF
FFF0000FFF
FFF0000FFF
FFF0000FFF
FFF0000FFF
FFF0000FFF
FFF0000FFF
FFF0000FFF
FFF0000FFF
FFF0000FFF
FFF0000FFF
FFF0000FFF
FFF0000FFF
FFF0000FFF
FFF0000FFF
FFF0000FFF
FFF0000FFF
FFF0000FFF
FFF0000FFF
FFF0000FFF
FFF0000FFF
FFF0000FFF
FFF0000FFF
FFF0000FFF
FFF0000FFF
FFF0000FFF
FFF0000FFF
FFF0000FFF
FFF0000FFF
FFF0000FFF
FFF0000FFF
FFF8000FFF
FFF8001FFF
7FF8001FFE
7FFC001FFE
7FFC003FFE
7FFE007FFE
7FFFFFFFFE
3FFFFFFFFC
3FFFFFFFFC
3FFFFFFFF8
1FFFFFFFF8
0FFFFFFFF0
07FFFFFFE0
01FFFFFF80
001FFFF800
ENDCHAR
STARTCHAR 00D5
ENCODING 213
SWIDTH 600 0
DWIDTH 48 0
BBX 40 76 4 0
BITMAP
001F800780
007FF00F80
00FFFE1F00
01FFFFFF00
03FFFFFE00
03FFFFFE00
07FFFFFC00
07FFFFF000
00003FE000
0000000000
0000000000
0000000000
0000000000
0000000000
000FFFF000
00FFFFFF00
03FFFFFFC0
0FFFFFFFF0
1FFFFFFFF8
1FFFFFFFF8
3FFFFFFFFC
3FFFFFFFFC
7FFFFFFFFE
7FFE007FFE
7FFC003FFE
7FF8001FFE
FFF8001FFF
FFF8001FFF
FFF0000FFF
FFF0000FFF
FFF0000FFF
FFF0000FFF
FFF0000FFF
FFF0000FFF
FFF0000FFF
FFF0000FFF
FFF0000FFF
FFF0000FFF
FFF0000FFF
FFF0000FFF
FFF0000FFF
FFF0000FFF
FFF0000FFF
FFF0000FFF
FFF0000FFF
FFF0000FFF
FFF0000FFF
FFF0000FFF
FFF0000FFF
FFF0000FFF
FFF0000FFF
FFF0000FFF
FFF0000FFF
FFF0000FFF
FFF0000FFF
FFF0000FFF
FFF0000FFF
FFF0000FFF
FFF0000FFF
FFF0000FFF
FFF0000FFF
FFF8000FFF
FFF8001FFF
7FF8001FFE
7FFC001FFE
7FFC003FFE
7FFE007FFE
7FFFFFFFFE
3FFFFFFFFC
3FFFFFFFFC
3FFFFFFFF8
1FFFFFFFF8
0FFFFFFFF0
07FFFFFFE0
01FFFFFF80
001FFFF800
ENDCHAR
STARTCHAR 00D6
ENCODING 214
SWIDTH 600 0
DWIDTH 48 0
BBX 40 76 4 0
BITMAP
007F81FE00
00FFE3FF80
01FFE7FF80
01FFE7FF80
01FFE7FF80
01FFE7FF80
01FFE7FF80
01FFE7FF80
00FFE7FF80
007F81FE00
0000000000
0000000000
0000000000
0000000000
000FFFF000
00FFFFFF00
03FFFFFFC0
0FFFFFFFF0
1FFFFFFFF8
1FFFFFFFF8
3FFFFFFFFC
3FFFFFFFFC
7FFFFFFFFE
7FFE007FFE
7FFC003FFE
7FF8001FFE
FFF8001FFF
FFF8001FFF
FFF0000FFF
FFF0000FFF
FFF0000FFF
FFF0000FFF
FFF0000FFF
FFF0000FFF
FFF0000FFF
FFF0000FFF
FFF0000FFF
FFF0000FFF
FFF0000FFF
FFF0000FFF
FFF0000FFF
FFF0000FFF
FFF0000FFF
FFF0000FFF
FFF0000FFF
FFF0000FFF
FFF0000FFF
FFF0000FFF
FFF0000FFF
FFF0000FFF
FFF0000FFF
FFF0000FFF
FFF0000FFF
FFF0000FFF
FFF0000FFF
FFF0000FFF
FFF0000FFF
FFF0000FFF
FFF0000FFF
FFF0000FFF
FFF0000FFF
FFF8000FFF
FFF8001FFF
7FF8001FFE
7FFC001FFE
7FFC003FFE
7FFE007FFE
7FFFFFFFFE
3FFFFFFFFC
3FFFFFFFFC
3FFFFFFFF8
1FFFFFFFF8
0FFFFFFFF0
07FFFFFFE0
01FFFFFF80
001FFFF800
ENDCHAR
STARTCHAR 00D8
ENCODING 216
SWIDTH 600 0
DWIDTH 48 0
BBX 40 80 4 -8
BITMAP
00000003F8
00000003F0
00000003F0
00000007F0
00000007E0
0000000FE0
0000000FE0
0000000FC0
0000001FC0
000FFFFFC0
00FFFFFF80
03FFFFFFC0
0FFFFFFFF0
1FFFFFFFF8
1FFFFFFFF8
3FFFFFFFFC
3FFFFFFFFC
7FFFFFFFFE
7FFE00FFFE
7FFC00FFFE
7FF801FFFE
FFF801FFFF
FFF801FFFF
FFF003FFFF
FFF003FFFF
FFF003FFFF
FFF007EFFF
FFF007EFFF
FFF007EFFF
FFF00FCFFF
FFF00FCFFF
FFF00FCFFF
FFF01F8FFF
FFF01F8FFF
FFF01F8FFF
FFF03F0FFF
FFF03F0FFF
FFF03F0FFF
FFF07E0FFF
FFF07E0FFF
FFF07E0FFF
FFF0FC0FFF
FFF0FC0FFF
FFF0FC0FFF
FFF1F80FFF
FFF1F80FFF
FFF1F80FFF
FFF3F00FFF
FFF3F00FFF
FFF3F00FFF
FFF7E00FFF
FFF7E00FFF
FFF7E00FFF
FFFFC00FFF
FFFFC00FFF
FFFFC00FFF
FFFF800FFF
FFFF801FFF
7FFF801FFE
7FFF001FFE
7FFF003FFE
7FFF007FFE
7FFFFFFFFE
3FFFFFFFFC
3FFFFFFFFC
1FFFFFFFF8
1FFFFFFFF8
0FFFFFFFF0
07FFFFFFE0
01FFFFFF80
03FFFFF800
03F8000000
03F0000000
07F0000000
07F0000000
0FE0000000
0FE0000000
0FC0000000
1FC0000000
1FC0000000
ENDCHAR
STARTCHAR 00D9
ENCODING 217
SWIDTH 612 0
DWIDTH 49 0
BBX 39 78 6 0
BITMAP
00FFE00000
00FFE00000
007FE00000
003FF00000
003FF00000
001FF80000
000FF80000
000FFC0000
0007FC0000
0003FC0000
0003FE0000
0001FE0000
0000FF0000
0000000000
0000000000
0000000000
FFF0001FFE
FFF0001FFE
FFF0001FFE
FFF0001FFE
FFF0001FFE
FFF0001FFE
FFF0001FFE
FFF0001FFE
FFF0001FFE
FFF0001FFE
FFF0001FFE
FFF0001FFE
FFF0001FFE
FFF0001FFE
FFF0001FFE
FFF0001FFE
FFF0001FFE
FFF0001FFE
FFF0001FFE
FFF0001FFE
FFF0001FFE
FFF0001FFE
FFF0001FFE
FFF0001FFE
FFF0001FFE
FFF0001FFE
FFF0001FFE
FFF0001FFE
FFF0001FFE
FFF0001FFE
FFF0001FFE
FFF0001FFE
FFF0001FFE
FFF0001FFE
FFF0001FFE
FFF0001FFE
FFF0001FFE
FFF0001FFE
FFF0001FFE
FFF0001FFE
FFF0001FFE
FFF0001FFE
FFF0001FFE
FFF0001FFE
FFF0001FFE
FFF0001FFE
FFF0001FFE
FFF0001FFE
FFF0001FFE
FFF8003FFE
FFF8003FFE
FFF8003FFE
7FFC007FFE
7FFF83FFFC
7FFFFFFFFC
7FFFFFFFFC
3FFFFFFFF8
3FFFFFFFF8
1FFFFFFFF0
0FFFFFFFE0
03FFFFFF80
003FFFF800
ENDCHAR
STARTCHAR 00DA
ENCODING 218
SWIDTH 612 0
DWIDTH 49 0
BBX 39 78 6 0
BITMAP
000007FF00
000007FE00
00000FFE00
00000FFC00
00001FF800
00001FF800
00001FF000
00003FE000
00003FE000
00007FC000
00007F8000
0000FF8000
0000FF0000
0000000000
0000000000
0000000000
FFF0001FFE
FFF0001FFE
FFF0001FFE
FFF0001FFE
FFF0001FFE
FFF0001FFE
FFF0001FFE
FFF0001FFE
FFF0001FFE
FFF0001FFE
FFF0001FFE
FFF0001FFE
FFF0001FFE
FFF0001FFE
FFF0001FFE
FFF0001FFE
FFF0001FFE
FFF0001FFE
FFF0001FFE
FFF0001FFE
FFF0001FFE
FFF0001FFE
FFF0001FFE
FFF0001FFE
FFF0001FFE
FFF0001FFE
FFF0001FFE
FFF0001FFE
FFF0001FFE
FFF0001FFE
FFF0001FFE
FFF0001FFE
FFF0001FFE
FFF0001FFE
FFF0001FFE
FFF0001FFE
FFF0001FFE
FFF0001FFE
FFF0001FFE
FFF0001FFE
FFF0001FFE
FFF0001FFE
FFF0001FFE
FFF0001FFE
FFF0001FFE
FFF0001FFE
FFF0001FFE
FFF0001FFE
FFF0001FFE
FFF8003FFE
FFF8003FFE
FFF8003FFE
7FFC007FFE
7FFF83FFFC
7FFFFFFFFC
7FFFFFFFFC
3FFFFFFFF8
3FFFFFFFF8
1FFFFFFFF0
0FFFFFFFE0
03FFFFFF80
003FFFF800
ENDCHAR
STARTCHAR 00DB
ENCODING 219
SWIDTH 612 0
DWIDTH 49 0
BBX 39 79 6 0
BITMAP
0001FF0000
0001FF8000
0003FF8000
0007FFC000
0007FFE000
000FFFE000
001FFFF000
003FEFF800
003FC7F800
007F83FC00
00FF01FE00
00FE00FE00
01FC007F00
03F8003F80
0000000000
0000000000
0000000000
FFF0001FFE
FFF0001FFE
FFF0001FFE
FFF0001FFE
FFF0001FFE
FFF0001FFE
FFF0001FFE
FFF0001FFE
FFF0001FFE
FFF0001FFE
FFF0001FFE
FFF0001FFE
FFF0001FFE
FFF0001FFE
FFF0001FFE
FFF0001FFE
FFF0001FFE
FFF0001FFE
FFF0001FFE
FFF0001FFE
FFF0001FFE
FFF0001FFE
FFF0001FFE
FFF0001FFE
FFF0001FFE
FFF0001FFE
FFF0001FFE
FFF0001FFE
FFF0001FFE
FFF0001FFE
FFF0001FFE
FFF0001FFE
FFF0001FFE
FFF0001FFE
FFF0001FFE
FFF0001FFE
FFF0001FFE
FFF0001FFE
FFF0001FFE
FFF0001FFE
FFF0001FFE
FFF0001FFE
FFF0001FFE
FFF0001FFE
FFF0001FFE
FFF0001FFE
FFF0001FFE
FFF0001FFE
FFF0001FFE
FFF8003FFE
FFF8003FFE
FFF8003FFE
7FFC007FFE
7FFF83FFFC
7FFFFFFFFC
7FFFFFFFFC
3FFFFFFFF8
3FFFFFFFF8
1FFFFFFFF0
0FFFFFFFE0
03FFFFFF80
003FFFF800
ENDCHAR
STARTCHAR 00DC
ENCODING 220
SWIDTH 612 0
DWIDTH 49 0
BBX 39 76 6 0
BITMAP
00FF03FC00
01FFC7FF00
03FFCFFF00
03FFCFFF00
03FFCFFF00
03FFCFFF00
03FFCFFF00
03FFCFFF00
01FFCFFF00
00FF03FC00
0000000000
0000000000
0000000000
0000000000
FFF0001FFE
FFF0001FFE
FFF0001FFE
FFF0001FFE
FFF0001FFE
FFF0001FFE
FFF0001FFE
FFF0001FFE
FFF0001FFE
FFF0001FFE
FFF0001FFE
FFF0001FFE
FFF0001FFE
FFF0001FFE
FFF0001FFE
FFF0001FFE
FFF0001FFE
FFF0001FFE
FFF0001FFE
FFF0001FFE
FFF0001FFE
FFF0001FFE
FFF0001FFE
FFF0001FFE
FFF0001FFE
FFF0001FFE
FFF0001FFE
FFF0001FFE
FFF0001FFE
FFF0001FFE
FFF0001FFE
FFF0001FFE
FFF0001FFE
FFF0001FFE
FFF0001FFE
FFF0001FFE
FFF0001FFE
FFF0001FFE
FFF0001FFE
FFF0001FFE
FFF0001FFE
FFF0001FFE
FFF0001FFE
FFF0001FFE
FFF0001FFE
FFF0001FFE
FFF0001FFE
FFF0001FFE
FFF0001FFE
FFF8003FFE
FFF8003FFE
FFF8003FFE
7FFC007FFE
7FFF83FFFC
7FFFFFFFFC
7FFFFFFFFC
3FFFFFFFF8
3FFFFFFFF8
1FFFFFFFF0
0FFFFFFFE0
03FFFFFF80
003FFFF800
ENDCHAR
STARTCHAR 00DD
ENCODING 221
SWIDTH 562 0
DWIDTH 45 0
BBX 0 0 0 0
BITMAP
ENDCHAR
STARTCHAR 00DF
ENCODING 223
SWIDTH 562 0
DWIDTH 45 0
BBX 36 70 6 -9
BITMAP
001FFF8000
01FFFFF800
07FFFFFE00
0FFFFFFF80
1FFFFFFFC0
3FFFFFFFE0
3FFFFFFFE0
7FFFFFFFF0
7FFFFFFFF0
7FFC03FFF0
7FF801FFF0
FFF801FFF0
FFF800FFF0
FFF000FFF0
FFF000FFF0
FFF000FFF0
FFF000FFF0
FFF000FFF0
FFF000FFF0
FFF001FFF0
FFF001FFF0
FFF003FFF0
FFF00FFFF0
FFF0FFFFE0
FFF0FFFFE0
FFF0FFFFC0
FFF0FFFF00
FFF0FFF800
FFF0FFFE00
FFF0FFFF80
FFF0FFFFC0
FFF0FFFFC0
FFF01FFFE0
FFF007FFE0
FFF003FFF0
FFF001FFF0
FFF001FFF0
FFF000FFF0
FFF000FFF0
FFF000FFF0
FFF000FFF0
FFF000FFF0
FFF000FFF0
FFF000FFF0
FFF000FFF0
FFF000FFF0
FFF000FFF0
FFF000FFF0
FFF000FFF0
FFF000FFF0
FFF001FFF0
FFF001FFF0
FFF003FFF0
FFF00FFFF0
FFF0FFFFE0
FFF0FFFFE0
FFF0FFFFC0
FFF0FFFFC0
FFF0FFFF80
FFF0FFFE00
FFF0FFF800
FFF0FF0000
FFF0000000
FFF0000000
FFF0000000
FFF0000000
FFF0000000
FFF0000000
FFF0000000
FFF0000000
ENDCHAR
STARTCHAR 00E0
ENCODING 224
SWIDTH 612 0
DWIDTH 49 0
BBX 38 62 6 0
BITMAP
01FFC00000
00FFC00000
00FFC00000
007FE00000
007FE00000
003FF00000
001FF00000
001FF80000
000FF80000
0007FC0000
0007FC0000
0003FC0000
0001FE0000
0000000000
0000000000
0000000000
003FFFF000
03FFFFFF00
0FFFFFFFC0
1FFFFFFFE0
3FFFFFFFF0
7FFFFFFFF0
7FFF8FFFF8
7FFC00FFF8
FFF8007FF8
FFF0003FFC
FFF0003FFC
FFF0003FFC
FFF0003FFC
FFF0003FFC
FFF0003FFC
FFF0003FFC
FFF0003FFC
FFF0003FFC
FFF0003FFC
FFF0003FFC
FFFFFFFFFC
FFFFFFFFFC
FFFFFFFFFC
FFFFFFFFFC
FFFFFFFFFC
FFFFFFFFFC
FFFFFFFFFC
FFF0003FFC
FFF0003FFC
FFF0003FFC
FFF0003FFC
FFF0003FFC
FFF0003FFC
FFF0003FFC
FFF0003FFC
FFF0003FFC
FFF0003FFC
FFF0003FFC
FFF0003FFC
FFF0003FFC
FFF0003FFC
FFF0003FFC
FFF0003FFC
FFF0003FFC
FFF0003FFC
FFF0003FFC
ENDCHAR
STARTCHAR 00E1
ENCODING 225
SWIDTH 612 0
DWIDTH 49 0
BBX 38 62 6 0
BITMAP
00000FFC00
00001FFC00
00001FF800
00003FF000
00003FF000
00007FE000
00007FC000
00007FC000
0000FF8000
0000FF0000
0001FF0000
0001FE0000
0003FC0000
0000000000
0000000000
0000000000
003FFFF000
03FFFFFF00
0FFFFFFFC0
1FFFFFFFE0
3FFFFFFFF0
7FFFFFFFF0
7FFF8FFFF8
7FFC00FFF8
FFF8007FF8
FFF0003FFC
FFF0003FFC
FFF0003FFC
FFF0003FFC
FFF0003FFC
FFF0003FFC
FFF0003FFC
FFF0003FFC
FFF0003FFC
FFF0003FFC
FFF0003FFC
FFFFFFFFFC
FFFFFFFFFC
FFFFFFFFFC
FFFFFFFFFC
FFFFFFFFFC
FFFFFFFFFC
FFFFFFFFFC
FFF0003FFC
FFF0003FFC
FFF0003FFC
FFF0003FFC
FFF0003FFC
FFF0003FFC
FFF0003FFC
FFF0003FFC
FFF0003FFC
FFF0003FFC
FFF0003FFC
FFF0003FFC
FFF0003FFC
FFF0003FFC
FFF0003FFC
FFF0003FFC
FFF0003FFC
FFF0003FFC
FFF0003FFC
ENDCHAR
STARTCHAR 00E2
ENCODING 226
SWIDTH 612 0
DWIDTH 49 0
BBX 38 62 6 0
BITMAP
0007FC0000
0007FE0000
000FFF0000
001FFF0000
001FFF8000
003FFFC000
007FFFC000
007FFFE000
00FF9FF000
01FE0FF000
01FC03F800
03F801FC00
07F000FC00
0000000000
0000000000
0000000000
003FFFF000
03FFFFFF00
0FFFFFFFC0
1FFFFFFFE0
3FFFFFFFF0
7FFFFFFFF0
7FFF8FFFF8
7FFC00FFF8
FFF8007FF8
FFF0003FFC
FFF0003FFC
FFF0003FFC
FFF0003FFC
FFF0003FFC
FFF0003FFC
FFF0003FFC
FFF0003FFC
FFF0003FFC
FFF0003FFC
FFF0003FFC
FFFFFFFFFC
FFFFFFFFFC
FFFFFFFFFC
FFFFFFFFFC
FFFFFFFFFC
FFFFFFFFFC
FFFFFFFFFC
FFF0003FFC
FFF0003FFC
FFF0003FFC
FFF0003FFC
FFF0003FFC
FFF0003FFC
FFF0003FFC
FFF0003FFC
FFF0003FFC
FFF0003FFC
FFF0003FFC
FFF0003FFC
FFF0003FFC
FFF0003FFC
FFF0003FFC
FFF0003FFC
FFF0003FFC
FFF0003FFC
FFF0003FFC
ENDCHAR
STARTCHAR 00E3
ENCODING 227
SWIDTH 612 0
DWIDTH 49 0
BBX 38 61 6 0
BITMAP
001F800F00
007FF00F00
01FFFC3F00
03FFFFFE00
03FFFFFE00
07FFFFFC00
0FFFFFF800
0FFFFFF000
00007FC000
0000000000
0000000000
0000000000
0000000000
0000000000
0000000000
003FFFF000
03FFFFFF00
0FFFFFFFC0
1FFFFFFFE0
3FFFFFFFF0
7FFFFFFFF0
7FFF8FFFF8
7FFC00FFF8
FFF8007FF8
FFF0003FFC
FFF0003FFC
FFF0003FFC
FFF0003FFC
FFF0003FFC
FFF0003FFC
FFF0003FFC
FFF0003FFC
FFF0003FFC
FFF0003FFC
FFF0003FFC
FFFFFFFFFC
FFFFFFFFFC
FFFFFFFFFC
FFFFFFFFFC
FFFFFFFFFC
FFFFFFFFFC
FFFFFFFFFC
FFF0003FFC
FFF0003FFC
FFF0003FFC
FFF0003FFC
FFF0003FFC
FFF0003FFC
FFF0003FFC
FFF0003FFC
FFF0003FFC
FFF0003FFC
FFF0003FFC
FFF0003FFC
FFF0003FFC
FFF0003FFC
FFF0003FFC
FFF0003FFC
FFF0003FFC
FFF0003FFC
FFF0003FFC
ENDCHAR
STARTCHAR 00E4
ENCODING 228
SWIDTH 612 0
DWIDTH 49 0
BBX 38 60 6 0
BITMAP
00FF03FC00
01FFC7FF00
03FFCFFF00
03FFCFFF00
03FFCFFF00
03FFCFFF00
03FFCFFF00
03FFCFFF00
01FFCFFF00
00FF03FC00
0000000000
0000000000
0000000000
0000000000
003FFFF000
03FFFFFF00
0FFFFFFFC0
1FFFFFFFE0
3FFFFFFFF0
7FFFFFFFF0
7FFF8FFFF8
7FFC00FFF8
FFF8007FF8
FFF0003FFC
FFF0003FFC
FFF0003FFC
FFF0003FFC
FFF0003FFC
FFF0003FFC
FFF0003FFC
FFF0003FFC
FFF0003FFC
FFF0003FFC
FFF0003FFC
FFFFFFFFFC
FFFFFFFFFC
FFFFFFFFFC
FFFFFFFFFC
FFFFFFFFFC
FFFFFFFFFC
FFFFFFFFFC
FFF0003FFC
FFF0003FFC
FFF0003FFC
FFF0003FFC
FFF0003FFC
FFF0003FFC
FFF0003FFC
FFF0003FFC
FFF0003FFC
FFF0003FFC
FFF0003FFC
FFF0003FFC
FFF0003FFC
FFF0003FFC
FFF0003FFC
FFF0003FFC
FFF0003FFC
FFF0003FFC
FFF0003FFC
ENDCHAR
STARTCHAR 00E5
ENCODING 229
SWIDTH 612 0
DWIDTH 49 0
BBX 38 64 6 0
BITMAP
0000F80000
0003FC0000
0007FE0000
000FFF0000
000F0F0000
001F0F8000
001E078000
001E078000
001E078000
001F078000
000F8F0000
000FFF0000
0007FE0000
0003FC0000
0000F00000
0000000000
0000000000
0000000000
003FFFF000
03FFFFFF00
0FFFFFFFC0
1FFFFFFFE0
3FFFFFFFF0
7FFFFFFFF0
7FFF8FFFF8
7FFC00FFF8
FFF8007FF8
FFF0003FFC
FFF0003FFC
FFF0003FFC
FFF0003FFC
FFF0003FFC
FFF0003FFC
FFF0003FFC
FFF0003FFC
FFF0003FFC
FFF0003FFC
FFF0003FFC
FFFFFFFFFC
FFFFFFFFFC
FFFFFFFFFC
FFFFFFFFFC
FFFFFFFFFC
FFFFFFFFFC
FFFFFFFFFC
FFF0003FFC
FFF0003FFC
FFF0003FFC
FFF0003FFC
FFF0003FFC
FFF0003FFC
FFF0003FFC
FFF0003FFC
FFF0003FFC
FFF0003FFC
FFF0003FFC
FFF0003FFC
FFF0003FFC
FFF0003FFC
FFF0003FFC
FFF0003FFC
FFF0003FFC
FFF0003FFC
FFF0003FFC
ENDCHAR
STARTCHAR 00E6
ENCODING 230
SWIDTH 862 0
DWIDTH 69 0
BBX 60 46 6 0
BITMAP
003FFFFFFFFFFFF0
03FFFFFFFFFFFFF0
0FFFFFFFFFFFFFF0
1FFFFFFFFFFFFFF0
3FFFFFFFFFFFFFF0
7FFFFFFFFFFFFFF0
7FFFFFFFFFFFFFF0
7FFC00FFFF800000
FFF8007FFF000000
FFF8007FFE000000
FFF0003FFE000000
FFF0003FFC000000
FFF0003FFC000000
FFF0003FFC000000
FFF0003FFC000000
FFF0003FFC000000
FFF0003FFC000000
FFF0003FFC000000
FFF0003FFC000000
FFFFFFFFFFFFFC00
FFFFFFFFFFFFFC00
FFFFFFFFFFFFFC00
FFFFFFFFFFFFFC00
FFFFFFFFFFFFFC00
FFFFFFFFFFFFFC00
FFF0003FFC000000
FFF0003FFC000000
FFF0003FFC000000
FFF0003FFC000000
FFF0003FFC000000
FFF0003FFC000000
FFF0003FFC000000
FFF0003FFC000000
FFF0003FFC000000
FFF0003FFC000000
FFF0003FFE000000
FFF0003FFE000000
FFF0001FFE000000
FFF0001FFF800000
FFF0001FFFFFFFF0
FFF0001FFFFFFFF0
FFF0000FFFFFFFF0
FFF0000FFFFFFFF0
FFF00007FFFFFFF0
FFF00003FFFFFFF0
FFF00000FFFFFFF0
ENDCHAR
STARTCHAR 00E7
ENCODING 231
SWIDTH 512 0
DWIDTH 41 0
BBX 34 63 4 -17
BITMAP
01FFFFFFC0
07FFFFFFC0
1FFFFFFFC0
1FFFFFFFC0
3FFFFFFFC0
3FFFFFFFC0
7FFFFFFFC0
7FFC000000
7FF8000000
7FF8000000
FFF0000000
FFF0000000
FFF0000000
FFF0000000
FFF0000000
FFF0000000
FFF0000000
FFF0000000
FFF0000000
FFF0000000
FFF0000000
FFF0000000
FFF0000000
FFF0000000
FFF0000000
FFF0000000
FFF0000000
FFF0000000
FFF0000000
FFF0000000
FFF0000000
FFF0000000
FFF0000000
FFF0000000
FFF0000000
FFF8000000
FFF8000000
7FF8000000
7FFC000000
7FFFFFFF80
7FFFFFFF80
3FFFFFFF80
3FFFFFFF80
1FFFFFFF80
0FFFFFFF80
01FFFFFF80
00001C0000
00003C0000
00003C0000
0000380000
00007F8000
00007FE000
00007FF000
0000FFF800
0000CFF800
000003F800
000003F800
000003F800
000007F000
0007FFF000
000FFFE000
001FFF8000
0001FC0000
ENDCHAR
STARTCHAR 00E8
ENCODING 232
SWIDTH 512 0
DWIDTH 41 0
BBX 34 62 4 0
BITMAP
01FFC00000
01FFC00000
00FFE00000
007FE00000
007FF00000
003FF00000
001FF00000
001FF80000
000FF80000
0007FC0000
0003FC0000
0003FE0000
0001FE0000
0000000000
0000000000
0000000000
01FFFFFFC0
07FFFFFFC0
1FFFFFFFC0
1FFFFFFFC0
3FFFFFFFC0
3FFFFFFFC0
7FFFFFFFC0
7FFC000000
7FF8000000
7FF8000000
FFF0000000
FFF0000000
FFF0000000
FFF0000000
FFF0000000
FFF0000000
FFF0000000
FFF0000000
FFF0000000
FFFFFFF000
FFFFFFF000
FFFFFFF000
FFFFFFF000
FFFFFFF000
FFFFFFF000
FFF0000000
FFF0000000
FFF0000000
FFF0000000
FFF0000000
FFF0000000
FFF0000000
FFF0000000
FFF0000000
FFF0000000
FFF8000000
FFF8000000
7FF8000000
7FFE000000
7FFFFFFFC0
7FFFFFFFC0
3FFFFFFFC0
3FFFFFFFC0
1FFFFFFFC0
0FFFFFFFC0
03FFFFFFC0
ENDCHAR
STARTCHAR 00E9
ENCODING 233
SWIDTH 512 0
DWIDTH 41 0
BBX 34 62 4 0
BITMAP
00001FFC00
00001FF800
00003FF800
00003FF000
00007FE000
00007FE000
0000FFC000
0000FF8000
0000FF8000
0001FF0000
0001FE0000
0003FE0000
0003FC0000
0000000000
0000000000
0000000000
01FFFFFFC0
07FFFFFFC0
1FFFFFFFC0
1FFFFFFFC0
3FFFFFFFC0
3FFFFFFFC0
7FFFFFFFC0
7FFC000000
7FF8000000
7FF8000000
FFF0000000
FFF0000000
FFF0000000
FFF0000000
FFF0000000
FFF0000000
FFF0000000
FFF0000000
FFF0000000
FFFFFFF000
FFFFFFF000
FFFFFFF000
FFFFFFF000
FFFFFFF000
FFFFFFF000
FFF0000000
FFF0000000
FFF0000000
FFF0000000
FFF0000000
FFF0000000
FFF0000000
FFF0000000
FFF0000000
FFF0000000
FFF8000000
FFF8000000
7FF8000000
7FFE000000
7FFFFFFFC0
7FFFFFFFC0
3FFFFFFFC0
3FFFFFFFC0
1FFFFFFFC0
0FFFFFFFC0
03FFFFFFC0
ENDCHAR
STARTCHAR 00EA
ENCODING 234
SWIDTH 512 0
DWIDTH 41 0
BBX 34 62 4 0
BITMAP
0001FF0000
0003FF8000
0003FFC000
0007FFC000
000FFFE000
001FFFF000
001FFFF000
003FEFF800
007FC7FC00
007F83FC00
00FF00FE00
01FE007F00
03F8003F00
0000000000
0000000000
0000000000
01FFFFFFC0
07FFFFFFC0
1FFFFFFFC0
1FFFFFFFC0
3FFFFFFFC0
3FFFFFFFC0
7FFFFFFFC0
7FFC000000
7FF8000000
7FF8000000
FFF0000000
FFF0000000
FFF0000000
FFF0000000
FFF0000000
FFF0000000
FFF0000000
FFF0000000
FFF0000000
FFFFFFF000
FFFFFFF000
FFFFFFF000
FFFFFFF000
FFFFFFF000
FFFFFFF000
FFF0000000
FFF0000000
FFF0000000
FFF0000000
FFF0000000
FFF0000000
FFF0000000
FFF0000000
FFF0000000
FFF0000000
FFF8000000
FFF8000000
7FF8000000
7FFE000000
7FFFFFFFC0
7FFFFFFFC0
3FFFFFFFC0
3FFFFFFFC0
1FFFFFFFC0
0FFFFFFFC0
03FFFFFFC0
ENDCHAR
STARTCHAR 00EB
ENCODING 235
SWIDTH 512 0
DWIDTH 41 0
BBX 33 60 4 0
BITMAP
007F81FE00
00FFE3FF80
01FFE7FF80
01FFE7FF80
01FFE7FF80
01FFE7FF80
01FFE7FF80
01FFE7FF80
00FFE7FF80
007F81FE00
0000000000
0000000000
0000000000
0000000000
01FFFFFF80
07FFFFFF80
1FFFFFFF80
1FFFFFFF80
3FFFFFFF80
3FFFFFFF80
7FFFFFFF80
7FFE000000
7FF8000000
7FF8000000
FFF0000000
FFF0000000
FFF0000000
FFF0000000
FFF0000000
FFF0000000
FFF0000000
FFF0000000
FFF0000000
FFFFFFF000
FFFFFFF000
FFFFFFF000
FFFFFFF000
FFFFFFF000
FFFFFFF000
FFF0000000
FFF0000000
FFF0000000
FFF0000000
FFF0000000
FFF0000000
FFF0000000
FFF0000000
FFF0000000
FFF0000000
FFF8000000
FFF8000000
7FF8000000
7FFE000000
7FFFFFFF80
7FFFFFFF80
3FFFFFFF80
3FFFFFFF80
1FFFFFFF80
0FFFFFFF80
03FFFFFF80
ENDCHAR
STARTCHAR 00EC
ENCODING 236
SWIDTH 275 0
DWIDTH 22 0
BBX 17 62 5 0
BITMAP
FFF000
7FF000
3FF800
3FF800
1FF800
0FFC00
0FFC00
07FE00
03FE00
01FF00
01FF00
00FF80
007F80
000000
000000
000000
FFF000
FFF000
FFF000
FFF000
FFF000
FFF000
FFF000
FFF000
FFF000
FFF000
FFF000
FFF000
FFF000
FFF000
FFF000
FFF000
FFF000
FFF000
FFF000
FFF000
FFF000
FFF000
FFF000
FFF000
FFF000
FFF000
FFF000
FFF000
FFF000
FFF000
FFF000
FFF000
FFF000
FFF000
FFF000
FFF000
FFF000
FFF000
FFF000
FFF000
FFF000
FFF000
FFF000
FFF000
FFF000
FFF000
ENDCHAR
STARTCHAR 00ED
ENCODING 237
SWIDTH 275 0
DWIDTH 22 0
BBX 18 62 5 0
BITMAP
01FFC0
01FFC0
03FF80
03FF00
07FF00
07FE00
0FFC00
0FFC00
1FF800
1FF000
1FF000
3FE000
3FC000
000000
000000
000000
FFF000
FFF000
FFF000
FFF000
FFF000
FFF000
FFF000
FFF000
FFF000
FFF000
FFF000
FFF000
FFF000
FFF000
FFF000
FFF000
FFF000
FFF000
FFF000
FFF000
FFF000
FFF000
FFF000
FFF000
FFF000
FFF000
FFF000
FFF000
FFF000
FFF000
FFF000
FFF000
FFF000
FFF000
FFF000
FFF000
FFF000
FFF000
FFF000
FFF000
FFF000
FFF000
FFF000
FFF000
FFF000
FFF000
ENDCHAR
STARTCHAR 00EE
ENCODING 238
SWIDTH 275 0
DWIDTH 22 0
BBX 26 62 5 0
BITMAP
007FC000
00FFE000
00FFF000
01FFF000
03FFF800
07FFFC00
07FFFC00
0FFBFE00
1FF1FF00
3FE07F00
3FC03F80
7F001FC0
FE000FC0
00000000
00000000
00000000
FFF00000
FFF00000
FFF00000
FFF00000
FFF00000
FFF00000
FFF00000
FFF00000
FFF00000
FFF00000
FFF00000
FFF00000
FFF00000
FFF00000
FFF00000
FFF00000
FFF00000
FFF00000
FFF00000
FFF00000
FFF00000
FFF00000
FFF00000
FFF00000
FFF00000
FFF00000
FFF00000
FFF00000
FFF00000
FFF00000
FFF00000
FFF00000
FFF00000
FFF00000
FFF00000
FFF00000
FFF00000
FFF00000
FFF00000
FFF00000
FFF00000
FFF00000
FFF00000
FFF00000
FFF00000
FFF00000
ENDCHAR
STARTCHAR 00EF
ENCODING 239
SWIDTH 275 0
DWIDTH 22 0
BBX 27 60 5 0
BITMAP
3FC07F80
7FF0FFE0
FFF1FFE0
FFF1FFE0
FFF1FFE0
FFF1FFE0
FFF1FFE0
FFF1FFE0
7FF1FFE0
3FC07F80
00000000
00000000
00000000
00000000
FFF00000
FFF00000
FFF00000
FFF00000
FFF00000
FFF00000
FFF00000
FFF00000
FFF00000
FFF00000
FFF00000
FFF00000
FFF00000
FFF00000
FFF00000
FFF00000
FFF00000
FFF00000
FFF00000
FFF00000
FFF00000
FFF00000
FFF00000
FFF00000
FFF00000
FFF00000
FFF00000
FFF00000
FFF00000
FFF00000
FFF00000
FFF00000
FFF00000
FFF00000
FFF00000
FFF00000
FFF00000
FFF00000
FFF00000
FFF00000
FFF00000
FFF00000
FFF00000
FFF00000
FFF00000
FFF00000
ENDCHAR
STARTCHAR 00F1
ENCODING 241
SWIDTH 600 0
DWIDTH 48 0
BBX 38 61 6 0
BITMAP
001F800780
007FF00F80
00FFFE1F00
01FFFFFF00
03FFFFFE00
03FFFFFC00
07FFFFFC00
07FFFFF000
00003FC000
0000000000
0000000000
0000000000
0000000000
0000000000
0000000000
003FFFF000
03FFFFFF00
0FFFFFFFC0
1FFFFFFFE0
3FFFFFFFF0
7FFFFFFFF0
7FFFCFFFF8
7FFC00FFF8
FFF8007FF8
FFF8007FFC
FFF0003FFC
FFF0003FFC
FFF0003FFC
FFF0003FFC
FFF0003FFC
FFF0003FFC
FFF0003FFC
FFF0003FFC
FFF0003FFC
FFF0003FFC
FFF0003FFC
FFF0003FFC
FFF0003FFC
FFF0003FFC
FFF0003FFC
FFF0003FFC
FFF0003FFC
FFF0003FFC
FFF0003FFC
FFF0003FFC
FFF0003FFC
FFF0003FFC
FFF0003FFC
FFF0003FFC
FFF0003FFC
FFF0003FFC
FFF0003FFC
FFF0003FFC
FFF0003FFC
FFF0003FFC
FFF0003FFC
FFF0003FFC
FFF0003FFC
FFF0003FFC
FFF0003FFC
FFF0003FFC
ENDCHAR
STARTCHAR 00F2
ENCODING 242
SWIDTH 600 0
DWIDTH 48 0
BBX 40 62 4 0
BITMAP
01FFC00000
00FFC00000
007FE00000
007FE00000
003FF00000
001FF00000
001FF80000
000FF80000
0007F80000
0007FC0000
0003FC0000
0001FE0000
0001FE0000
0000000000
0000000000
0000000000
001FFFF800
01FFFFFF80
0FFFFFFFE0
1FFFFFFFF8
3FFFFFFFFC
3FFFFFFFFC
7FFFE7FFFE
7FFC007FFE
7FF8003FFE
FFF8001FFF
FFF0001FFF
FFF0000FFF
FFF0000FFF
FFF0000FFF
FFF0000FFF
FFF0000FFF
FFF0000FFF
FFF0000FFF
FFF0000FFF
FFF0000FFF
FFF0000FFF
FFF0000FFF
FFF0000FFF
FFF0000FFF
FFF0000FFF
FFF0000FFF
FFF0000FFF
FFF0000FFF
FFF0000FFF
FFF0000FFF
FFF0000FFF
FFF0000FFF
FFF0000FFF
FFF0000FFF
FFF0000FFF
FFF8001FFF
FFF8001FFF
7FFC001FFE
7FFE003FFE
7FFF83FFFE
3FFFFFFFFC
3FFFFFFFFC
1FFFFFFFF8
0FFFFFFFF0
03FFFFFFC0
003FFFF800
ENDCHAR
STARTCHAR 00F3
ENCODING 243
SWIDTH 600 0
DWIDTH 48 0
BBX 40 62 4 0
BITMAP
00000FFE00
00000FFC00
00001FFC00
00001FF800
00001FF000
00003FF000
00003FE000
00007FC000
00007FC000
00007F8000
0000FF0000
0000FF0000
0001FE0000
0000000000
0000000000
0000000000
001FFFF800
01FFFFFF80
0FFFFFFFE0
1FFFFFFFF8
3FFFFFFFFC
3FFFFFFFFC
7FFFE7FFFE
7FFC007FFE
7FF8003FFE
FFF8001FFF
FFF0001FFF
FFF0000FFF
FFF0000FFF
FFF0000FFF
FFF0000FFF
FFF0000FFF
FFF0000FFF
FFF0000FFF
FFF0000FFF
FFF0000FFF
FFF0000FFF
FFF0000FFF
FFF0000FFF
FFF0000FFF
FFF0000FFF
FFF0000FFF
FFF0000FFF
FFF0000FFF
FFF0000FFF
FFF0000FFF
FFF0000FFF
FFF0000FFF
FFF0000FFF
FFF0000FFF
FFF0000FFF
FFF8001FFF
FFF8001FFF
7FFC001FFE
7FFE003FFE
7FFF83FFFE
3FFFFFFFFC
3FFFFFFFFC
1FFFFFFFF8
0FFFFFFFF0
03FFFFFFC0
003FFFF800
ENDCHAR
STARTCHAR 00F4
ENCODING 244
SWIDTH 600 0
DWIDTH 48 0
BBX 40 62 4 0
BITMAP
0001FF0000
0003FF0000
0003FF8000
0007FFC000
000FFFC000
001FFFE000
001FFFF000
003FEFF000
007FC7F800
007F83FC00
00FF01FC00
01FE00FE00
01FC007F00
0000000000
0000000000
0000000000
001FFFF800
01FFFFFF80
0FFFFFFFE0
1FFFFFFFF8
3FFFFFFFFC
3FFFFFFFFC
7FFFE7FFFE
7FFC007FFE
7FF8003FFE
FFF8001FFF
FFF0001FFF
FFF0000FFF
FFF0000FFF
FFF0000FFF
FFF0000FFF
FFF0000FFF
FFF0000FFF
FFF0000FFF
FFF0000FFF
FFF0000FFF
FFF0000FFF
FFF0000FFF
FFF0000FFF
FFF0000FFF
FFF0000FFF
FFF0000FFF
FFF0000FFF
FFF0000FFF
FFF0000FFF
FFF0000FFF
FFF0000FFF
FFF0000FFF
FFF0000FFF
FFF0000FFF
FFF0000FFF
FFF8001FFF
FFF8001FFF
7FFC001FFE
7FFE003FFE
7FFF83FFFE
3FFFFFFFFC
3FFFFFFFFC
1FFFFFFFF8
0FFFFFFFF0
03FFFFFFC0
003FFFF800
ENDCHAR
STARTCHAR 00F5
ENCODING 245
SWIDTH 600 0
DWIDTH 48 0
BBX 40 61 4 0
BITMAP
000FC007C0
003FF80780
00FFFE1F80
01FFFFFF00
01FFFFFF00
03FFFFFE00
03FFFFFC00
07FFFFF800
00003FE000
0000000000
0000000000
0000000000
0000000000
0000000000
0000000000
001FFFF800
01FFFFFF80
0FFFFFFFE0
1FFFFFFFF8
3FFFFFFFFC
3FFFFFFFFC
7FFFE7FFFE
7FFC007FFE
7FF8003FFE
FFF8001FFF
FFF0001FFF
FFF0000FFF
FFF0000FFF
FFF0000FFF
FFF0000FFF
FFF0000FFF
FFF0000FFF
FFF0000FFF
FFF0000FFF
FFF0000FFF
FFF0000FFF
FFF0000FFF
FFF0000FFF
FFF0000FFF
FFF0000FFF
FFF0000FFF
FFF0000FFF
FFF0000FFF
FFF0000FFF
FFF0000FFF
FFF0000FFF
FFF0000FFF
FFF0000FFF
FFF0000FFF
FFF0000FFF
FFF8001FFF
FFF8001FFF
7FFC001FFE
7FFE003FFE
7FFF83FFFE
3FFFFFFFFC
3FFFFFFFFC
1FFFFFFFF8
0FFFFFFFF0
03FFFFFFC0
003FFFF800
ENDCHAR
STARTCHAR 00F6
ENCODING 246
SWIDTH 600 0
DWIDTH 48 0
BBX 41 60 4 0
BITMAP
00FF01FE0000
01FFC3FF8000
03FFC7FF8000
03FFC7FF8000
03FFC7FF8000
03FFC7FF8000
03FFC7FF8000
03FFC7FF8000
01FFC7FF8000
00FF01FE0000
000000000000
000000000000
000000000000
000000000000
001FFFFC0000
01FFFFFFC000
07FFFFFFF000
1FFFFFFFFC00
3FFFFFFFFE00
3FFFFFFFFE00
7FFFE3FFFF00
7FFE003FFF00
7FF8001FFF00
FFF8000FFF80
FFF8000FFF80
FFF00007FF80
FFF00007FF80
FFF00007FF80
FFF00007FF80
FFF00007FF80
FFF00007FF80
FFF00007FF80
FFF00007FF80
FFF00007FF80
FFF00007FF80
FFF00007FF80
FFF00007FF80
FFF00007FF80
FFF00007FF80
FFF00007FF80
FFF00007FF80
FFF00007FF80
FFF00007FF80
FFF00007FF80
FFF00007FF80
FFF00007FF80
FFF00007FF80
FFF00007FF80
FFF80007FF80
FFF8000FFF80
FFF8000FFF80
7FFC000FFF00
7FFE001FFF00
7FFFC1FFFF00
3FFFFFFFFE00
3FFFFFFFFE00
1FFFFFFFFC00
0FFFFFFFF800
03FFFFFFE000
003FFFFC0000
ENDCHAR
STARTCHAR 00F7
ENCODING 247
SWIDTH 600 0
DWIDTH 48 0
BBX 42 45 3 0
BITMAP
0000FF800000
0001FFC00000
0003FFE00000
0003FFE00000
0003FFE00000
0003FFE00000
0003FFE00000
0003FFE00000
0003FFE00000
0003FFE00000
0001FFC00000
0000FF800000
000000000000
000000000000
000000000000
000000000000
000000000000
3FFFFFFFFF00
7FFFFFFFFF80
FFFFFFFFFFC0
FFFFFFFFFFC0
FFFFFFFFFFC0
FFFFFFFFFFC0
FFFFFFFFFFC0
FFFFFFFFFFC0
FFFFFFFFFFC0
FFFFFFFFFFC0
7FFFFFFFFF80
3FFFFFFFFF00
000000000000
000000000000
000000000000
000000000000
00001C000000
0001FFC00000
0001FFE00000
0003FFE00000
0003FFE00000
0003FFE00000
0003FFE00000
0003FFE00000
0003FFE00000
0003FFE00000
0001FFC00000
0000FF800000
ENDCHAR
STARTCHAR 00F8
ENCODING 248
SWIDTH 600 0
DWIDTH 48 0
BBX 40 60 4 -7
BITMAP
00000003F8
00000003F0
00000007F0
00000007E0
0000000FE0
0000000FC0
0000001FC0
001FFFFF80
01FFFFFFC0
0FFFFFFFF0
1FFFFFFFF8
3FFFFFFFFC
3FFFFFFFFC
7FFFE3FFFE
7FFC00FFFE
7FF800FFFE
FFF801FFFF
FFF001FFFF
FFF003FFFF
FFF003FFFF
FFF007EFFF
FFF007EFFF
FFF00FCFFF
FFF00FCFFF
FFF01F8FFF
FFF01F8FFF
FFF03F8FFF
FFF03F0FFF
FFF03F0FFF
FFF07E0FFF
FFF07E0FFF
FFF0FC0FFF
FFF0FC0FFF
FFF1F80FFF
FFF1F80FFF
FFF3F00FFF
FFF3F00FFF
FFF7F00FFF
FFF7E00FFF
FFFFE00FFF
FFFFC00FFF
FFFFC00FFF
FFFF801FFF
FFFF801FFF
7FFF001FFE
7FFF003FFE
7FFF83FFFE
3FFFFFFFFC
3FFFFFFFFC
1FFFFFFFF8
0FFFFFFFF0
03FFFFFFC0
03FFFFFC00
03F8000000
07F0000000
07F0000000
0FE0000000
0FE0000000
1FC0000000
1FC0000000
ENDCHAR
STARTCHAR 00F9
ENCODING 249
SWIDTH 612 0
DWIDTH 49 0
BBX 39 62 6 0
BITMAP
00FFE00000
007FE00000
003FF00000
003FF00000
001FF80000
000FF80000
000FFC0000
0007FC0000
0003FC0000
0003FE0000
0001FE0000
0000FF0000
0000FF0000
0000000000
0000000000
0000000000
FFF0001FFE
FFF0001FFE
FFF0001FFE
FFF0001FFE
FFF0001FFE
FFF0001FFE
FFF0001FFE
FFF0001FFE
FFF0001FFE
FFF0001FFE
FFF0001FFE
FFF0001FFE
FFF0001FFE
FFF0001FFE
FFF0001FFE
FFF0001FFE
FFF0001FFE
FFF0001FFE
FFF0001FFE
FFF0001FFE
FFF0001FFE
FFF0001FFE
FFF0001FFE
FFF0001FFE
FFF0001FFE
FFF0001FFE
FFF0001FFE
FFF0001FFE
FFF0001FFE
FFF0001FFE
FFF0001FFE
FFF0001FFE
FFF0001FFE
FFF0001FFE
FFF0001FFE
FFF0001FFE
FFF8001FFE
FFF8003FFE
FFFC007FFE
7FFE01FFFC
7FFFFFFFFC
7FFFFFFFFC
3FFFFFFFF8
1FFFFFFFF0
07FFFFFFC0
007FFFF800
ENDCHAR
STARTCHAR 00FA
ENCODING 250
SWIDTH 612 0
DWIDTH 49 0
BBX 39 62 6 0
BITMAP
000007FF00
00000FFE00
00000FFC00
00001FFC00
00001FF800
00001FF000
00003FF000
00003FE000
00007FC000
00007FC000
0000FF8000
0000FF0000
0000FE0000
0000000000
0000000000
0000000000
FFF0001FFE
FFF0001FFE
FFF0001FFE
FFF0001FFE
FFF0001FFE
FFF0001FFE
FFF0001FFE
FFF0001FFE
FFF0001FFE
FFF0001FFE
FFF0001FFE
FFF0001FFE
FFF0001FFE
FFF0001FFE
FFF0001FFE
FFF0001FFE
FFF0001FFE
FFF0001FFE
FFF0001FFE
FFF0001FFE
FFF0001FFE
FFF0001FFE
FFF0001FFE
FFF0001FFE
FFF0001FFE
FFF0001FFE
FFF0001FFE
FFF0001FFE
FFF0001FFE
FFF0001FFE
FFF0001FFE
FFF0001FFE
FFF0001FFE
FFF0001FFE
FFF0001FFE
FFF0001FFE
FFF8001FFE
FFF8003FFE
FFFC007FFE
7FFE01FFFC
7FFFFFFFFC
7FFFFFFFFC
3FFFFFFFF8
1FFFFFFFF0
07FFFFFFC0
007FFFF800
ENDCHAR
STARTCHAR 00FB
ENCODING 251
SWIDTH 612 0
DWIDTH 49 0
BBX 39 62 6 0
BITMAP
0001FF0000
0003FF0000
0007FF8000
000FFFC000
000FFFC000
001FFFE000
003FFFF000
003FCFF000
007F87F800
00FF03FC00
00FE01FE00
01FC00FE00
03F8007F00
0000000000
0000000000
0000000000
FFF0001FFE
FFF0001FFE
FFF0001FFE
FFF0001FFE
FFF0001FFE
FFF0001FFE
FFF0001FFE
FFF0001FFE
FFF0001FFE
FFF0001FFE
FFF0001FFE
FFF0001FFE
FFF0001FFE
FFF0001FFE
FFF0001FFE
FFF0001FFE
FFF0001FFE
FFF0001FFE
FFF0001FFE
FFF0001FFE
FFF0001FFE
FFF0001FFE
FFF0001FFE
FFF0001FFE
FFF0001FFE
FFF0001FFE
FFF0001FFE
FFF0001FFE
FFF0001FFE
FFF0001FFE
FFF0001FFE
FFF0001FFE
FFF0001FFE
FFF0001FFE
FFF0001FFE
FFF0001FFE
FFF8003FFE
FFF8003FFE
FFFC007FFE
7FFE01FFFC
7FFFFFFFFC
7FFFFFFFFC
3FFFFFFFF8
1FFFFFFFF0
07FFFFFFC0
007FFFF800
ENDCHAR
STARTCHAR 00FC
ENCODING 252
SWIDTH 612 0
DWIDTH 49 0
BBX 39 60 6 0
BITMAP
00FF03FC00
01FFC7FF00
03FFCFFF00
03FFCFFF00
03FFCFFF00
03FFCFFF00
03FFCFFF00
03FFCFFF00
01FFCFFF00
00FF03FC00
0000000000
0000000000
0000000000
0000000000
FFF0001FFE
FFF0001FFE
FFF0001FFE
FFF0001FFE
FFF0001FFE
FFF0001FFE
FFF0001FFE
FFF0001FFE
FFF0001FFE
FFF0001FFE
FFF0001FFE
FFF0001FFE
FFF0001FFE
FFF0001FFE
FFF0001FFE
FFF0001FFE
FFF0001FFE
FFF0001FFE
FFF0001FFE
FFF0001FFE
FFF0001FFE
FFF0001FFE
FFF0001FFE
FFF0001FFE
FFF0001FFE
FFF0001FFE
FFF0001FFE
FFF0001FFE
FFF0001FFE
FFF0001FFE
FFF0001FFE
FFF0001FFE
FFF0001FFE
FFF0001FFE
FFF0001FFE
FFF0001FFE
FFF8001FFE
FFF8003FFE
FFFC007FFE
7FFE01FFFC
7FFFFFFFFC
7FFFFFFFFC
3FFFFFFFF8
1FFFFFFFF0
07FFFFFFC0
007FFFF800
ENDCHAR
STARTCHAR 00FF
ENCODING 255
SWIDTH 562 0
DWIDTH 45 0
BBX 40 60 4 -1
BITMAP
007F80FF00
00FFE1FFC0
01FFE3FFC0
01FFE3FFC0
01FFE3FFC0
01FFE3FFC0
01FFE3FFC0
01FFE3FFC0
00FFE3FFC0
007F80FF00
0000000000
0000000000
0000000000
0000000000
FFF0000FFF
FFF0000FFF
FFF0000FFF
FFF0000FFF
FFF0000FFF
FFF0000FFF
FFF0000FFF
FFF0000FFF
FFF0000FFF
FFF0000FFF
FFF0000FFF
FFF0000FFF
FFF0000FFF
FFF0000FFF
FFF0000FFF
FFF0000FFF
FFF0000FFF
FFF0000FFF
FFF8001FFF
FFF8001FFF
FFFC003FFF
FFFE00FFFF
7FFFFFFFFE
7FFFFFFFFE
7FFFFFFFFC
3FFFFFFFF8
1FFFFFFFF0
01FFFFFF80
0003FFC000
0003FFC000
0003FFC000
0003FFC000
0003FFC000
0003FFC000
0003FFC000
0003FFC000
0003FFC000
0003FFC000
0003FFC000
0003FFC000
0003FFC000
0003FFC000
0003FFC000
0003FFC000
0003FFC000
0003FFC000
ENDCHAR
STARTCHAR 0131
ENCODING 305
SWIDTH 275 0
DWIDTH 22 0
BBX 12 46 5 0
BITMAP
FFF0
FFF0
FFF0
FFF0
FFF0
FFF0
FFF0
FFF0
FFF0
FFF0
FFF0
FFF0
FFF0
FFF0
FFF0
FFF0
FFF0
FFF0
FFF0
FFF0
FFF0
FFF0
FFF0
FFF0
FFF0
FFF0
FFF0
FFF0
FFF0
FFF0
FFF0
FFF0
FFF0
FFF0
FFF0
FFF0
FFF0
FFF0
FFF0
FFF0
FFF0
FFF0
FFF0
FFF0
FFF0
FFF0
ENDCHAR
STARTCHAR 0152
ENCODING 338
SWIDTH 850 0
DWIDTH 68 0
BBX 60 62 4 0
BITMAP
001FFFFFFFFFFFF0
01FFFFFFFFFFFFF0
07FFFFFFFFFFFFF0
0FFFFFFFFFFFFFF0
1FFFFFFFFFFFFFF0
3FFFFFFFFFFFFFF0
3FFFFFFFFFFFFFF0
7FFFFFFFFFFFFFF0
7FFFFFFFFFFFFFF0
7FFE03FFFFC00000
7FFC00FFFF000000
7FF8007FFF000000
FFF8007FFE000000
FFF0003FFE000000
FFF0003FFE000000
FFF0003FFC000000
FFF0003FFC000000
FFF0003FFC000000
FFF0003FFC000000
FFF0003FFC000000
FFF0003FFC000000
FFF0003FFC000000
FFF0003FFC000000
FFF0003FFC000000
FFF0003FFC000000
FFF0003FFC000000
FFF0003FFFFFFC00
FFF0003FFFFFFC00
FFF0003FFFFFFC00
FFF0003FFFFFFC00
FFF0003FFFFFFC00
FFF0003FFFFFFC00
FFF0003FFFFFFC00
FFF0003FFFFFFC00
FFF0003FFC000000
FFF0003FFC000000
FFF0003FFC000000
FFF0003FFC000000
FFF0003FFC000000
FFF0003FFC000000
FFF0003FFC000000
FFF0003FFC000000
FFF0003FFC000000
FFF0003FFC000000
FFF0003FFC000000
FFF0003FFC000000
FFF0003FFC000000
FFF0003FFE000000
FFF8003FFE000000
FFF8007FFE000000
FFF8007FFF000000
7FFC00FFFF000000
7FFE01FFFFC00000
7FFFFFFFFFFFFFF0
7FFFFFFFFFFFFFF0
3FFFFFFFFFFFFFF0
3FFFFFFFFFFFFFF0
1FFFFFFFFFFFFFF0
0FFFFFFFFFFFFFF0
07FFFFFFFFFFFFF0
01FFFFFFFFFFFFF0
001FFFFFFFFFFFF0
ENDCHAR
STARTCHAR 0153
ENCODING 339
SWIDTH 850 0
DWIDTH 68 0
BBX 60 46 4 0
BITMAP
003FFFFFFFFFFFF0
03FFFFFFFFFFFFF0
0FFFFFFFFFFFFFF0
1FFFFFFFFFFFFFF0
3FFFFFFFFFFFFFF0
7FFFFFFFFFFFFFF0
7FFFFFFFFFFFFFF0
7FFC00FFFF800000
7FF8007FFF000000
FFF8007FFE000000
FFF0003FFE000000
FFF0003FFC000000
FFF0003FFC000000
FFF0003FFC000000
FFF0003FFC000000
FFF0003FFC000000
FFF0003FFC000000
FFF0003FFC000000
FFF0003FFC000000
FFF0003FFFFFFC00
FFF0003FFFFFFC00
FFF0003FFFFFFC00
FFF0003FFFFFFC00
FFF0003FFFFFFC00
FFF0003FFFFFFC00
FFF0003FFC000000
FFF0003FFC000000
FFF0003FFC000000
FFF0003FFC000000
FFF0003FFC000000
FFF0003FFC000000
FFF0003FFC000000
FFF0003FFC000000
FFF0003FFC000000
FFF0003FFC000000
FFF0003FFE000000
FFF8007FFE000000
FFF8007FFF000000
7FFC00FFFF800000
7FFFFFFFFFFFFFF0
7FFFFFFFFFFFFFF0
3FFFFFFFFFFFFFF0
1FFFFFFFFFFFFFF0
0FFFFFFFFFFFFFF0
03FFFFFFFFFFFFF0
003FFFFFFFFFFFF0
ENDCHAR
STARTCHAR 0160
ENCODING 352
SWIDTH 575 0
DWIDTH 46 0
BBX 0 0 0 0
BITMAP
ENDCHAR
STARTCHAR 0161
ENCODING 353
SWIDTH 575 0
DWIDTH 46 0
BBX 0 0 0 0
BITMAP
ENDCHAR
STARTCHAR 0178
ENCODING 376
SWIDTH 562 0
DWIDTH 45 0
BBX 40 75 4 0
BITMAP
00FF00FF00
01FFC1FFC0
03FFC3FFC0
03FFC3FFC0
03FFC3FFC0
03FFC3FFC0
03FFC3FFC0
03FFC3FFC0
01FFC3FFC0
00FF00FF00
0000000000
0000000000
0000000000
FFF0000FFF
FFF0000FFF
FFF0000FFF
FFF0000FFF
FFF0000FFF
FFF0000FFF
FFF0000FFF
FFF0000FFF
FFF0000FFF
FFF0000FFF
FFF0000FFF
FFF0000FFF
FFF0000FFF
FFF0000FFF
FFF0000FFF
FFF0000FFF
FFF0000FFF
FFF0000FFF
FFF0000FFF
FFF0000FFF
FFF0000FFF
FFF0000FFF
FFF0000FFF
FFF0000FFF
FFF0000FFF
FFF8001FFF
FFF8001FFF
FFF8001FFF
FFFC003FFF
FFFF00FFFE
7FFFFFFFFE
7FFFFFFFFE
7FFFFFFFFE
7FFFFFFFFC
3FFFFFFFF8
1FFFFFFFF0
0FFFFFFFE0
01FFFFFF00
0003FFC000
0003FFC000
0003FFC000
0003FFC000
0003FFC000
0003FFC000
0003FFC000
0003FFC000
0003FFC000
0003FFC000
0003FFC000
0003FFC000
0003FFC000
0003FFC000
0003FFC000
0003FFC000
0003FFC000
0003FFC000
0003FFC000
0003FFC000
0003FFC000
0003FFC000
0003FFC000
0003FFC000
ENDCHAR
STARTCHAR 017D
ENCODING 381
SWIDTH 462 0
DWIDTH 37 0
BBX 0 0 0 0
BITMAP
ENDCHAR
STARTCHAR 017E
ENCODING 382
SWIDTH 462 0
DWIDTH 37 0
BBX 0 0 0 0
BITMAP
ENDCHAR
STARTCHAR 02C6
ENCODING 710
SWIDTH 350 0
DWIDTH 28 0
BBX 26 13 1 49
BITMAP
00FFC000
00FFC000
01FFE000
03FFF000
03FFF000
07FFF800
0FFFFC00
0FF3FC00
1FE1FE00
3FC0FF00
3F807F00
7F003F80
FE001FC0
ENDCHAR
STARTCHAR 02C7
ENCODING 711
SWIDTH 350 0
DWIDTH 28 0
BBX 26 13 1 49
BITMAP
FE001FC0
7F003F80
3F807F80
3FC0FF00
1FF1FE00
0FFBFE00
07FFFC00
07FFF800
03FFF000
01FFF000
01FFE000
00FFC000
007FC000
ENDCHAR
STARTCHAR 02D8
ENCODING 728
SWIDTH 300 0
DWIDTH 24 0
BBX 23 12 1 50
BITMAP
FC007E
FC007E
FE00FE
FF00FE
7F83FE
7FFFFC
3FFFFC
3FFFF8
1FFFF0
0FFFE0
03FFC0
00FE00
ENDCHAR
STARTCHAR 02D9
ENCODING 729
SWIDTH 287 0
DWIDTH 23 0
BBX 12 9 6 50
BITMAP
FFF0
FFF0
FFF0
FFF0
FFF0
FFF0
FFF0
FFF0
FFF0
ENDCHAR
STARTCHAR 02DA
ENCODING 730
SWIDTH 237 0
DWIDTH 19 0
BBX 15 15 2 49
BITMAP
07C0
1FF0
3FF8
7FFC
7C7C
F83E
F01E
F01E
F01E
F83E
7C7C
7FFC
3FF8
1FF0
07C0
ENDCHAR
STARTCHAR 02DB
ENCODING 731
SWIDTH 300 0
DWIDTH 24 0
BBX 17 17 1 -16
BITMAP
007800
01F000
03E000
07E000
0FC000
1F8000
3F8000
7F0000
FE0000
FE0000
FE0000
FE0000
7F8000
7FFF80
3FFF00
0FFE00
03F800
ENDCHAR
STARTCHAR 02DC
ENCODING 732
SWIDTH 387 0
DWIDTH 31 0
BBX 29 9 1 52
BITMAP
01F80078
07FF00F0
1FFFC3F0
3FFFFFE0
3FFFFFE0
7FFFFFC0
FFFFFF80
FFFFFE00
00002000
ENDCHAR
STARTCHAR 02DD
ENCODING 733
SWIDTH 400 0
DWIDTH 32 0
BBX 30 13 1 49
BITMAP
07FF1FFC
07FE1FFC
0FFC1FF8
0FFC3FF0
1FF83FF0
1FF07FE0
3FF07FC0
3FE0FFC0
7FE0FF80
7FC1FF00
7F81FF00
FF81FE00
FF03FC00
ENDCHAR
STARTCHAR 2013
ENCODING 8211
SWIDTH 600 0
DWIDTH 48 0
BBX 36 9 6 18
BITMAP
FFFFFFFFF0
FFFFFFFFF0
FFFFFFFFF0
FFFFFFFFF0
FFFFFFFFF0
FFFFFFFFF0
FFFFFFFFF0
FFFFFFFFF0
FFFFFFFFF0
ENDCHAR
STARTCHAR 2014
ENCODING 8212
SWIDTH 1000 0
DWIDTH 80 0
BBX 68 9 6 18
BITMAP
FFFFFFFFFFFFFFFFF0
FFFFFFFFFFFFFFFFF0
FFFFFFFFFFFFFFFFF0
FFFFFFFFFFFFFFFFF0
FFFFFFFFFFFFFFFFF0
FFFFFFFFFFFFFFFFF0
FFFFFFFFFFFFFFFFF0
FFFFFFFFFFFFFFFFF0
FFFFFFFFFFFFFFFFF0
ENDCHAR
STARTCHAR 2018
ENCODING 8216
SWIDTH 300 0
DWIDTH 24 0
BBX 13 18 5 44
BITMAP
0078
03F8
0FF8
1FF8
3F80
3E00
7FE0
7FF0
FFF8
FFF8
FFF8
FFF8
FFF8
FFF8
FFF8
FFF8
7FF0
3FE0
ENDCHAR
STARTCHAR 2019
ENCODING 8217
SWIDTH 300 0
DWIDTH 24 0
BBX 13 18 5 43
BITMAP
3FE0
7FF0
FFF8
FFF8
FFF8
FFF8
FFF8
FFF8
FFF8
FFF8
7FF0
07F0
07F0
0FE0
FFC0
FF80
FF00
FC00
ENDCHAR
STARTCHAR 201A
ENCODING 8218
SWIDTH 300 0
DWIDTH 24 0
BBX 13 19 5 -7
BITMAP
0700
7FF0
7FF8
FFF8
FFF8
FFF8
FFF8
FFF8
FFF8
FFF8
7FF8
3FF0
03F0
07E0
7FE0
FFC0
FF80
FE00
E000
ENDCHAR
STARTCHAR 201C
ENCODING 8220
SWIDTH 500 0
DWIDTH 40 0
BBX 30 18 5 44
BITMAP
0078003C
03F801FC
0FF807FC
1FF80FFC
3F801FC0
3E001F00
7FE03FF0
7FF03FF8
FFF87FFC
FFF87FFC
FFF87FFC
FFF87FFC
FFF87FFC
FFF87FFC
FFF87FFC
FFF87FFC
7FF03FF8
3FE01FF0
ENDCHAR
STARTCHAR 201D
ENCODING 8221
SWIDTH 500 0
DWIDTH 40 0
BBX 30 18 5 43
BITMAP
3FE01FF0
7FF03FF8
FFF87FFC
FFF87FFC
FFF87FFC
FFF87FFC
FFF87FFC
FFF87FFC
FFF87FFC
FFF87FFC
7FF03FF8
07F003F8
07F003F8
0FE007F0
FFC07FE0
FF807FC0
FF007F80
FC007E00
ENDCHAR
STARTCHAR 201E
ENCODING 8222
SWIDTH 500 0
DWIDTH 40 0
BBX 30 19 5 -7
BITMAP
07000380
7FF03FF8
7FF83FFC
FFF87FFC
FFF87FFC
FFF87FFC
FFF87FFC
FFF87FFC
FFF87FFC
FFF87FFC
7FF83FFC
3FF01FF8
03F001F8
07E003F0
7FE03FF0
FFC07FE0
FF807FC0
FE007F00
E0007000
ENDCHAR
STARTCHAR 2020
ENCODING 8224
SWIDTH 437 0
DWIDTH 35 0
BBX 34 71 1 -9
BITMAP
000FFC0000
000FFE0000
001FFE0000
001FFE0000
001FFE0000
001FFE0000
001FFE0000
001FFE0000
001FFE0000
001FFE0000
001FFE0000
001FFE0000
001FFE0000
001FFE0000
001FFE0000
001FFE0000
001FFE0000
001FFE0000
001FFE0000
FFFFFFFFC0
FFFFFFFFC0
FFFFFFFFC0
FFFFFFFFC0
FFFFFFFFC0
FFFFFFFFC0
FFFFFFFFC0
FFFFFFFFC0
FFFFFFFFC0
FFFFFFFFC0
001FFE0000
001FFE0000
001FFE0000
001FFE0000
001FFE0000
001FFE0000
001FFE0000
001FFE0000
001FFE0000
001FFE0000
001FFE0000
001FFE0000
001FFE0000
001FFE0000
001FFE0000
001FFE0000
001FFE0000
001FFE0000
001FFE0000
001FFE0000
001FFE0000
001FFE0000
001FFE0000
001FFE0000
001FFE0000
001FFE0000
001FFE0000
001FFE0000
001FFE0000
001FFE0000
001FFE0000
001FFE0000
001FFE0000
001FFE0000
001FFE0000
001FFE0000
001FFE0000
001FFE0000
001FFE0000
001FFE0000
000FFE0000
000FFC0000
ENDCHAR
STARTCHAR 2022
ENCODING 8226
SWIDTH 600 0
DWIDTH 48 0
BBX 29 30 10 14
BITMAP
00070000
007FF000
01FFFC00
07FFFE00
0FFFFF80
1FFFFF80
3FFFFFC0
3FFFFFE0
7FFFFFE0
7FFFFFF0
FFFFFFF0
FFFFFFF0
FFFFFFF8
FFFFFFF8
FFFFFFF8
FFFFFFF8
FFFFFFF8
FFFFFFF8
FFFFFFF0
7FFFFFF0
7FFFFFF0
7FFFFFE0
3FFFFFE0
1FFFFFC0
1FFFFF80
0FFFFF00
07FFFE00
01FFFC00
007FF000
000F0000
ENDCHAR
STARTCHAR 2026
ENCODING 8230
SWIDTH 1000 0
DWIDTH 80 0
BBX 66 12 7 0
BITMAP
07000001C000003800
7FF0001FFC0003FF80
7FF8001FFE0003FFC0
FFF8003FFE0007FFC0
FFF8003FFE0007FFC0
FFF8003FFE0007FFC0
FFF8003FFE0007FFC0
FFF8003FFE0007FFC0
FFF8003FFE0007FFC0
FFF8003FFE0007FFC0
7FF0001FFC0003FF80
3FE0000FF80001FF00
ENDCHAR
STARTCHAR 2030
ENCODING 8240
SWIDTH 1075 0
DWIDTH 86 0
BBX 80 63 3 0
BITMAP
03FFE00000FC00000000
1FFFFC0000FC00000000
3FFFFE0001F800000000
7FFFFF0003F800000000
7F80FF0003F000000000
FF007F8007E000000000
FE003F8007E000000000
FE003F800FC000000000
FE003F800FC000000000
FE003F801F8000000000
FE003F801F8000000000
FE003F803F0000000000
FE003F807E0000000000
FE003F807E0000000000
FE003F80FC0000000000
FE003F80FC0000000000
FE003F81F80000000000
FE003F81F80000000000
FE003F83F00000000000
FE003F83F00000000000
FE003F87E00000000000
FE003F8FC00000000000
FF003F8FC00000000000
FF007F9F800000000000
7F80FF1F800000000000
7FFFFF3F000000000000
3FFFFE3F000000000000
1FFFFC7E000000000000
07FFF07E000000000000
000000FC000000000000
000001F8000000000000
000001F8000000000000
000003F0000000000000
000003F0000000000000
000007E0000000000000
000007E07FFE0007FFE0
00000FC3FFFF803FFFF8
00000FC7FFFFE07FFFFE
00001F8FFFFFE0FFFFFE
00003F0FF01FF0FF01FF
00003F1FE00FF1FE00FF
00007E1FC007F1FC007F
00007E1FC007F1FC007F
0000FC1FC007F1FC007F
0000FC1FC007F1FC007F
0001F81FC007F1FC007F
0001F81FC007F1FC007F
0003F01FC007F1FC007F
0007E01FC007F1FC007F
0007E01FC007F1FC007F
000FC01FC007F1FC007F
000FC01FC007F1FC007F
001F801FC007F1FC007F
001F801FC007F1FC007F
003F001FC007F1FC007F
003F001FC007F1FC007F
007E001FC007F1FC007F
00FC001FE00FF1FE00FF
00FC000FF01FE0FF01FE
01F8000FFFFFE0FFFFFE
01F80007FFFFC07FFFFC
03F00003FFFF803FFFF8
03F00000FFFE000FFFE0
ENDCHAR
STARTCHAR 2039
ENCODING 8249
SWIDTH 237 0
DWIDTH 19 0
BBX 14 29 3 6
BITMAP
00FC
01F8
03F8
03F0
07F0
07E0
0FE0
0FC0
1FC0
3F80
3F80
7F00
7E00
FE00
FE00
7E00
7F00
3F00
3F80
1F80
1FC0
0FC0
0FE0
07E0
07F0
03F0
03F8
01F8
01FC
ENDCHAR
STARTCHAR 203A
ENCODING 8250
SWIDTH 237 0
DWIDTH 19 0
BBX 14 29 3 6
BITMAP
FC00
FE00
7E00
7F00
3F00
3F80
1F80
1FC0
0FC0
0FE0
07E0
07F0
03F0
03F8
01F8
01FC
03F8
03F8
07F0
07E0
0FE0
0FC0
1FC0
1F80
3F80
3F00
7E00
7E00
FC00
ENDCHAR
STARTCHAR 2044
ENCODING 8260
SWIDTH 425 0
DWIDTH 34 0
BBX 41 62 -3 0
BITMAP
000000001F80
000000003F00
000000003E00
000000007E00
00000000FC00
00000000FC00
00000001F800
00000001F800
00000003F000
00000003F000
00000007E000
0000000FC000
0000000FC000
0000001F8000
0000001F8000
0000003F0000
0000003F0000
0000007E0000
0000007C0000
000000FC0000
000001F80000
000001F80000
000003F00000
000003F00000
000007E00000
000007E00000
00000FC00000
00000F800000
00001F800000
00003F000000
00003F000000
00007E000000
00007E000000
0000FC000000
0000F8000000
0001F8000000
0003F0000000
0003F0000000
0007E0000000
0007E0000000
000FC0000000
000FC0000000
001F80000000
001F00000000
003F00000000
007E00000000
007E00000000
00FC00000000
00FC00000000
01F800000000
01F800000000
03F000000000
03E000000000
07E000000000
0FC000000000
0FC000000000
1F8000000000
1F8000000000
3F0000000000
3E0000000000
7E0000000000
FC0000000000
ENDCHAR
STARTCHAR 2122
ENCODING 8482
SWIDTH 612 0
DWIDTH 49 0
BBX 36 20 5 42
BITMAP
FFF0FFFF80
FFF3FFFFE0
FFF7FFFFF0
0F07C3E1F0
0F0781E0F0
0F0781E0F0
0F0781E0F0
0F0781E0F0
0F0781E0F0
0F0781E0F0
0F0781E0F0
0F0781E0F0
0F0781E0F0
0F0781E0F0
0F0781E0F0
0F0781E0F0
0F0781E0F0
0F0781E0F0
0F0781E0F0
0F0781E0F0
ENDCHAR
STARTCHAR 2202
ENCODING 8706
SWIDTH 600 0
DWIDTH 48 0
BBX 40 62 4 0
BITMAP
000FFFF000
00FFFFFF00
03FFFFFFC0
0FFFFFFFF0
1FFFFFFFF8
1FFFFFFFF8
3FFFFFFFFC
3FFFFFFFFC
7FFFFFFFFE
7FFE00FFFE
7FFC003FFE
7FF8001FFE
FFF8001FFF
FFF8001FFF
FFF0000FFF
FFF0000FFF
FFF0000FFF
FFF0000FFF
FFF0000FFF
FFF0000FFF
FFF0000FFF
FFF0000FFF
FFF0000FFF
FFF0000FFF
FFF0000FFF
FFF0000FFF
FFFFFFFFFF
FFFFFFFFFF
FFFFFFFFFF
FFFFFFFFFF
FFFFFFFFFF
FFFFFFFFFF
FFFFFFFFFF
FFFFFFFFFF
FFF0000FFF
FFF0000FFF
FFF0000FFF
FFF0000FFF
FFF0000FFF
FFF0000FFF
FFF0000FFF
FFF0000FFF
FFF0000FFF
FFF0000FFF
FFF0000FFF
FFF0000FFF
FFF0000FFF
FFF8000FFF
FFF8001FFF
7FF8001FFE
7FFC001FFE
7FFC003FFE
7FFE007FFE
7FFFFFFFFE
3FFFFFFFFC
3FFFFFFFFC
3FFFFFFFF8
1FFFFFFFF8
0FFFFFFFF0
07FFFFFFE0
01FFFFFF80
001FFFF800
ENDCHAR
STARTCHAR 220F
ENCODING 8719
SWIDTH 562 0
DWIDTH 45 0
BBX 0 0 0 0
BITMAP
ENDCHAR
STARTCHAR 2211
ENCODING 8721
SWIDTH 575 0
DWIDTH 46 0
BBX 36 52 6 -7
BITMAP
003FFFC000
03FFFFFE00
0FFFFFFF80
1FFFFFFFC0
3FFFFFFFE0
7FFFFFFFF0
7FFF8FFFF0
7FFC03FFF0
FFF801FFF0
FFF000FFF0
FFF000FFF0
FFF000FFF0
FFF000FFF0
FFF000FFF0
FFF001FFF0
FFF001FFF0
FFF007FFF0
FFF0FFFFE0
FFF0FFFFC0
FFF0FFFF80
FFF0FFF800
FFF0FFFF00
FFF0FFFF80
FFF0FFFFC0
FFF00FFFE0
FFF003FFE0
FFF001FFF0
FFF000FFF0
FFF000FFF0
FFF000FFF0
FFF000FFF0
FFF000FFF0
FFF000FFF0
FFF000FFF0
FFF000FFF0
FFF000FFF0
FFF000FFF0
FFF001FFF0
FFF003FFF0
FFF00FFFF0
FFF0FFFFE0
FFF0FFFFE0
FFF0FFFFC0
FFF0FFFF80
FFF0FFFC00
FFF0FFC000
FFF0000000
FFF0000000
FFF0000000
FFF0000000
FFF0000000
FFF0000000
ENDCHAR
STARTCHAR 2260
ENCODING 8800
SWIDTH 562 0
DWIDTH 45 0
BBX 36 52 6 -7
BITMAP
003FFFC000
03FFFFFE00
0FFFFFFF80
1FFFFFFFC0
3FFFFFFFE0
7FFFFFFFF0
7FFF8FFFF0
7FFC03FFF0
FFF801FFF0
FFF000FFF0
FFF000FFF0
FFF000FFF0
FFF000FFF0
FFF000FFF0
FFF001FFF0
FFF001FFF0
FFF007FFF0
FFF0FFFFE0
FFF0FFFFC0
FFF0FFFF80
FFF0FFF800
FFF0FFFF00
FFF0FFFF80
FFF0FFFFC0
FFF00FFFE0
FFF003FFE0
FFF001FFF0
FFF000FFF0
FFF000FFF0
FFF000FFF0
FFF000FFF0
FFF000FFF0
FFF000FFF0
FFF000FFF0
FFF000FFF0
FFF000FFF0
FFF000FFF0
FFF001FFF0
FFF003FFF0
FFF00FFFF0
FFF0FFFFE0
FFF0FFFFE0
FFF0FFFFC0
FFF0FFFF80
FFF0FFFC00
FFF0FFC000
FFF0000000
FFF0000000
FFF0000000
FFF0000000
FFF0000000
FFF0000000
ENDCHAR
ENDFONT
